<svg version="1.0" xmlns="http://www.w3.org/2000/svg"
 width="520.000000pt" height="520.000000pt" viewBox="0 0 520.000000 520.000000"
 preserveAspectRatio="xMidYMid meet">
<g transform="translate(0.000000,520.000000) scale(0.100000,-0.100000)"
fill="#000000" stroke="none">
<path d="M1808 4705 c-68 -22 -153 -84 -193 -140 -19 -26 -35 -52 -35 -56 0
-4 26 19 58 50 51 51 52 52 11 6 -25 -27 -53 -61 -62 -74 l-16 -24 -10 25
c-28 74 -215 158 -351 158 -126 0 -236 -63 -320 -183 -60 -84 -89 -170 -97
-284 l-6 -83 -32 0 c-44 0 -130 -45 -164 -87 -85 -103 -77 -285 16 -347 l34
-24 -40 -31 c-129 -103 -180 -317 -108 -462 56 -115 171 -208 312 -252 57 -18
93 -22 200 -22 155 1 269 25 429 90 13 6 5 -10 -23 -45 -192 -243 -453 -843
-600 -1382 -57 -211 -95 -445 -66 -417 2 3 18 74 35 158 95 478 346 1142 563
1490 46 74 115 168 165 222 l32 37 69 -35 c56 -29 84 -37 143 -40 68 -5 75 -3
96 19 14 16 26 47 33 86 l11 61 53 11 c116 24 192 106 202 219 7 74 -9 124
-82 251 -83 145 -107 212 -113 306 -5 90 -7 85 71 135 56 36 117 118 149 198
17 45 22 77 22 161 1 113 -7 145 -56 217 -45 67 -105 96 -202 100 -52 2 -98
-3 -128 -12z m-262 -445 c29 -19 97 -92 118 -128 4 -7 -5 -24 -23 -43 -26 -25
-31 -38 -31 -78 0 -118 96 -271 169 -271 30 0 26 17 -8 34 -43 23 -87 78 -110
141 -33 87 -26 141 20 166 18 9 26 6 53 -19 17 -16 46 -37 64 -46 27 -14 32
-22 32 -51 0 -19 14 -97 31 -173 23 -98 33 -173 36 -264 5 -122 5 -130 -20
-181 -83 -168 -326 -118 -538 110 -35 39 -80 98 -99 131 -37 64 -56 79 -48 37
5 -22 0 -26 -31 -35 -52 -14 -72 -12 -109 10 -61 37 -87 107 -60 165 15 34 45
40 99 19 24 -9 60 -18 80 -21 32 -4 39 -1 58 25 12 17 39 98 61 181 41 157 72
232 112 267 54 49 92 55 144 24z m-761 -190 c-3 -5 -14 -10 -23 -10 -25 -1
-103 -38 -132 -63 l-25 -22 25 29 c25 29 70 53 125 66 17 5 31 8 33 9 2 1 0
-3 -3 -9z"/>
<path d="M1379 4047 c-33 -22 -51 -57 -29 -57 6 0 25 10 41 23 24 17 43 22 85
21 38 -1 54 2 54 11 0 33 -103 35 -151 2z"/>
<path d="M1784 3907 c13 -104 -17 -108 -61 -8 -17 38 -27 51 -35 43 -14 -14
15 -90 48 -125 28 -31 28 -31 55 -17 15 9 19 22 19 70 0 63 -7 90 -22 90 -7 0
-8 -20 -4 -53z"/>
<path d="M1535 3928 c-3 -8 -2 -41 3 -73 5 -32 7 -66 5 -76 -9 -33 -48 -23
-87 23 -40 49 -60 46 -25 -4 45 -67 90 -85 124 -51 14 14 17 31 13 95 -5 77
-21 119 -33 86z"/>
<path d="M1739 3544 c-8 -10 -25 -14 -48 -12 -27 2 -36 -1 -36 -12 0 -26 79
-26 105 0 11 11 18 25 15 30 -9 14 -21 12 -36 -6z"/>
<path d="M3220 4371 c0 -12 40 -51 52 -51 10 0 10 11 0 26 -11 17 -52 36 -52
25z"/>
<path d="M4320 4211 l-25 -8 25 -7 c14 -3 77 -7 140 -9 l115 -2 -1 -93 c-1
-51 -5 -118 -9 -149 l-7 -56 -129 5 c-71 3 -134 9 -140 15 -6 6 -13 70 -16
142 -6 123 -17 162 -25 81 l-3 -35 -63 2 c-85 4 -102 -6 -102 -60 l0 -42 -75
0 -75 0 0 46 0 46 -61 7 c-33 3 -72 3 -85 0 -22 -6 -24 -3 -24 34 0 23 -4 44
-10 47 -12 8 -13 -2 -10 -151 2 -110 0 -122 -17 -129 -10 -4 -70 -9 -133 -12
-87 -4 -119 -2 -133 9 -15 11 -19 35 -24 149 l-6 136 33 6 c18 4 76 7 129 7
53 0 103 5 111 10 10 7 -32 10 -127 10 -185 0 -178 7 -168 -155 4 -67 10 -137
14 -156 6 -33 9 -34 64 -43 l57 -8 0 -74 0 -74 120 0 120 0 0 -40 0 -40 -77
-1 c-43 0 -96 -1 -118 -2 l-40 -2 -3 -71 -3 -72 -50 -4 c-28 -3 -55 -12 -61
-19 -9 -14 -3 -221 9 -280 8 -41 33 -49 146 -49 114 1 177 13 194 36 7 10 13
37 13 61 l0 43 80 0 80 0 0 45 0 45 44 0 c68 0 76 -6 76 -56 l0 -44 80 0 80 0
0 -45 c0 -62 15 -68 186 -73 134 -4 143 -3 153 16 14 27 31 282 20 304 -6 11
-24 18 -52 20 l-42 3 -5 75 -5 75 -114 3 c-75 2 -118 -1 -127 -9 -8 -6 -14
-29 -14 -51 0 -40 0 -40 -31 -34 -17 3 -49 6 -70 6 -39 0 -39 0 -39 40 l0 40
75 0 75 0 0 35 0 35 103 0 c152 0 147 -3 147 91 l0 79 34 0 c53 0 63 18 70
117 4 49 9 113 11 143 9 89 0 95 -142 97 -65 1 -129 -2 -143 -6z m-400 -266
l0 -45 -59 0 c-84 0 -91 -4 -91 -56 l0 -44 -71 0 -70 0 3 27 c3 25 8 28 58 36
65 9 80 25 80 84 l0 43 75 0 75 0 0 -45z m330 -9 c5 -54 5 -54 103 -70 34 -6
37 -9 37 -41 l0 -35 -75 0 -75 0 0 55 0 55 -75 0 -75 0 0 45 0 46 78 -3 77 -3
5 -49z m-180 -91 l0 -45 -65 0 -65 0 0 45 0 45 65 0 65 0 0 -45z m136 -55 c21
0 24 -5 24 -35 l0 -35 -70 0 -70 0 0 41 0 42 46 -7 c26 -3 57 -6 70 -6z m-286
-35 l0 -35 -54 0 c-30 0 -61 -3 -70 -6 -13 -5 -16 2 -16 35 l0 41 70 0 70 0 0
-35z m150 -85 l0 -40 -60 0 -60 0 0 40 0 40 60 0 60 0 0 -40z m-150 -98 l0
-38 -70 1 -70 0 0 38 0 37 70 0 70 0 0 -38z m432 -42 c48 0 49 -1 46 -27 -3
-26 -7 -28 -55 -31 -29 -2 -53 -7 -53 -13 0 -5 54 -9 128 -9 70 0 133 -4 141
-9 11 -7 13 -28 7 -107 -12 -173 -12 -172 -60 -179 -40 -6 -235 10 -245 21 -3
2 -7 61 -9 129 -3 69 -8 125 -13 125 -5 0 -9 -16 -9 -35 l0 -35 -70 0 -70 0 0
40 0 40 75 0 75 0 0 51 0 52 31 -7 c17 -3 54 -6 81 -6z m-629 -10 l47 0 0 -40
0 -40 75 0 75 0 0 -35 0 -35 -54 0 c-30 0 -61 -3 -70 -6 -12 -5 -16 1 -16 24
0 17 -4 34 -10 37 -13 8 -13 5 -14 -140 l-1 -120 -30 -6 c-48 -11 -253 -10
-260 1 -3 5 -9 70 -12 145 l-6 135 116 0 c70 0 127 5 144 12 27 12 26 13 -29
16 -53 3 -58 5 -58 26 0 29 10 38 35 32 11 -3 41 -6 68 -6z m298 0 l49 0 0
-35 0 -35 -65 0 -65 0 0 41 c0 33 3 40 16 35 9 -3 38 -6 65 -6z"/>
<path d="M4375 3350 c-4 -6 11 -10 39 -10 43 0 44 -1 37 -27 -6 -23 -14 -29
-44 -31 -32 -3 -37 0 -37 17 0 12 -7 21 -15 21 -13 0 -15 -7 -9 -37 3 -21 10
-42 14 -46 4 -5 31 -7 61 -5 l54 3 3 63 3 62 -50 0 c-27 0 -53 -4 -56 -10z"/>
<path d="M3543 3353 c-16 -6 -18 -109 -3 -118 6 -4 35 -9 64 -12 48 -5 55 -3
66 16 12 24 5 81 -11 81 -5 0 -9 -11 -9 -25 0 -29 -19 -40 -55 -31 -20 5 -25
13 -25 36 0 24 4 30 23 30 12 0 29 5 37 10 11 7 7 10 -17 10 -17 0 -37 2 -45
4 -7 3 -19 2 -25 -1z"/>
<path d="M3512 4038 l3 -63 68 -3 68 -3 -3 46 c-4 53 -22 65 -26 18 -3 -30 -6
-33 -38 -33 -33 0 -34 1 -34 40 0 38 2 40 29 40 17 0 33 5 36 10 4 6 -15 10
-50 10 l-56 0 3 -62z"/>
<path d="M4385 4090 c3 -5 23 -10 44 -10 36 0 37 -1 33 -30 -4 -27 -8 -30 -38
-30 -28 0 -36 5 -45 27 -13 36 -28 17 -22 -29 l5 -38 63 0 63 0 4 56 c1 31 1
58 -1 60 -10 9 -112 4 -106 -6z"/>
<path d="M3165 3645 c-116 -34 -222 -73 -287 -106 -43 -22 -64 -40 -83 -73
-72 -122 -266 -697 -290 -856 -13 -81 12 -31 55 115 65 220 131 414 143 422 6
4 35 6 64 6 30 -1 51 3 48 8 -4 5 -29 9 -56 9 -31 0 -48 4 -44 10 9 14 70 12
140 -5 33 -8 66 -14 73 -15 19 0 14 18 -7 25 -19 6 -19 9 -6 51 20 68 27 73
88 62 57 -11 135 -5 167 12 26 14 26 56 1 70 -11 5 -40 10 -64 10 -24 0 -58 5
-76 11 -18 6 -35 8 -38 5 -15 -15 27 -37 78 -42 84 -8 103 -14 92 -25 -30 -30
-129 -31 -238 -3 -26 6 -28 5 -18 -8 10 -12 8 -25 -9 -69 -13 -30 -23 -55 -23
-56 0 -1 -19 4 -40 12 -22 8 -55 14 -72 15 -18 0 -33 4 -33 8 0 34 85 209 118
244 43 47 357 159 441 158 l36 -1 -27 -14 c-14 -8 -62 -26 -106 -40 -78 -25
-134 -57 -121 -70 4 -3 22 0 41 8 31 13 38 13 72 -5 48 -25 53 -40 27 -83 -24
-42 -26 -55 -8 -55 18 0 47 63 47 100 0 24 -7 33 -37 49 -26 13 -33 21 -23 24
8 3 39 13 68 22 65 21 108 55 99 78 -9 25 -95 21 -192 -8z"/>
<path d="M3090 3482 c0 -5 16 -13 36 -16 33 -7 35 -9 29 -37 -8 -37 12 -39 26
-2 7 20 6 30 -4 40 -17 17 -87 30 -87 15z"/>
<path d="M2987 3093 c-4 -7 -12 -52 -18 -100 -32 -286 -112 -588 -209 -789
-94 -194 -175 -220 -311 -99 -37 33 -71 55 -85 55 -19 0 -15 -7 34 -53 80 -75
114 -96 165 -103 57 -8 123 21 161 70 101 134 213 474 262 797 15 102 16 245
1 222z"/>
<path d="M1955 3080 c-4 -6 20 -41 53 -78 83 -94 99 -121 81 -133 -8 -5 -22
-9 -31 -9 -26 0 -118 36 -139 55 -10 10 -23 15 -30 13 -21 -7 39 -65 92 -88
59 -25 106 -21 134 10 31 34 4 91 -94 193 -47 49 -56 54 -66 37z"/>
<path d="M4625 3020 c10 -16 105 -62 118 -57 16 5 -82 67 -106 67 -10 0 -15
-5 -12 -10z"/>
<path d="M3347 2951 c-39 -37 -47 -59 -16 -45 21 9 83 84 70 84 -7 0 -31 -18
-54 -39z"/>
<path d="M4550 2985 c0 -15 42 -85 50 -85 10 0 1 32 -20 71 -10 17 -30 27 -30
14z"/>
<path d="M1527 2948 c-36 -78 -50 -222 -27 -282 14 -37 45 -50 81 -36 42 18
128 116 156 178 42 95 25 94 -38 -1 -77 -115 -130 -158 -165 -133 -26 20 -24
150 5 233 24 71 24 73 12 73 -5 0 -16 -15 -24 -32z"/>
<path d="M2210 2815 c0 -3 33 -37 74 -75 40 -39 97 -106 126 -150 29 -44 59
-80 67 -80 21 0 12 18 -49 107 -71 103 -218 236 -218 198z"/>
<path d="M1854 2679 c-3 -6 -2 -15 4 -21 6 -6 6 -24 1 -46 -10 -44 4 -72 35
-72 47 0 57 104 12 135 -24 18 -42 19 -52 4z"/>
<path d="M2210 2558 c5 -18 20 -109 35 -203 14 -93 39 -237 57 -319 37 -174
36 -176 -52 -237 -97 -67 -251 -116 -434 -139 -78 -10 -126 -10 -234 0 -76 6
-139 14 -141 16 -3 2 -4 48 -3 102 1 53 -2 113 -6 132 -7 26 -11 -10 -16 -135
-16 -397 -42 -662 -83 -865 -14 -69 -27 -138 -30 -155 -4 -28 -3 -29 11 -11 8
10 17 23 19 29 2 7 14 6 37 -1 39 -14 159 -15 212 -3 34 8 42 6 74 -20 33 -26
44 -29 109 -29 74 0 128 13 156 36 21 18 67 18 142 -2 34 -9 77 -13 97 -10 19
3 72 10 117 15 109 14 146 30 177 80 21 32 36 43 77 55 28 9 56 14 62 13 21
-4 8 60 -109 515 -106 411 -114 451 -104 488 13 47 3 74 -15 41 -10 -20 -14
-12 -33 72 -12 52 -35 182 -52 288 -32 206 -43 251 -65 269 -12 10 -12 6 -5
-22z"/>
<path d="M1875 2451 c-3 -5 -1 -12 4 -15 5 -3 7 -24 4 -46 -4 -25 -1 -46 7
-55 41 -49 83 48 44 103 -15 22 -48 30 -59 13z"/>
<path d="M1323 1917 c-45 -57 -91 -236 -157 -611 -14 -79 -30 -143 -38 -148
-7 -4 -31 -13 -53 -19 -22 -7 -35 -14 -28 -16 6 -2 28 0 47 6 27 7 36 6 36 -2
0 -20 -13 -33 -50 -53 -39 -20 -182 -26 -254 -11 -36 8 -38 7 -27 -7 8 -9 19
-16 25 -16 6 0 17 -4 25 -9 11 -7 9 -24 -12 -97 -45 -155 -51 -214 -32 -280
12 -41 29 -70 60 -102 44 -45 112 -79 128 -63 4 4 1 44 -6 89 -8 44 -12 93 -9
108 4 20 1 25 -9 22 -19 -6 -23 -52 -9 -121 6 -32 9 -61 6 -65 -9 -9 -43 79
-51 131 -3 26 -11 47 -17 47 -12 0 -3 -75 17 -135 14 -40 14 -40 -5 -17 -10
12 -24 48 -30 80 -21 98 -31 114 -26 42 2 -36 7 -74 10 -85 4 -11 -5 3 -19 30
-31 62 -33 141 -6 240 11 39 24 89 31 113 l11 42 57 0 c60 0 156 32 191 64 23
21 41 92 86 351 39 219 62 311 107 424 32 82 33 108 1 68z"/>
<path d="M1026 957 c-12 -56 0 -134 29 -191 14 -27 24 -51 21 -53 -2 -2 -20
10 -40 28 -41 36 -57 33 -32 -6 22 -34 82 -63 97 -48 8 8 3 30 -22 80 -26 53
-35 85 -39 148 -5 73 -7 77 -14 42z"/>
</g>
</svg>
