<svg version="1.0" xmlns="http://www.w3.org/2000/svg"
 width="1040.000000pt" height="1040.000000pt" viewBox="0 0 1040.000000 1040.000000"
 preserveAspectRatio="xMidYMid meet">
<g transform="translate(0.000000,1040.000000) scale(0.100000,-0.100000)"
fill="#000000" stroke="none">
<path d="M7020 8989 c-94 -42 -142 -115 -143 -215 -1 -52 4 -70 29 -110 79
-128 296 -143 362 -25 31 55 31 155 0 201 -37 54 -71 73 -137 78 -109 8 -179
-57 -168 -155 8 -74 88 -135 153 -119 37 10 74 54 74 88 0 35 -39 78 -72 79
-49 2 -73 -3 -85 -19 -7 -9 -13 -11 -13 -5 0 60 92 93 159 58 80 -41 78 -186
-3 -220 -136 -57 -281 54 -245 188 23 88 91 140 202 153 66 8 80 19 42 34 -42
16 -106 11 -155 -11z"/>
<path d="M4955 8618 c-113 -9 -243 -46 -362 -103 -150 -71 -241 -137 -489
-355 -194 -171 -175 -162 -228 -103 -54 60 -121 98 -218 122 -208 53 -434 29
-623 -66 -307 -155 -531 -466 -641 -891 -41 -160 -60 -304 -74 -562 -27 -504
-57 -591 -327 -928 -214 -266 -351 -500 -409 -697 -35 -119 -44 -315 -20 -419
40 -169 169 -328 326 -404 49 -24 114 -46 154 -53 80 -13 204 -7 286 15 l55
15 22 -27 c13 -15 50 -80 84 -145 72 -140 111 -187 187 -224 83 -41 219 -44
354 -9 122 31 234 84 232 109 -1 10 10 24 28 33 29 15 28 13 -20 -58 -278
-413 -530 -944 -621 -1309 -83 -334 -81 -559 9 -725 l38 -72 -47 -6 c-25 -3
-269 -8 -541 -11 -272 -4 -505 -8 -517 -11 -24 -4 -53 -30 -53 -45 0 -7 200
-9 561 -8 400 1 564 -2 572 -10 8 -8 -24 -11 -118 -11 -242 0 -640 -11 -713
-20 -73 -8 -91 -14 -79 -26 8 -8 26 -8 522 1 242 4 437 5 434 1 -3 -3 -158
-11 -345 -16 -327 -9 -384 -13 -384 -30 0 -15 37 -16 215 -9 99 4 267 8 374 8
184 1 195 0 230 -21 l36 -23 -230 -6 c-291 -8 -367 -18 -327 -43 4 -2 145 0
314 6 197 7 315 7 334 1 24 -8 8 -11 -83 -16 -94 -6 -183 -22 -148 -27 15 -2
549 -10 710 -11 261 -1 680 12 690 22 5 5 -10 9 -40 9 -28 0 -94 3 -147 7
l-97 6 50 23 c28 13 63 33 79 44 24 17 47 20 175 22 108 2 149 6 153 16 3 9
-16 12 -70 12 -51 0 -68 3 -58 10 11 7 -2 10 -42 10 -37 0 -58 4 -58 11 0 8
13 10 38 5 20 -3 85 -6 145 -6 97 0 107 -2 107 -18 0 -52 88 -68 181 -32 46
17 54 18 73 5 26 -19 129 -19 261 0 55 8 111 15 125 15 21 -1 19 -3 -15 -19
l-40 -19 86 -1 c48 -1 121 -8 163 -17 54 -11 102 -14 168 -9 51 3 250 8 443
11 346 5 350 5 389 -17 45 -25 98 -29 143 -10 24 10 40 28 60 69 75 153 -2
354 -187 491 -131 98 -253 137 -371 121 -61 -8 -88 -20 -109 -44 -15 -19 -6
-20 53 -5 23 5 69 9 102 7 l60 -3 -32 -18 c-39 -21 -339 -99 -473 -123 -107
-19 -130 -28 -130 -50 0 -12 6 -15 23 -11 12 4 76 16 142 27 247 45 457 100
513 136 19 13 26 13 50 0 52 -27 139 -104 191 -169 46 -58 119 -202 108 -213
-9 -9 -181 -23 -374 -29 -182 -6 -203 -5 -203 9 0 25 -20 19 -100 -30 -86 -54
-171 -88 -258 -104 -71 -13 -146 -3 -287 37 -94 27 -105 27 -337 5 -43 -4 -85
-5 -95 -1 -15 5 -14 8 8 22 46 31 146 66 233 83 82 16 90 16 164 0 42 -10 88
-16 102 -14 23 3 21 6 -25 36 -66 43 -116 55 -196 49 -93 -8 -206 -48 -328
-117 -121 -69 -203 -93 -228 -68 -14 15 -11 19 28 48 66 47 221 137 296 171
60 27 72 29 142 24 107 -8 142 18 49 36 -100 19 -138 12 -254 -45 -60 -30
-149 -79 -198 -110 -83 -53 -92 -56 -133 -50 -23 3 -43 10 -43 14 0 27 170
137 335 217 132 63 163 66 360 28 170 -33 256 -41 283 -26 51 27 42 30 -286
82 -236 38 -236 38 -397 -40 -102 -49 -288 -167 -337 -214 -17 -15 -28 -37
-28 -52 l0 -26 -92 7 c-51 4 -94 7 -95 8 -1 1 21 28 48 61 79 94 154 213 218
341 85 171 271 648 271 695 0 23 -58 -42 -88 -100 -17 -31 -67 -148 -112 -261
-143 -356 -238 -526 -377 -671 -95 -99 -161 -150 -256 -194 -201 -94 -464 -83
-692 29 -104 51 -157 94 -220 177 -184 238 -192 558 -24 1034 115 328 282 651
524 1015 215 323 401 542 588 693 87 70 162 117 188 117 6 0 20 -11 31 -25 42
-54 53 17 14 93 -47 93 -144 208 -282 337 -201 188 -271 263 -302 325 -24 50
-27 67 -31 185 -2 75 2 165 9 212 12 72 16 82 37 87 29 8 30 34 1 40 -13 3
-61 7 -108 9 -71 3 -94 8 -138 32 -138 75 -201 239 -143 370 39 89 88 125 168
125 91 -1 198 -68 274 -172 27 -38 54 -68 59 -68 12 0 13 21 1 53 -9 22 -6 24
48 35 72 15 209 85 315 160 94 66 253 222 346 340 l65 82 55 0 c37 0 68 -7 93
-20 47 -25 77 -19 77 16 0 20 -10 30 -52 49 -29 14 -68 25 -85 25 -18 0 -33 2
-33 4 0 3 24 51 54 108 62 118 91 198 101 281 l8 59 31 -6 c51 -10 246 -112
318 -167 85 -64 179 -172 242 -280 71 -122 76 -129 86 -129 20 0 28 35 16 71
l-12 36 63 10 c169 29 401 191 498 347 81 131 115 256 115 424 0 187 -49 361
-146 523 -133 222 -300 348 -542 410 -95 24 -267 36 -387 27z m352 -88 c256
-62 427 -200 552 -445 77 -150 112 -288 110 -439 l-1 -91 -18 100 c-10 55 -27
125 -38 156 -98 274 -300 500 -567 630 -91 44 -266 99 -319 99 -11 0 -28 5
-36 11 -26 18 225 2 317 -21z m888 -6906 c36 -47 26 -53 -20 -13 -27 24 -33
34 -23 40 7 5 14 9 14 9 1 0 14 -16 29 -36z m-125 -4 c0 -6 -35 -10 -87 -9
-59 0 -81 3 -68 9 28 12 155 12 155 0z m-2002 -27 c-10 -2 -26 -2 -35 0 -10 3
-2 5 17 5 19 0 27 -2 18 -5z m1911 -4 c95 -1 107 -3 66 -9 -27 -5 -131 -8
-230 -9 -164 0 -178 1 -155 15 19 11 45 14 114 9 49 -3 141 -6 205 -6z"/>
<path d="M1485 7404 c-18 -19 -18 -19 26 -24 24 -3 53 -11 64 -18 17 -10 11
-11 -40 -12 -102 0 -165 -58 -165 -151 0 -132 189 -185 298 -84 35 32 37 37
37 97 0 73 -31 137 -86 177 -43 32 -109 39 -134 15z m110 -131 c29 -17 8 -47
-36 -50 -31 -2 -32 -2 -11 7 26 11 25 28 0 44 -11 7 -24 6 -42 -2 -20 -9 -26
-19 -26 -43 0 -48 24 -69 80 -69 33 0 55 6 74 21 32 25 34 10 3 -26 -64 -74
-230 -29 -213 58 15 74 99 103 171 60z"/>
<path d="M7098 7140 c-31 -19 -21 -36 16 -32 85 10 129 -135 55 -181 -24 -15
-64 -1 -79 28 -12 22 -12 28 1 41 17 17 49 9 49 -12 0 -8 9 -14 20 -14 29 0
28 54 -2 74 -75 53 -163 -38 -111 -114 34 -50 80 -67 133 -49 75 27 83 178 13
241 -25 23 -73 31 -95 18z"/>
<path d="M5043 6960 c-188 -44 -270 -276 -170 -480 20 -41 85 -140 143 -220
108 -147 160 -239 150 -265 -10 -27 -69 -49 -131 -50 -47 0 -73 6 -114 28 -63
32 -61 32 -61 9 0 -70 188 -118 286 -73 104 47 99 122 -20 291 l-46 65 33 8
c74 20 101 72 99 192 -1 106 -12 149 -36 153 -33 7 -38 -11 -26 -99 14 -99 6
-144 -32 -172 -26 -20 -27 -20 -60 0 -44 25 -131 142 -157 210 -56 147 14 299
156 338 143 40 155 48 96 64 -43 12 -64 12 -110 1z"/>
<path d="M5250 6765 c0 -3 21 -76 46 -163 73 -252 87 -350 88 -607 0 -242 -10
-324 -63 -481 -54 -161 -178 -328 -304 -408 -112 -72 -255 -115 -340 -102 -41
6 -48 12 -80 64 -44 72 -136 162 -252 248 -110 81 -162 130 -182 169 -9 17
-22 87 -29 165 -17 165 -43 257 -85 299 -17 17 -38 31 -47 31 -9 0 -33 21 -52
48 -41 54 -77 66 -107 33 l-19 -20 -18 29 c-31 54 -91 52 -126 -5 -43 -69 -99
-405 -88 -528 3 -29 16 -74 29 -102 35 -75 149 -186 149 -146 0 4 -24 45 -54
90 -30 45 -60 98 -67 118 -29 89 30 473 84 548 14 18 15 18 29 -11 27 -52 28
-92 8 -241 -25 -182 -25 -230 -1 -293 41 -109 134 -231 157 -207 2 2 -26 63
-63 135 l-67 132 12 126 c13 122 53 309 71 327 6 6 16 -2 28 -19 16 -26 18
-48 15 -241 -3 -197 -2 -215 18 -259 23 -53 66 -114 80 -114 5 0 -3 26 -17 58
-14 31 -27 82 -30 113 -6 61 13 306 26 341 l8 22 16 -25 c23 -35 45 -136 57
-267 6 -63 17 -128 24 -146 21 -50 72 -102 186 -190 148 -114 238 -209 284
-298 84 -167 71 -311 -109 -1123 -90 -407 -119 -562 -131 -692 -3 -46 -11 -83
-16 -83 -4 0 -45 18 -90 41 -193 97 -349 214 -475 356 -131 147 -141 158 -149
151 -17 -18 60 -141 144 -229 169 -178 367 -325 565 -419 171 -82 260 -89 324
-25 29 29 33 39 33 88 0 70 -34 138 -148 295 l-82 112 34 163 c19 89 57 261
85 382 27 121 57 261 66 310 23 127 20 123 58 88 71 -65 151 -93 268 -93 148
0 243 58 290 177 20 50 23 77 24 193 0 74 4 141 8 148 11 16 96 59 167 84 80
28 210 34 287 15 61 -16 169 -66 228 -106 57 -39 75 -16 29 38 -29 35 -146 96
-217 114 l-48 12 -4 80 c-6 98 -26 177 -64 253 -56 112 -168 233 -228 248 -15
4 -22 12 -19 20 11 28 35 192 41 279 20 277 -59 744 -145 863 -26 36 -50 54
-50 37z m-758 -3495 c94 -129 128 -204 109 -238 -6 -10 -10 -4 -14 22 -6 35
-66 136 -133 225 -19 24 -34 53 -34 64 0 25 2 23 72 -73z"/>
<path d="M4680 6486 c-9 -12 -8 -30 6 -85 10 -43 14 -88 11 -113 -10 -78 -78
-109 -162 -74 -40 17 -122 90 -130 117 -7 20 -49 27 -60 9 -9 -14 29 -81 67
-117 76 -72 199 -104 267 -69 38 20 67 65 76 118 8 46 -11 174 -31 206 -17 26
-27 28 -44 8z"/>
<path d="M8807 6051 c-76 -50 -117 -147 -96 -224 36 -132 280 -130 320 3 25
81 -21 160 -110 190 -54 18 -54 18 -22 25 17 4 29 11 25 16 -10 16 -88 10
-117 -10z m150 -115 c39 -42 43 -81 12 -119 -38 -49 -140 -59 -190 -18 -21 17
-21 17 39 13 55 -4 63 -2 86 21 31 31 33 60 6 87 -23 23 -50 26 -68 8 -18 -18
-15 -26 11 -30 29 -4 28 -32 -2 -36 -39 -6 -71 7 -83 33 -9 21 -8 29 8 46 27
31 53 39 104 35 35 -3 51 -11 77 -40z"/>
<path d="M6802 6015 c-32 -27 -88 -148 -98 -215 -6 -39 -5 -42 16 -38 17 2 27
17 45 63 12 33 36 88 54 122 46 92 40 116 -17 68z"/>
<path d="M6365 5858 c-24 -28 -26 -36 -20 -82 12 -93 61 -174 87 -148 9 9 7
29 -6 82 -13 50 -17 87 -12 125 7 66 -7 73 -49 23z"/>
<path d="M4780 5635 c-7 -8 -10 -21 -7 -29 9 -24 83 -65 136 -78 83 -19 160
10 135 50 -8 12 -27 16 -81 17 -59 0 -76 4 -111 28 -48 31 -55 32 -72 12z"/>
<path d="M6383 5279 c-52 -26 -109 -87 -135 -146 -35 -79 1 -103 41 -28 13 25
43 63 67 85 38 35 47 39 65 30 11 -6 24 -23 30 -37 13 -34 -8 -66 -59 -92 -21
-11 -51 -33 -68 -49 -16 -16 -47 -39 -69 -52 -90 -54 -230 -218 -249 -293 -5
-22 -14 -26 -80 -36 -126 -18 -226 -65 -199 -92 8 -8 20 -6 39 4 32 17 119 42
176 52 l37 6 -12 -42 c-11 -36 -18 -44 -60 -60 -62 -25 -97 -48 -97 -65 0 -11
11 -9 48 10 26 13 57 26 69 30 22 7 22 6 16 -56 -17 -187 70 -367 229 -474 40
-27 92 -64 116 -81 61 -46 159 -74 259 -74 66 -1 101 5 175 30 51 17 107 43
123 57 30 25 30 25 5 20 -151 -31 -334 -32 -445 -1 -163 44 -308 151 -365 269
-53 110 -67 302 -23 334 27 20 159 12 180 -10 27 -30 74 -22 122 18 23 20 40
42 37 50 -3 7 0 14 6 16 27 9 -5 36 -59 51 -72 21 -102 21 -129 3 -16 -11 -28
-12 -66 -2 -26 6 -50 15 -54 18 -13 14 62 125 132 195 128 129 293 189 494
180 138 -6 235 -31 349 -89 52 -26 96 -48 98 -48 8 0 -9 64 -23 92 -7 14 -29
36 -49 48 -20 12 -35 30 -35 40 0 24 54 86 91 106 51 26 68 19 93 -38 42 -96
108 -407 122 -579 l6 -85 -76 -38 c-42 -21 -75 -43 -73 -50 2 -7 30 -11 73
-10 l70 0 -4 -33 c-4 -30 -11 -37 -64 -64 -33 -17 -58 -35 -55 -42 2 -7 25
-13 51 -15 l47 -3 -7 -32 c-3 -18 -20 -68 -36 -112 -16 -44 -31 -92 -33 -107
-2 -15 -20 -54 -41 -88 -28 -45 -34 -64 -26 -72 33 -33 106 56 161 194 54 138
66 213 65 423 0 211 -16 324 -80 578 -52 210 -88 267 -167 267 -33 0 -54 -7
-84 -29 -59 -43 -113 -111 -126 -159 -8 -30 -15 -41 -27 -38 -68 20 -153 29
-257 30 l-122 1 -7 79 c-6 64 -11 84 -30 103 -28 28 -47 29 -101 2z m-284
-661 c28 -6 51 -15 51 -19 0 -4 3 -14 6 -23 5 -14 -5 -16 -70 -16 -42 0 -76 2
-76 4 0 14 24 66 30 66 5 0 31 -5 59 -12z"/>
<path d="M6332 4800 c-37 -34 -79 -39 -122 -14 -15 10 -35 14 -44 11 -28 -11
-17 -36 26 -58 48 -25 129 -23 155 4 15 15 20 14 58 -8 57 -34 118 -39 180
-18 50 18 70 45 41 56 -9 4 -35 -1 -58 -9 -61 -21 -115 -10 -155 32 -17 19
-35 34 -40 34 -4 0 -23 -14 -41 -30z"/>
<path d="M6418 4634 c-24 -24 -4 -32 95 -37 123 -6 214 -35 341 -107 87 -51
106 -58 106 -41 0 26 -158 118 -271 157 -75 26 -255 45 -271 28z"/>
<path d="M4086 4529 c-3 -17 -6 -50 -6 -73 0 -110 -73 -403 -150 -606 -29 -74
-69 -181 -91 -237 -39 -102 -46 -133 -31 -133 21 0 47 48 112 208 85 211 122
324 166 512 38 163 52 290 35 333 -14 36 -27 34 -35 -4z"/>
<path d="M6425 4490 c12 -19 122 -69 196 -90 95 -26 194 -36 203 -21 9 14 9
13 -134 40 -65 13 -142 35 -179 52 -65 30 -97 37 -86 19z"/>
<path d="M5350 4163 c-16 -46 -25 -57 -71 -88 -43 -29 -48 -30 -159 -30 -100
0 -115 -2 -118 -17 -2 -9 6 -22 18 -28 33 -17 159 -24 207 -11 82 22 177 117
171 171 -4 36 -35 39 -48 3z"/>
<path d="M5418 3897 c-22 -28 -32 -32 -88 -37 -44 -4 -66 -10 -74 -22 -15 -25
-3 -31 67 -32 52 -1 70 3 100 24 30 20 57 56 57 75 0 2 -8 9 -18 14 -14 8 -23
3 -44 -22z"/>
<path d="M6139 3793 c-88 -79 -148 -252 -319 -918 -67 -258 -113 -411 -160
-526 -33 -78 -37 -109 -17 -109 48 0 131 211 203 515 98 411 169 690 200 785
33 98 98 234 132 273 26 30 4 18 -39 -20z"/>
<path d="M7310 3814 c0 -3 17 -42 38 -87 22 -45 47 -106 56 -135 17 -51 17
-54 0 -74 -26 -28 -84 -56 -133 -64 -50 -8 -59 -19 -35 -45 25 -28 107 -26
167 4 l46 24 9 -51 c5 -29 5 -59 0 -69 -13 -25 -63 -55 -125 -73 -58 -17 -66
-34 -31 -58 32 -22 77 -20 130 7 l46 23 6 -29 c17 -82 -12 -129 -99 -162 -51
-20 -54 -26 -25 -55 24 -24 60 -26 100 -5 l30 15 -6 -62 c-3 -35 -12 -109 -19
-164 -16 -109 -10 -237 9 -231 35 10 66 155 81 378 19 291 -84 772 -190 884
-29 31 -55 45 -55 29z"/>
<path d="M1488 3711 c-36 -28 -58 -81 -58 -136 0 -57 12 -80 50 -100 39 -20
79 -19 117 5 67 40 80 127 26 170 -45 35 -112 20 -133 -31 -10 -24 -9 -33 9
-63 12 -19 27 -37 34 -39 7 -2 9 -7 6 -11 -13 -14 -57 14 -67 43 -21 60 15
124 81 146 42 13 41 29 -4 33 -24 2 -43 -4 -61 -17z m105 -169 c-11 -14 -26
-27 -34 -29 -10 -3 -9 -1 2 6 9 6 22 25 30 42 7 18 15 27 17 20 2 -7 -4 -25
-15 -39z"/>
<path d="M8020 3594 c-37 -32 -96 -117 -137 -199 -78 -155 -157 -402 -151
-472 3 -30 13 -8 66 143 78 221 157 386 218 453 104 115 143 28 123 -268 -13
-177 -17 -191 -63 -191 -18 0 -39 7 -46 15 -21 25 -40 18 -40 -14 0 -36 29
-59 83 -68 41 -6 40 1 18 -112 -9 -49 -32 -60 -75 -37 -37 20 -56 15 -56 -14
0 -22 45 -60 71 -60 10 0 21 -5 24 -10 7 -12 -28 -138 -52 -185 -20 -39 -63
-85 -81 -85 -7 0 -12 -8 -10 -17 4 -24 51 -28 82 -7 103 66 216 581 204 919
-5 138 -23 206 -59 225 -34 19 -86 11 -119 -16z"/>
<path d="M3546 3523 c-59 -93 -214 -341 -232 -372 -10 -18 -29 -40 -40 -48
-20 -13 -21 -12 -16 13 4 21 1 25 -14 22 -24 -4 -104 -161 -122 -238 -21 -87
-27 -236 -12 -265 14 -26 34 -32 45 -15 4 6 17 50 30 98 44 166 148 373 315
632 92 143 104 167 94 194 -9 25 -21 19 -48 -21z"/>
<path d="M6329 3534 c-9 -11 -37 -53 -63 -95 -51 -83 -76 -100 -99 -65 -13 18
-13 28 0 69 11 37 12 52 2 63 -18 22 -26 9 -44 -69 -11 -48 -17 -118 -17 -212
0 -124 -4 -156 -35 -280 -18 -77 -56 -216 -84 -309 -28 -92 -48 -171 -45 -174
12 -11 46 33 65 83 33 87 80 256 126 455 47 200 50 207 152 392 38 69 63 126
61 139 -3 21 -3 21 -19 3z"/>
<path d="M6924 2932 c-161 -56 -287 -205 -314 -375 -10 -67 -5 -143 12 -153
21 -13 35 20 41 97 4 66 12 95 41 154 62 126 189 225 309 241 47 7 48 6 95
-43 26 -27 58 -62 71 -76 25 -29 51 -36 51 -13 0 25 -84 140 -119 163 -42 28
-114 30 -187 5z"/>
<path d="M7600 2783 c0 -3 33 -61 74 -127 150 -246 206 -387 206 -521 0 -237
-139 -412 -390 -493 -165 -53 -343 -72 -699 -73 -273 0 -341 -5 -348 -26 -10
-30 43 -36 397 -44 195 -5 461 -13 590 -19 268 -11 494 -13 503 -3 4 3 2 12
-4 20 -9 10 -55 13 -203 13 -105 0 -197 4 -205 9 -27 17 91 23 294 13 110 -5
216 -5 235 0 19 4 73 6 120 3 84 -6 126 4 105 24 -6 5 -134 15 -285 21 -151 7
-277 14 -279 16 -14 14 94 15 358 5 556 -22 674 -24 705 -12 22 9 26 14 17 25
-8 10 -87 14 -353 20 -456 9 -631 17 -619 29 5 5 147 4 377 -3 470 -15 777
-11 799 10 13 14 13 19 2 34 -13 18 -34 19 -392 17 -303 -2 -787 13 -803 25
-2 1 15 26 37 55 48 63 76 142 92 254 17 127 -5 241 -76 392 -54 116 -165 285
-209 318 -33 25 -46 30 -46 18z"/>
<path d="M7187 2533 c-13 -3 -17 -11 -14 -24 3 -11 -1 -20 -12 -24 -34 -10
-758 -207 -831 -226 -41 -10 -124 -26 -185 -35 -60 -9 -119 -21 -130 -27 -18
-10 -18 -10 5 -19 56 -22 178 0 615 107 353 87 553 129 688 145 98 11 98 11
131 -14 18 -13 53 -46 77 -72 24 -26 52 -55 62 -66 23 -25 47 -23 47 4 0 52
-117 166 -212 206 -71 31 -203 55 -241 45z"/>
<path d="M3965 1530 c-4 -6 -5 -13 -3 -15 2 -2 137 -7 299 -11 209 -5 298 -4
303 4 3 6 1 14 -5 17 -20 13 -586 17 -594 5z"/>
<path d="M5130 1458 l-35 -12 55 -7 c30 -4 199 -8 375 -8 176 -1 484 -6 685
-11 1129 -28 1392 -32 1402 -22 8 8 5 14 -13 20 -26 10 -1310 40 -1999 47
-319 4 -444 2 -470 -7z"/>
</g>
</svg>
