<svg version="1.0" xmlns="http://www.w3.org/2000/svg"
 width="1040.000000pt" height="1040.000000pt" viewBox="0 0 1040.000000 1040.000000"
 preserveAspectRatio="xMidYMid meet">
<g transform="translate(0.000000,1040.000000) scale(0.100000,-0.100000)"
fill="#000000" stroke="none">
<path d="M7896 9678 c-8 -13 -27 -76 -41 -142 -37 -166 -41 -173 -47 -85 -9
117 -54 199 -108 199 -40 0 -43 -20 -41 -280 0 -138 -1 -250 -4 -250 -2 0 -14
18 -25 40 -46 90 -124 148 -179 133 -47 -12 -37 -64 49 -258 71 -160 101 -257
103 -327 3 -95 -78 -496 -159 -788 -101 -361 -234 -635 -372 -761 -81 -74
-191 -149 -219 -149 -12 0 -23 -6 -23 -13 0 -11 -139 -77 -162 -77 -15 0 -50
141 -74 299 -14 91 -34 191 -44 223 -25 81 -81 149 -199 243 l-101 79 51 19
c71 27 59 43 -29 39 -78 -3 -152 14 -207 48 -46 29 -134 126 -171 191 -173
299 -236 382 -351 465 -225 161 -546 188 -793 66 -94 -46 -193 -142 -237 -229
l-31 -62 -23 25 c-13 13 -48 37 -78 52 -51 24 -66 27 -161 26 -382 -2 -650
-271 -716 -717 -33 -225 -5 -401 113 -711 89 -232 113 -321 120 -441 5 -83 3
-107 -11 -133 -32 -63 -129 -146 -271 -234 -77 -47 -163 -105 -191 -127 -59
-47 -109 -120 -119 -172 -16 -85 46 -200 137 -260 71 -45 138 -63 243 -62 l80
1 -28 -22 c-92 -73 -87 -163 13 -235 48 -35 140 -54 218 -44 28 3 52 3 52 0 0
-10 -422 -333 -488 -373 -91 -55 -404 -177 -532 -209 -164 -39 -338 -51 -553
-36 -124 8 -192 17 -216 28 -20 9 -85 66 -144 125 -117 118 -140 129 -165 75
-21 -44 -7 -99 40 -151 25 -29 34 -46 25 -46 -8 0 -95 40 -192 90 -149 76
-180 88 -197 79 -17 -9 -20 -18 -16 -53 l5 -42 -33 4 c-29 4 -34 1 -39 -21
-24 -95 101 -207 293 -263 41 -11 71 -23 66 -26 -5 -3 -45 -20 -89 -38 -134
-55 -156 -79 -114 -121 34 -34 178 -22 324 25 61 20 111 36 113 36 2 0 -8 -15
-21 -32 -62 -83 -88 -165 -63 -203 33 -51 93 -28 177 67 48 54 65 66 115 82
81 25 141 61 159 96 26 50 15 81 -16 44 -25 -31 -95 -71 -164 -95 -60 -20 -79
-33 -135 -91 -102 -106 -113 -90 -38 56 38 75 39 80 22 93 -28 20 -82 16 -200
-18 -108 -32 -213 -43 -213 -24 0 6 50 31 111 57 116 49 149 71 133 87 -6 5
-48 18 -93 30 -148 37 -312 133 -312 184 0 13 25 4 112 -38 119 -58 206 -85
271 -85 33 0 38 2 27 14 -6 8 -42 25 -78 37 -112 36 -206 84 -235 118 -25 30
-37 67 -19 59 4 -2 70 -35 147 -75 189 -95 275 -120 326 -92 18 9 15 14 -43
59 -72 56 -106 97 -114 140 -4 16 -4 30 -2 30 3 0 50 -44 104 -98 134 -134
143 -137 381 -153 294 -19 506 3 713 75 344 121 414 162 798 467 l202 161 49
-32 c63 -40 129 -110 184 -197 41 -63 97 -166 97 -177 0 -3 -19 -15 -42 -27
-24 -12 -124 -70 -223 -129 -295 -176 -498 -270 -708 -329 -176 -49 -247 -55
-622 -48 -315 5 -422 1 -355 -16 120 -29 725 -43 850 -19 270 52 508 151 842
350 75 45 139 82 142 82 3 0 6 -8 6 -19 0 -28 73 -88 122 -102 142 -38 288 30
563 264 104 89 219 153 302 168 32 6 62 13 67 16 17 11 -21 23 -76 23 -73 0
-171 -49 -293 -146 -266 -213 -353 -269 -437 -280 l-43 -6 -1 64 c-2 86 -47
201 -130 325 -94 141 -167 213 -241 238 l-35 12 124 90 c257 188 420 291 569
362 88 42 243 91 287 91 15 0 60 -18 102 -39 152 -79 330 -121 509 -121 244 0
367 71 359 207 l-3 52 120 -118 c134 -131 191 -174 268 -200 81 -28 145 -33
233 -17 174 30 265 117 267 254 0 58 -21 115 -45 125 -7 3 16 6 52 6 170 2
329 83 420 212 99 141 122 312 60 431 l-20 38 60 61 c118 120 227 308 296 512
68 198 97 345 159 792 25 182 54 380 65 442 18 102 26 203 16 192 -19 -19 -63
-231 -101 -487 -68 -456 -92 -593 -129 -737 -82 -316 -182 -514 -341 -672
l-82 -83 -59 -2 c-231 -8 -378 35 -477 141 -49 52 -59 81 -29 81 9 0 46 9 82
21 l65 21 47 -45 c95 -89 236 -141 366 -135 51 2 67 7 70 19 2 13 -8 15 -60
15 -75 0 -202 36 -237 67 -12 12 -36 48 -52 79 l-29 57 63 44 c136 98 207 187
303 382 123 251 207 539 300 1020 53 274 46 333 -69 601 -82 190 -80 184 -61
184 24 0 64 -48 108 -128 30 -55 51 -79 86 -102 76 -49 92 -72 99 -141 6 -61
6 -61 25 -41 24 27 25 112 1 148 -9 14 -37 40 -62 57 -25 18 -52 37 -60 42
-12 9 -12 16 3 50 13 31 18 88 23 250 7 207 7 209 24 173 9 -20 21 -86 27
-150 18 -198 23 -217 47 -185 10 12 53 158 94 317 12 47 26 89 30 95 18 19 8
-113 -17 -230 -38 -182 -39 -195 -21 -195 31 0 83 89 162 273 44 103 61 120
51 52 -11 -73 -52 -189 -107 -304 -27 -57 -49 -107 -49 -112 0 -19 40 -8 58
16 26 33 109 240 127 318 28 119 15 204 -31 196 -21 -4 -45 -47 -105 -189 -22
-52 -38 -84 -35 -70 17 80 28 194 22 234 -12 76 -60 110 -90 64z m-2639 -1084
c91 -20 176 -57 246 -108 62 -44 160 -139 107 -103 -211 143 -335 181 -565
174 -164 -5 -259 -30 -366 -97 l-64 -41 50 45 c147 133 367 181 592 130z
m-842 -285 c39 -16 61 -31 63 -43 3 -15 0 -17 -14 -12 -134 53 -347 65 -469
26 -38 -12 -86 -31 -105 -42 -26 -14 -30 -15 -15 -3 32 28 124 67 200 87 101
26 258 20 340 -13z m424 -480 c43 -21 80 -51 122 -99 34 -37 60 -72 58 -76 -2
-5 -26 -16 -53 -25 -55 -19 -112 -71 -121 -111 -12 -48 18 -44 71 9 35 34 63
53 97 62 l47 14 68 -71 c73 -76 151 -122 208 -122 41 0 43 -7 56 -160 13 -161
25 -202 61 -214 36 -13 74 1 100 36 16 22 23 54 31 149 13 146 22 158 84 117
104 -70 109 -246 9 -322 -24 -18 -57 -31 -101 -38 -36 -6 -63 -15 -60 -19 3
-5 14 -9 24 -9 28 0 33 -17 11 -39 -36 -36 -42 -62 -52 -224 -12 -192 -28
-278 -68 -363 -95 -204 -329 -260 -564 -137 -88 47 -225 175 -296 278 -61 88
-176 322 -220 447 -17 48 -38 102 -46 119 -16 29 -15 34 8 92 14 34 33 98 43
141 l19 79 60 28 c117 56 195 32 250 -75 37 -73 44 -163 21 -257 -39 -155
-110 -154 -167 1 -23 63 -41 86 -59 75 -16 -10 -12 -34 16 -108 16 -41 41 -83
61 -104 30 -30 41 -34 72 -31 20 3 44 8 55 13 15 6 10 -8 -23 -71 -41 -80 -49
-104 -32 -104 30 0 107 124 134 217 62 207 -8 464 -140 520 -47 19 -131 16
-182 -7 -24 -11 -45 -19 -47 -17 -5 5 34 170 54 228 28 78 45 109 84 145 54
51 86 63 169 64 65 0 84 -4 138 -31z m-568 -3086 c13 -17 13 -17 -6 -3 -11 8
-22 16 -24 17 -2 2 0 3 6 3 6 0 17 -8 24 -17z"/>
<path d="M5102 7298 c-7 -7 -12 -40 -12 -78 0 -79 -12 -125 -42 -157 -47 -50
-88 -21 -128 89 -25 70 -42 94 -59 84 -18 -11 -13 -38 19 -117 38 -92 72 -129
117 -129 53 0 88 24 114 77 20 40 24 64 24 142 0 93 -8 114 -33 89z"/>
<path d="M5146 6642 c-17 -28 -93 -67 -140 -72 -43 -4 -51 -8 -54 -27 -3 -21
0 -23 48 -23 31 0 66 8 90 20 l40 20 0 -24 c0 -14 -5 -37 -10 -51 -10 -26 -13
-27 -60 -20 -45 6 -50 5 -50 -12 0 -35 86 -57 130 -33 24 13 38 64 42 155 2
58 0 70 -14 73 -9 2 -19 -1 -22 -6z"/>
<path d="M5742 9355 c-30 -66 -4 -231 35 -223 16 3 18 17 21 103 2 55 0 110
-3 123 -7 30 -39 28 -53 -3z"/>
<path d="M8145 9204 c-21 -14 -63 -46 -93 -70 -30 -24 -61 -48 -70 -53 -13 -8
-14 -13 -5 -22 18 -18 54 -4 121 46 33 25 63 45 66 45 18 0 -2 -30 -68 -99
-42 -44 -87 -104 -105 -139 -17 -34 -51 -84 -76 -112 -50 -56 -51 -81 -3 -53
37 22 88 83 118 143 13 25 55 77 95 116 99 96 138 177 103 212 -18 18 -42 14
-83 -14z"/>
<path d="M6345 8900 c-11 -5 -32 -9 -47 -9 -37 -1 -81 -41 -72 -64 6 -16 14
-18 68 -12 76 8 130 33 134 61 4 30 -40 42 -83 24z"/>
<path d="M2275 8021 c-7 -31 -9 -33 -41 -28 -36 6 -43 -3 -19 -23 14 -11 12
-15 -16 -29 l-32 -15 26 -9 c22 -7 25 -12 17 -27 -16 -31 -13 -42 9 -30 29 15
37 13 51 -17 l13 -28 9 32 8 32 29 -17 c31 -17 53 -10 33 10 -17 17 -15 23 16
38 l27 13 -27 9 c-27 9 -27 10 -13 39 17 32 9 37 -21 14 -27 -20 -34 -19 -34
8 0 13 -6 32 -14 42 -13 18 -14 17 -21 -14z"/>
<path d="M1880 7575 c-25 -30 15 -70 45 -45 20 16 19 46 -1 54 -23 9 -30 8
-44 -9z"/>
<path d="M2002 7458 c-29 -29 -2 -72 40 -66 17 2 24 11 26 32 5 41 -37 63 -66
34z m53 -28 c0 -8 -10 -16 -22 -18 -18 -3 -23 2 -23 18 0 16 5 21 23 18 12 -2
22 -10 22 -18z"/>
<path d="M2960 7026 c-6 -8 -10 -25 -8 -38 2 -19 9 -23 38 -23 30 0 36 4 38
24 6 40 -43 66 -68 37z m47 -22 c9 -23 -13 -40 -32 -24 -12 10 -13 16 -4 26
15 18 28 18 36 -2z"/>
<path d="M8865 6751 c-6 -28 -9 -29 -43 -24 l-36 6 16 -25 c17 -25 17 -26 -13
-32 -32 -6 -31 -26 2 -26 20 0 26 -15 9 -25 -15 -9 -12 -38 3 -32 6 3 19 8 28
11 11 5 20 -2 29 -21 l13 -28 11 27 c9 20 15 25 26 18 8 -6 23 -10 33 -10 15
0 16 3 7 20 -9 17 -7 22 15 32 32 14 32 28 0 28 -23 0 -24 2 -13 25 15 33 4
42 -27 21 -24 -16 -25 -16 -25 8 0 56 -24 75 -35 27z"/>
<path d="M1765 6364 c-5 -16 -12 -20 -27 -16 -15 4 -19 2 -14 -7 5 -7 0 -18
-10 -26 -17 -13 -17 -14 -2 -15 11 0 15 -6 11 -20 -4 -16 -2 -19 12 -14 10 4
21 1 27 -7 7 -11 11 -11 15 -2 3 9 14 11 31 6 24 -5 25 -4 14 9 -10 13 -10 17
5 22 14 6 15 9 4 16 -8 4 -11 15 -8 24 5 13 2 15 -17 10 -20 -5 -25 -1 -29 18
-4 23 -5 23 -12 2z"/>
<path d="M8962 5978 c-30 -30 5 -77 49 -63 16 5 19 14 17 38 -2 26 -8 33 -28
35 -14 2 -31 -3 -38 -10z m56 -27 c-2 -9 -11 -17 -21 -19 -21 -4 -35 27 -17
38 19 12 42 0 38 -19z"/>
<path d="M8684 5876 c-11 -28 4 -48 33 -44 22 2 28 8 28 28 0 20 -6 26 -28 28
-18 2 -29 -2 -33 -12z"/>
<path d="M5990 5741 c0 -52 -3 -62 -26 -80 -65 -51 -233 -65 -466 -39 -102 11
-139 7 -109 -12 29 -18 278 -42 392 -38 97 3 122 7 171 30 38 18 62 36 72 57
28 53 16 141 -19 141 -12 0 -15 -14 -15 -59z"/>
<path d="M6323 5209 c6 -280 8 -304 61 -554 49 -230 60 -351 61 -635 0 -264
-7 -345 -41 -485 -23 -93 -33 -112 -76 -140 -122 -81 -286 -93 -663 -49 -313
37 -585 39 -709 5 -127 -34 -232 -107 -267 -186 l-18 -40 -18 40 c-14 32 -18
65 -17 160 1 146 15 197 144 525 169 430 200 543 200 729 0 81 -4 104 -22 141
-23 44 -59 72 -44 34 21 -52 28 -158 18 -257 -15 -138 -44 -231 -163 -529
-167 -418 -191 -496 -192 -643 -1 -133 20 -193 92 -266 48 -47 69 -61 125 -78
38 -12 74 -21 81 -21 9 0 16 -18 20 -47 37 -282 156 -577 361 -888 18 -28 17
-28 -36 11 -185 136 -602 350 -705 361 -54 6 -89 -21 -104 -82 -6 -25 -15 -45
-21 -45 -5 0 -55 12 -112 26 -60 15 -147 28 -208 31 -134 7 -161 -4 -187 -78
-13 -36 -22 -49 -33 -45 -8 3 -46 16 -84 31 -113 42 -248 74 -415 96 -230 31
-302 19 -338 -55 -33 -69 10 -116 107 -116 27 0 50 -2 50 -3 0 -2 -7 -18 -15
-35 -29 -56 -46 -166 -52 -327 -9 -243 23 -392 90 -420 79 -33 110 23 171 309
29 134 80 255 120 281 19 13 60 19 158 24 l133 7 -38 19 c-32 16 -37 23 -36
49 1 17 -1 45 -5 61 -4 20 -2 37 8 50 13 19 15 19 75 0 34 -10 64 -22 66 -26
3 -4 -4 -58 -14 -121 -24 -141 -36 -300 -27 -370 7 -56 24 -92 32 -71 7 16 54
-5 54 -23 0 -22 43 -44 172 -89 l121 -42 1 -111 c1 -96 4 -114 22 -139 15 -20
31 -29 58 -31 44 -4 71 21 129 121 l39 65 71 -30 c40 -17 241 -108 447 -203
720 -332 975 -413 1260 -402 144 5 212 25 300 86 68 47 145 141 168 203 15 43
19 47 42 40 44 -12 163 -6 215 11 101 34 193 126 236 234 33 82 33 247 1 391
-65 292 -197 555 -463 924 -292 406 -347 498 -356 603 -4 53 -1 66 26 117 81
151 115 360 115 703 -1 279 -13 401 -69 680 -41 210 -53 295 -60 455 -8 167
-25 319 -37 326 -7 5 -8 -85 -5 -267z m-1558 -2134 c26 -13 63 -27 82 -31 31
-6 53 -27 41 -39 -8 -9 -133 45 -163 70 -39 31 -19 32 40 0z m1609 -772 c233
-481 309 -675 357 -903 35 -170 28 -320 -14 -320 -8 0 -11 18 -9 60 11 194
-88 518 -315 1029 -101 229 -213 496 -213 509 0 17 51 -81 194 -375z"/>
<path d="M5945 5390 c-37 -15 -48 -36 -41 -85 11 -71 80 -111 118 -67 40 45
34 123 -12 147 -32 17 -37 17 -65 5z m56 -72 c9 -19 9 -21 -2 -10 -7 6 -21 12
-32 12 -10 0 -15 5 -12 10 11 17 34 11 46 -12z"/>
<path d="M7796 5132 c-6 -17 -12 -21 -28 -16 -16 5 -20 3 -15 -10 4 -9 -1 -20
-11 -25 -16 -10 -16 -10 1 -11 14 0 17 -5 12 -22 -6 -17 -4 -20 10 -14 11 4
22 0 31 -11 12 -16 13 -16 14 -1 0 12 6 15 22 10 17 -4 20 -2 15 11 -4 11 -1
17 8 17 8 0 15 5 15 10 0 6 -5 10 -11 10 -6 0 -8 9 -4 21 6 18 4 20 -11 11
-15 -9 -21 -6 -30 16 l-11 27 -7 -23z"/>
<path d="M6012 5076 c-29 -14 -35 -35 -23 -87 12 -52 35 -72 76 -65 39 8 65
40 65 80 -1 35 -15 57 -47 74 -25 14 -40 14 -71 -2z"/>
<path d="M3377 4114 c-12 -12 -8 -41 7 -53 22 -18 58 4 54 32 -3 22 -45 36
-61 21z"/>
<path d="M3777 3901 c-4 -15 -11 -18 -28 -14 -19 5 -22 3 -12 -7 10 -11 9 -16
-5 -26 -16 -13 -16 -13 1 -14 15 0 16 -3 6 -22 -10 -18 -9 -20 6 -14 11 4 22
0 31 -11 13 -17 13 -17 14 0 0 14 5 16 26 11 20 -5 25 -4 19 5 -4 7 1 18 11
26 18 14 18 14 1 15 -14 0 -17 5 -12 21 6 18 5 20 -14 10 -18 -10 -21 -9 -21
8 0 27 -17 35 -23 12z"/>
<path d="M2635 3760 c-24 -26 -11 -53 27 -58 35 -4 50 17 35 48 -16 32 -39 36
-62 10z m52 -16 c5 -15 -11 -33 -30 -34 -15 0 -20 32 -6 41 20 13 29 11 36 -7z"/>
</g>
</svg>
