<svg version="1.0" xmlns="http://www.w3.org/2000/svg"
 width="1041.000000pt" height="1041.000000pt" viewBox="0 0 1041.000000 1041.000000"
 preserveAspectRatio="xMidYMid meet">
<g transform="translate(0.000000,1041.000000) scale(0.100000,-0.100000)"
fill="#000000" stroke="none">
<path d="M940 8512 c-40 -41 -52 -89 -57 -246 -5 -140 6 -264 32 -368 7 -29 9
-46 4 -38 -5 8 -33 56 -63 105 -46 79 -99 135 -127 135 -4 0 -21 -11 -36 -24
-27 -24 -28 -27 -27 -118 1 -58 9 -121 22 -169 31 -115 97 -283 136 -347 l35
-57 -49 -5 c-27 -3 -52 -9 -57 -13 -9 -10 16 -27 40 -27 11 0 76 -13 145 -29
70 -16 157 -32 193 -36 l65 -7 -17 -101 c-27 -152 -34 -254 -20 -271 23 -27
114 -36 441 -46 411 -12 597 -32 820 -87 123 -30 143 -45 194 -143 65 -124
128 -353 202 -743 105 -555 220 -830 445 -1071 204 -219 479 -321 1029 -383
246 -28 915 -25 1330 7 173 13 326 23 340 23 14 0 47 -9 73 -21 54 -24 77 -63
77 -132 0 -67 -123 -373 -195 -486 -87 -136 -239 -264 -445 -372 -122 -65
-187 -86 -362 -118 -135 -25 -165 -27 -528 -31 -726 -9 -1250 48 -1645 179
-221 73 -345 146 -478 281 -424 430 -667 1293 -747 2655 -6 101 -15 193 -19
205 -8 21 -8 21 -22 -3 -31 -56 -22 -399 22 -795 134 -1234 426 -1951 927
-2281 2 -1 -31 -88 -73 -194 -179 -452 -247 -727 -212 -852 l7 -28 -77 0 c-76
0 -126 -13 -93 -24 39 -12 263 -37 288 -31 129 28 396 478 456 768 18 87 21
136 7 122 -5 -6 -44 -95 -86 -200 -115 -288 -216 -469 -318 -567 -59 -58 -83
-61 -103 -13 -42 101 17 355 180 770 37 94 71 174 75 178 4 4 43 -7 87 -24 43
-17 108 -36 144 -42 132 -20 175 -33 171 -48 -2 -8 -26 -86 -54 -174 -44 -140
-50 -171 -51 -252 l-1 -92 -45 -6 c-25 -4 -51 -7 -59 -8 -8 -1 -16 -7 -18 -13
-2 -7 36 -13 117 -18 163 -9 170 -5 273 154 30 47 65 105 77 130 30 59 70 177
70 207 0 28 1 28 148 8 224 -29 463 -46 752 -52 290 -6 665 7 814 28 38 5 71
8 72 6 2 -2 -30 -25 -71 -51 -42 -26 -91 -63 -110 -81 -32 -30 -35 -37 -35
-93 0 -33 4 -72 9 -85 9 -23 7 -25 -27 -31 -20 -3 -69 -6 -108 -6 -61 0 -88 6
-174 41 -122 48 -167 50 -188 6 -11 -23 -11 -32 2 -59 15 -30 15 -32 -6 -47
-59 -40 -139 -147 -171 -229 -23 -59 -21 -104 7 -160 32 -62 65 -91 112 -99
21 -3 50 -14 63 -25 28 -21 74 -24 90 -4 9 11 18 11 49 1 41 -15 71 -5 79 24
3 12 14 18 35 18 42 0 50 18 43 96 -4 42 -2 67 4 67 5 0 40 -7 78 -16 43 -10
86 -13 117 -9 52 7 137 45 173 77 l22 21 36 -32 c20 -17 54 -40 77 -52 79 -40
184 -11 398 112 258 147 602 397 785 569 l50 47 98 -6 97 -6 46 -134 c75 -222
144 -342 220 -387 42 -25 51 -26 124 -20 84 7 110 13 110 26 0 9 -36 20 -69
20 -22 0 -23 3 -18 42 9 66 -20 238 -59 346 -19 53 -38 105 -41 115 -5 16 0
18 42 15 l47 -3 23 -90 c28 -109 119 -338 181 -454 98 -186 188 -297 267 -334
50 -24 56 -24 171 -16 114 9 153 20 140 40 -3 5 -41 9 -85 9 l-79 0 0 78 c0
209 -125 636 -212 727 l-39 40 7 -35 c3 -19 35 -120 70 -225 95 -286 139 -533
97 -549 -106 -41 -324 297 -448 697 -31 97 -28 107 28 107 80 0 226 50 405
138 66 32 159 116 222 199 102 135 190 349 193 470 l2 62 53 20 c70 27 138 75
165 116 l21 33 91 -5 c119 -7 190 8 262 57 78 52 119 116 139 213 18 90 8 164
-30 211 l-23 29 53 74 c67 93 89 156 88 253 -1 83 -31 173 -81 238 l-26 35 37
30 c106 85 108 261 2 311 -53 25 -114 20 -184 -15 -55 -27 -132 -98 -132 -121
0 -4 -11 -8 -25 -8 -15 0 -25 6 -25 14 0 48 -186 263 -271 313 -24 15 -29 25
-35 75 -5 46 -11 61 -32 74 -30 20 -91 13 -139 -17 -18 -11 -36 -18 -41 -15
-25 15 -184 25 -254 16 -207 -26 -321 -102 -479 -320 -38 -52 -75 -103 -83
-113 -13 -17 -31 -18 -209 -15 -180 3 -196 2 -216 -16 -14 -12 -21 -31 -21
-53 0 -38 29 -70 260 -283 136 -126 149 -150 150 -270 1 -344 -154 -877 -392
-1355 -89 -178 -144 -262 -227 -349 -178 -185 -620 -502 -885 -636 -148 -75
-195 -81 -278 -41 -84 40 -188 183 -258 352 l-38 92 112 72 c61 40 190 116
286 170 374 210 512 321 590 475 138 275 242 603 226 714 -7 44 -26 65 -26 29
0 -17 -13 -18 -158 -15 -91 2 -286 -5 -462 -17 -168 -11 -352 -21 -409 -23
l-103 -3 -48 145 c-60 177 -85 328 -83 500 0 121 19 263 47 365 8 28 20 69 26
93 l11 42 77 0 c42 0 99 -7 126 -15 82 -25 166 -29 210 -11 24 10 44 13 54 7
16 -9 412 -4 472 6 l35 6 -35 8 c-19 4 -78 11 -132 15 l-96 7 14 40 c17 47 18
141 3 202 -9 36 -8 53 6 94 59 178 26 399 -93 624 -73 139 -131 199 -172 177
-27 -14 -37 -42 -64 -174 l-22 -109 -69 -18 c-39 -10 -73 -18 -77 -18 -3 -1
-34 52 -68 117 -35 64 -71 129 -82 145 -22 31 -57 35 -81 9 -27 -30 -49 -149
-51 -273 -1 -75 -5 -115 -11 -111 -5 3 -34 21 -64 40 -124 79 -345 165 -523
203 -102 22 -267 30 -367 19 l-43 -5 -28 86 c-83 254 -334 710 -461 837 -76
75 -190 120 -404 158 -66 11 -117 32 -290 118 -216 107 -506 235 -700 311
-148 57 -358 125 -388 125 -43 0 -62 -33 -132 -225 -25 -71 -48 -131 -50 -133
-6 -6 -230 68 -252 83 -31 22 -57 99 -98 294 -20 94 -44 191 -55 215 -33 78
-90 97 -140 48z m100 -119 c11 -36 32 -123 46 -194 27 -140 52 -222 80 -264
32 -49 134 -85 242 -85 35 0 62 -4 60 -8 -1 -4 -12 -29 -23 -55 -19 -44 -22
-47 -48 -41 -33 7 -68 -20 -87 -66 l-12 -28 -89 24 c-111 30 -122 36 -170 108
-76 114 -120 346 -99 536 9 93 16 116 38 142 22 26 38 8 62 -69z m-273 -386
c16 -18 58 -87 93 -152 102 -189 151 -226 333 -258 54 -9 67 -15 64 -27 -3 -8
-17 -46 -31 -84 -14 -38 -28 -88 -32 -112 -7 -51 -4 -50 -129 -28 -82 15 -94
20 -134 58 -55 52 -79 90 -124 196 -62 147 -106 345 -92 410 8 38 16 38 52 -3z
m2708 -812 c59 -83 140 -249 219 -447 84 -211 86 -220 52 -236 -21 -9 -27 -9
-30 1 -2 6 -11 46 -21 87 -23 99 -116 324 -219 526 -82 163 -82 183 -1 69z
m2075 -581 c130 -215 178 -496 108 -644 -55 -118 -152 -193 -252 -193 -58 0
-93 15 -156 68 -24 20 -69 50 -101 65 -39 20 -68 45 -93 78 -20 27 -43 56 -52
63 -16 13 -17 11 -10 -26 4 -22 13 -52 21 -67 l13 -27 -47 6 c-30 3 -57 1 -72
-7 -23 -13 -22 -14 36 -29 58 -16 60 -18 57 -46 -1 -17 4 -39 12 -50 14 -20
15 -20 38 3 41 37 81 30 194 -38 55 -33 114 -74 130 -91 l29 -32 -50 7 c-27 3
-180 9 -340 12 -308 6 -557 -4 -758 -32 -107 -15 -121 -16 -150 -2 -60 29
-117 78 -161 138 -24 32 -46 56 -50 53 -12 -13 -5 -65 14 -103 26 -50 104
-126 172 -167 30 -18 105 -55 166 -82 138 -61 198 -95 213 -122 14 -27 3 -38
-50 -50 -60 -13 -162 5 -324 57 -168 55 -262 100 -378 183 -98 70 -132 113
-194 244 -53 112 -61 153 -45 247 38 226 243 441 471 495 65 15 240 20 298 9
26 -6 31 -11 31 -35 0 -82 115 -95 143 -17 6 16 16 14 116 -21 60 -22 149 -58
197 -81 93 -44 259 -110 275 -110 6 0 7 5 4 10 -12 20 -15 146 -5 220 13 94
28 140 45 140 7 0 37 -44 65 -97 75 -141 87 -156 119 -149 102 21 207 49 218
58 17 14 16 28 -2 28 -8 0 -15 2 -15 5 0 7 40 179 45 193 8 21 40 -6 75 -64z
m2527 -576 c12 -16 24 -60 15 -56 -4 2 -26 12 -50 22 -45 21 -52 32 -24 39 32
9 50 7 59 -5z m-175 -44 c29 -9 79 -29 111 -46 52 -26 57 -31 50 -51 -24 -66
10 -160 63 -173 46 -12 50 11 10 49 -28 27 -36 42 -36 71 0 59 29 47 133 -53
104 -101 106 -113 26 -142 -30 -12 -44 -22 -44 -35 0 -28 76 -25 116 5 29 22
31 22 50 5 18 -17 18 -18 -29 -33 -96 -33 -167 -115 -221 -256 -48 -123 -73
-139 -136 -84 -40 35 -65 77 -65 109 0 14 -6 20 -23 20 -19 0 -25 -8 -36 -50
-9 -35 -24 -59 -52 -84 -51 -47 -77 -52 -132 -28 -50 22 -79 63 -98 135 -13
55 -29 47 -29 -16 0 -27 -5 -39 -17 -43 -56 -16 -147 -72 -183 -111 -66 -70
-95 -143 -95 -234 0 -67 3 -81 31 -126 25 -39 29 -54 22 -74 -5 -13 -8 -54 -6
-92 3 -67 3 -67 -27 -76 -51 -16 -214 -45 -219 -40 -3 3 3 47 14 99 27 135 40
250 40 360 0 83 -3 103 -26 148 -25 50 -126 161 -240 263 -52 46 -97 131 -78
148 5 5 63 5 129 0 110 -9 160 -7 208 7 9 3 50 51 90 107 87 123 186 230 242
263 32 18 146 64 160 64 2 0 5 -14 9 -31 12 -63 116 -125 116 -69 0 11 -6 20
-13 20 -17 0 -53 39 -61 67 -6 18 -2 22 21 26 46 8 168 -3 225 -19z m-2232
-272 c-10 -47 -16 -56 -46 -68 -38 -16 -112 -18 -134 -4 -12 8 -6 18 35 60 28
28 73 64 100 79 49 28 50 28 54 7 1 -11 -2 -45 -9 -74z m3119 -46 c49 -49 27
-158 -42 -209 -46 -35 -54 -9 -18 55 37 65 40 112 9 145 -12 13 -27 23 -35 23
-7 0 -13 5 -13 11 0 20 72 1 99 -25z m-1418 -1162 c28 -31 114 -74 147 -74 12
0 22 -6 22 -13 0 -23 74 -130 125 -180 27 -26 78 -62 114 -79 55 -28 77 -33
158 -36 82 -4 93 -7 88 -21 -4 -9 -23 -61 -42 -116 -97 -280 -236 -465 -409
-547 -132 -62 -352 -99 -712 -120 -193 -11 -212 -10 -236 5 -36 24 -33 48 18
136 128 224 264 551 361 870 l40 134 100 22 c55 13 116 27 135 33 54 16 65 14
91 -14z m-4077 -1215 c55 -3 56 3 -19 -155 -67 -143 -171 -294 -203 -294 -17
0 -32 52 -32 112 0 44 13 106 47 218 l46 157 58 -18 c32 -10 78 -19 103 -20z
m3704 -123 c5 -28 19 -94 31 -146 20 -93 27 -193 15 -224 -16 -41 -80 0 -134
84 -30 47 -109 234 -129 305 l-9 34 108 -1 107 -1 11 -51z m-2403 -267 c-32
-12 -62 -10 -75 6 -22 26 -2 34 47 18 39 -14 44 -18 28 -24z m371 -74 c22 -54
81 -141 110 -164 34 -27 22 -43 -52 -71 -68 -25 -105 -25 -182 -1 -51 16 -64
16 -90 5 -38 -16 -47 -44 -34 -113 12 -68 -3 -75 -30 -14 -16 36 -21 66 -20
121 1 64 -1 73 -16 70 -11 -2 -22 -22 -32 -61 -13 -51 -12 -66 1 -133 8 -41
13 -76 11 -79 -19 -19 -92 81 -92 127 0 14 7 45 15 68 19 53 20 103 3 98 -20
-6 -60 -94 -66 -143 -3 -28 2 -61 14 -94 10 -28 15 -54 11 -57 -19 -19 -87 87
-87 135 0 12 14 51 31 87 16 36 29 73 27 82 -7 36 -34 14 -70 -56 -40 -77 -47
-126 -27 -178 l10 -28 -22 19 c-28 27 -49 68 -49 101 0 39 66 156 120 213 61
63 115 81 280 90 235 14 219 16 236 -24z"/>
<path d="M5525 6248 c10 -90 -31 -107 -74 -30 -21 39 -26 43 -50 37 -41 -10
-45 -20 -28 -67 22 -57 21 -68 -5 -68 -13 0 -39 18 -64 45 -23 25 -46 45 -52
45 -21 0 -20 -29 4 -61 37 -51 92 -81 134 -75 29 5 41 1 63 -20 15 -14 30 -39
34 -55 3 -18 12 -29 23 -29 25 0 29 8 19 44 -7 25 -5 41 6 62 8 16 15 39 15
51 0 12 5 25 10 28 11 7 14 103 4 129 -3 9 -15 16 -26 16 -18 0 -19 -5 -13
-52z m-35 -148 c0 -5 -5 -10 -11 -10 -5 0 -7 5 -4 10 3 6 8 10 11 10 2 0 4 -4
4 -10z"/>
<path d="M3735 6176 c-19 -29 -6 -67 30 -86 21 -11 27 -9 59 23 20 20 36 41
36 46 0 22 -33 41 -70 41 -31 0 -43 -5 -55 -24z"/>
<path d="M4249 5821 c-31 -31 -35 -51 -19 -82 10 -18 13 -18 41 -4 16 9 39 13
49 10 34 -11 60 4 60 34 0 68 -79 94 -131 42z"/>
<path d="M7945 8204 c-96 -20 -280 -112 -280 -139 0 -32 28 -29 132 18 140 64
168 71 263 72 76 0 92 -3 150 -32 109 -54 213 -173 226 -259 11 -76 -35 -225
-80 -264 -27 -22 -27 -6 -1 64 33 88 35 169 5 230 -12 25 -26 46 -31 46 -6 0
-7 -32 -3 -79 6 -74 5 -82 -26 -149 -31 -68 -70 -119 -70 -93 0 7 12 53 26
104 30 106 28 165 -8 229 -33 60 -52 62 -44 7 20 -139 19 -155 -6 -211 -28
-60 -67 -111 -68 -89 0 8 10 44 22 79 19 57 20 71 10 119 -14 67 -48 125 -71
121 -20 -4 -27 -44 -11 -63 24 -28 -27 -40 -175 -40 -118 0 -144 -3 -166 -18
l-26 -18 -26 78 c-66 200 -67 203 -93 203 -53 0 -288 -100 -494 -211 -379
-203 -694 -459 -843 -684 -175 -266 -326 -626 -402 -961 -29 -124 -39 -298
-22 -376 17 -83 43 -24 52 117 15 234 91 508 226 809 193 428 419 668 895 952
164 98 443 234 493 241 35 5 40 2 58 -28 11 -19 33 -72 48 -119 33 -101 62
-161 123 -255 25 -38 48 -86 51 -105 l6 -34 -100 -51 c-220 -110 -523 -333
-721 -530 -115 -115 -136 -140 -172 -215 -46 -93 -93 -263 -112 -406 -18 -133
-10 -407 14 -463 13 -29 21 -39 26 -30 4 8 10 115 13 239 6 293 37 458 114
620 30 64 55 94 162 200 130 130 297 264 474 383 107 71 277 171 282 165 2 -2
-19 -55 -46 -118 -133 -307 -159 -392 -126 -417 6 -5 53 -27 102 -48 229 -97
923 -429 1073 -514 131 -73 133 -73 192 52 26 56 108 253 180 437 73 184 136
339 140 343 4 5 -1 -33 -11 -85 -11 -51 -31 -160 -44 -243 -14 -82 -34 -193
-45 -245 -23 -111 -37 -274 -21 -249 17 27 57 195 118 501 31 160 59 285 61
279 2 -6 -1 -65 -7 -131 -17 -187 -24 -411 -13 -455 l9 -40 6 45 c3 25 13 124
22 220 9 96 25 262 36 368 10 106 19 212 19 237 0 48 15 59 29 22 12 -31 148
-565 153 -597 3 -23 -2 -26 -77 -45 -108 -28 -164 -65 -99 -65 52 0 219 32
233 45 11 11 10 29 -8 117 -12 57 -30 135 -41 173 -11 38 -18 70 -17 72 2 1
18 -34 37 -80 35 -87 77 -158 97 -164 14 -5 2 32 -77 232 -28 72 -82 211 -120
310 -102 268 -89 246 -162 280 -35 16 -155 72 -268 126 -229 108 -396 181
-459 200 -28 8 -47 21 -56 40 -38 72 -134 149 -187 149 -37 0 -36 -16 3 -36
54 -27 121 -97 144 -149 22 -49 42 -135 31 -135 -2 0 -17 27 -32 61 -15 33
-35 66 -45 73 -10 6 -38 40 -63 74 -119 161 -290 228 -481 186z m-53 -382 l46
-7 -45 -122 c-25 -68 -49 -123 -53 -123 -8 0 -63 86 -93 145 -30 62 -30 71 5
94 34 21 60 24 140 13z m658 -67 c11 -3 24 -4 30 0 5 3 26 -3 47 -13 21 -11
112 -50 203 -87 242 -98 500 -216 500 -228 0 -9 -403 -1018 -432 -1082 -6 -13
-19 -27 -28 -30 -11 -3 -119 45 -276 123 -143 71 -411 198 -596 283 -284 129
-338 157 -338 174 0 47 34 143 128 365 117 277 147 361 163 457 l12 71 70 10
c39 6 73 9 76 6 3 -2 -5 -32 -17 -67 -12 -34 -22 -74 -22 -89 0 -34 39 -63 73
-54 17 4 25 0 32 -17 12 -27 57 -34 89 -14 20 14 23 13 34 -4 19 -31 77 -20
110 20 31 38 74 144 79 197 l6 57 18 -36 c10 -19 28 -38 39 -42z m760 -180
c32 -17 35 -22 20 -45 -8 -12 -13 -12 -44 2 -27 13 -33 21 -29 37 6 25 15 26
53 6z"/>
<path d="M8520 7418 c-14 -34 -65 -158 -127 -303 -52 -125 -69 -196 -48 -204
6 -1 18 19 28 45 10 27 57 129 104 226 46 97 87 195 90 217 5 37 4 41 -16 41
-13 0 -25 -9 -31 -22z"/>
<path d="M5317 7332 c-41 -45 -99 -252 -70 -252 14 0 114 220 111 243 -4 28
-21 31 -41 9z"/>
<path d="M5000 7115 c-20 -25 -3 -61 56 -114 30 -28 60 -51 65 -51 18 0 7 36
-29 99 -39 67 -72 90 -92 66z"/>
<path d="M6560 5690 c-101 -24 -124 -34 -149 -66 -26 -33 -26 -54 -2 -103 34
-67 235 -220 258 -197 4 5 -12 25 -37 45 -25 20 -75 66 -112 103 -104 103 -93
129 69 166 71 16 78 20 78 42 0 31 -12 33 -105 10z"/>
<path d="M9183 4993 c-55 -19 -113 -71 -93 -83 8 -5 33 -1 62 11 27 10 56 19
66 19 42 0 92 21 92 39 0 34 -55 40 -127 14z"/>
<path d="M9090 4750 c-27 -17 10 -153 46 -167 33 -12 56 36 34 75 -5 9 -16 34
-25 54 -18 39 -34 51 -55 38z"/>
<path d="M3294 2129 c-62 -5 -132 -16 -155 -23 -38 -11 -9 -12 216 -8 249 4
396 -5 418 -27 5 -5 -29 -19 -75 -31 -114 -31 -157 -49 -169 -72 -44 -83 256
-122 768 -99 267 11 435 25 455 37 5 3 3 12 -4 21 -11 13 -32 15 -138 9 -465
-23 -571 -26 -700 -21 -164 7 -290 21 -303 34 -6 6 33 22 94 41 57 17 112 40
123 50 30 29 13 57 -47 75 -65 20 -325 28 -483 14z"/>
</g>
</svg>
