<svg version="1.0" xmlns="http://www.w3.org/2000/svg"
 width="1041.000000pt" height="1041.000000pt" viewBox="0 0 1041.000000 1041.000000"
 preserveAspectRatio="xMidYMid meet">
<g transform="translate(0.000000,1041.000000) scale(0.100000,-0.100000)"
fill="#000000" stroke="none">
<path d="M4915 9683 c-54 -7 -138 -34 -195 -63 -133 -67 -217 -166 -265 -312
-15 -46 -34 -95 -42 -110 -17 -36 -85 -69 -198 -97 -49 -13 -117 -36 -151 -52
-112 -52 -193 -167 -217 -303 -34 -201 134 -422 361 -472 86 -19 201 -15 271
9 44 16 45 15 75 -10 43 -36 88 -53 141 -53 90 0 109 42 26 56 -98 16 -150 57
-171 135 -23 83 33 159 116 159 53 0 79 -22 118 -98 30 -60 58 -82 104 -82 64
0 104 80 89 175 -8 48 9 100 41 125 34 27 83 23 170 -14 102 -44 139 -39 285
35 71 35 131 60 139 56 9 -3 24 -30 33 -59 32 -97 77 -181 124 -228 25 -26 52
-49 60 -52 12 -3 12 -13 1 -58 -86 -368 -294 -649 -533 -722 -54 -16 -87 -20
-162 -16 -86 4 -100 7 -182 48 -110 54 -173 117 -234 231 -44 84 -44 84 -47
47 -4 -50 52 -227 91 -285 61 -90 151 -132 237 -111 25 6 95 11 155 12 135 2
212 25 320 97 73 49 178 152 211 208 33 55 142 78 224 46 l35 -13 -53 -1 c-58
-1 -107 -21 -134 -55 -31 -38 -22 -48 22 -26 52 26 137 26 242 -1 192 -50 357
6 431 145 17 33 22 57 21 121 -1 100 -23 160 -115 315 -37 63 -69 126 -71 140
-1 14 4 78 11 142 18 148 6 225 -50 337 -91 182 -267 277 -501 269 l-108 -3 0
47 c0 56 -13 93 -35 101 -13 6 -15 1 -9 -28 7 -40 -2 -105 -16 -105 -4 0 -11
13 -15 30 -10 47 -77 141 -140 197 -129 115 -323 171 -510 146z m-834 -1233
c98 -51 231 -74 342 -61 56 7 59 6 68 -17 5 -14 7 -27 4 -31 -4 -3 -68 -6
-144 -6 l-137 0 -76 38 c-53 26 -91 53 -123 89 -64 72 -78 102 -23 51 26 -23
65 -51 89 -63z"/>
<path d="M2743 9101 c-40 -25 -53 -49 -53 -99 0 -39 31 -82 58 -82 17 0 15 8
-8 37 -27 34 -25 59 5 88 27 28 76 33 94 11 15 -18 -2 -31 -38 -31 -32 0 -37
-19 -11 -45 24 -24 52 -20 88 13 27 25 29 67 4 97 -26 32 -97 38 -139 11z"/>
<path d="M7573 8750 c-64 -39 -88 -111 -58 -174 21 -44 59 -66 114 -66 32 0
44 6 65 31 40 47 31 122 -18 149 -56 29 -127 -19 -107 -72 11 -30 38 -43 57
-27 11 9 11 14 -2 26 -18 19 -4 39 21 30 38 -15 30 -83 -11 -93 -37 -9 -73 11
-90 51 -12 31 -12 39 0 70 17 40 68 75 109 75 16 0 26 4 22 10 -10 17 -68 11
-102 -10z"/>
<path d="M5254 8566 c-34 -26 -7 -50 64 -57 33 -3 74 -12 92 -19 27 -11 34
-11 47 3 15 15 15 18 -3 38 -41 46 -157 66 -200 35z"/>
<path d="M5615 8534 c-5 -1 -22 -5 -37 -8 -60 -13 -21 -66 49 -66 14 0 40 -7
59 -16 39 -19 64 -13 64 15 0 33 -94 85 -135 75z"/>
<path d="M5233 8344 c-10 -27 24 -143 53 -181 50 -66 133 -60 164 11 25 59 32
123 14 141 -29 28 -54 -8 -54 -79 0 -12 -7 -31 -15 -43 -33 -47 -86 14 -103
117 -6 36 -12 46 -30 48 -14 2 -25 -3 -29 -14z"/>
<path d="M5497 8323 c-4 -3 -7 -31 -7 -60 0 -143 -32 -313 -60 -313 -6 0 -33
11 -60 25 -47 24 -80 32 -80 19 0 -29 61 -77 120 -94 64 -18 98 16 119 122 11
50 15 57 40 63 71 15 146 162 89 173 -12 2 -25 -12 -42 -47 -15 -28 -35 -55
-46 -61 -19 -10 -20 -8 -20 69 0 44 -3 86 -6 95 -6 16 -35 22 -47 9z"/>
<path d="M5090 7925 c-30 -36 38 -134 96 -138 23 -2 30 2 32 20 2 16 -5 26
-28 38 -17 9 -38 31 -47 50 -19 40 -37 50 -53 30z"/>
<path d="M4513 7813 c-22 -8 -14 -58 18 -119 82 -153 175 -256 278 -307 152
-74 296 -16 245 100 -14 30 -18 34 -21 18 -15 -74 -53 -103 -120 -90 -115 21
-244 147 -334 328 -22 42 -43 77 -47 76 -4 0 -13 -3 -19 -6z"/>
<path d="M4357 7779 c-156 -37 -384 -196 -603 -420 -356 -367 -627 -835 -739
-1278 -74 -294 -84 -600 -29 -871 52 -257 177 -475 348 -607 l67 -52 -288 6
c-255 5 -295 4 -347 -11 -102 -30 -60 -38 241 -48 153 -5 279 -10 280 -11 1
-1 -3 -22 -8 -47 -17 -76 -23 -515 -10 -657 17 -186 55 -364 96 -448 87 -180
241 -306 613 -503 147 -78 224 -126 256 -158 45 -44 -8 -101 -150 -163 -293
-129 -445 -223 -571 -354 -124 -129 -210 -282 -253 -450 -40 -158 -70 -451
-70 -687 0 -126 -2 -140 -23 -171 l-23 -34 -269 -6 c-206 -5 -288 -11 -345
-24 -68 -16 -73 -19 -50 -28 29 -12 2405 -29 3492 -25 704 3 741 5 670 42 -26
13 -74 16 -296 16 l-264 0 -31 30 c-17 17 -32 45 -35 63 -3 18 -7 147 -10 287
-6 279 -16 388 -51 526 -89 351 -289 565 -731 785 -181 90 -234 124 -234 153
0 26 58 70 186 142 193 106 359 219 444 300 68 66 116 131 105 142 -13 13 -64
-16 -127 -71 -115 -100 -199 -157 -408 -276 -133 -76 -209 -126 -239 -157 -40
-42 -43 -48 -38 -87 9 -67 65 -109 299 -225 240 -120 307 -162 412 -262 180
-172 265 -354 295 -630 15 -140 26 -530 17 -604 -6 -46 -14 -66 -36 -88 l-28
-28 -554 1 c-304 1 -868 4 -1253 8 -680 6 -701 7 -735 26 -68 40 -83 150 -59
432 36 444 105 642 289 836 130 137 217 194 491 322 232 107 279 145 279 222
0 72 -52 112 -331 259 -240 125 -335 189 -441 294 -110 109 -149 185 -183 357
-31 153 -43 295 -50 578 -3 127 -8 254 -10 283 l-5 52 100 0 c88 0 109 -4 177
-31 138 -55 212 -69 363 -69 101 0 156 5 211 19 41 10 121 24 178 31 58 6 141
17 185 25 62 9 195 11 556 8 442 -5 710 3 727 21 5 4 -3 17 -17 28 -24 19 -35
19 -395 13 -203 -3 -385 -2 -404 2 -28 7 -1 15 180 51 272 53 377 71 464 78
69 6 71 5 155 -41 165 -91 293 -206 402 -360 27 -38 106 -164 176 -280 247
-412 388 -619 451 -664 58 -42 124 -19 278 95 l71 53 99 -102 c146 -152 312
-297 340 -297 13 0 23 5 23 11 0 6 -88 101 -196 211 -108 110 -194 201 -192
203 2 3 42 28 89 58 l84 53 58 -47 c121 -97 265 -101 585 -18 206 54 237 48
165 -32 -100 -111 -308 -198 -526 -219 -54 -5 -105 -14 -114 -18 -26 -15 41
-32 127 -32 228 0 587 175 615 299 14 63 -29 111 -99 111 -11 0 -106 -21 -211
-47 -164 -40 -204 -47 -295 -47 -120 0 -150 11 -233 86 l-47 43 161 125 c88
69 176 143 194 166 l34 41 -52 65 c-29 36 -131 155 -228 264 -97 110 -251 287
-344 394 -347 405 -621 686 -792 814 -49 36 -121 80 -162 97 -169 71 -450 106
-766 95 -172 -5 -355 -23 -427 -41 l-28 -7 0 58 c0 68 -14 127 -35 144 -12 10
-14 -5 -12 -107 2 -141 -15 -208 -74 -294 -44 -65 -117 -143 -168 -179 -44
-31 -39 -16 27 82 45 67 92 150 92 163 0 15 -28 -1 -86 -50 -77 -65 -97 -76
-188 -104 -69 -21 -126 -27 -126 -13 0 4 26 20 58 36 144 70 260 159 231 177
-19 11 -66 -7 -122 -47 -28 -20 -79 -50 -113 -66 -65 -31 -179 -57 -191 -44
-12 12 22 33 163 101 128 62 184 105 184 141 0 20 -28 11 -91 -28 -100 -61
-245 -102 -284 -81 -24 14 -9 22 135 84 69 29 346 164 615 300 486 246 592
294 693 320 28 7 52 16 52 20 0 3 -13 12 -29 19 -69 28 -208 -25 -601 -229
-665 -347 -965 -476 -1158 -499 -234 -28 -389 80 -448 310 -20 79 -14 334 11
448 60 274 209 575 425 855 98 128 143 195 132 195 -5 0 -42 -30 -81 -66 -255
-236 -484 -660 -575 -1064 -34 -153 -55 -175 -198 -204 -67 -14 -198 -22 -198
-13 0 2 13 51 30 109 94 338 312 726 584 1042 l60 69 17 -41 c19 -44 38 -52
59 -27 12 14 4 47 -28 116 -2 4 52 57 120 118 131 119 294 240 429 321 84 50
87 56 16 39z m3458 -3789 c3 -5 -1 -10 -9 -10 -9 0 -16 5 -16 10 0 6 4 10 9
10 6 0 13 -4 16 -10z"/>
<path d="M7955 7265 c-35 -18 -65 -51 -65 -72 0 -10 11 -6 34 15 60 52 119 50
169 -6 24 -26 34 -97 17 -117 -18 -22 -57 -18 -74 7 -19 27 -6 44 22 29 30
-16 42 -14 42 8 0 48 -72 69 -110 31 -30 -30 -26 -76 9 -111 25 -24 38 -29 80
-29 63 0 91 29 91 97 0 117 -117 197 -215 148z"/>
<path d="M5027 7253 c-11 -11 -7 -156 6 -193 7 -19 20 -36 30 -38 15 -3 17 6
17 92 0 52 -4 106 -10 120 -9 25 -29 34 -43 19z"/>
<path d="M1665 7194 c-16 -8 -33 -21 -37 -27 -11 -17 -10 -57 2 -57 6 0 10 7
10 15 0 23 45 47 82 43 24 -2 36 -10 46 -30 24 -51 -11 -108 -58 -93 -27 9
-26 35 0 28 13 -4 20 0 20 9 0 22 -21 38 -51 38 -49 0 -57 -82 -11 -116 9 -7
34 -14 55 -14 100 -1 131 147 43 201 -38 23 -62 24 -101 3z"/>
<path d="M5654 7171 c-41 -10 -102 -48 -114 -70 -6 -12 -26 -20 -58 -24 -67
-8 -252 -69 -382 -127 -373 -164 -829 -482 -906 -631 -14 -29 -14 -30 3 -20
10 5 79 60 153 121 117 97 335 251 409 290 23 12 24 11 16 -11 -14 -44 -11
-83 6 -87 12 -2 28 21 59 83 l42 87 161 78 c158 77 336 143 416 156 39 6 40 6
43 -27 4 -45 51 -76 128 -85 l59 -6 16 -47 c9 -25 20 -107 25 -181 12 -185 28
-318 41 -343 11 -20 12 -20 25 4 10 18 12 52 8 134 l-6 110 31 20 c44 28 61
58 63 108 l2 43 45 -15 c41 -13 55 -13 141 3 52 9 102 18 110 19 10 1 16 -8
18 -25 3 -22 -4 -32 -37 -52 -21 -14 -42 -34 -46 -45 -12 -39 28 -81 78 -81
14 0 30 -6 36 -14 7 -8 27 -18 44 -21 18 -4 53 -14 78 -22 41 -13 50 -13 82 1
58 24 91 84 95 173 4 72 4 73 22 50 15 -19 17 -35 13 -85 -5 -51 -3 -66 12
-82 19 -20 41 -25 70 -14 54 21 67 174 22 266 -31 62 -59 90 -185 186 -199
149 -291 169 -517 113 -66 -16 -120 -29 -120 -28 0 14 -36 64 -55 78 -29 21
-102 31 -146 20z m116 -66 c39 -20 41 -66 4 -100 -25 -23 -103 -42 -154 -37
-31 3 -61 37 -53 60 26 74 132 114 203 77z m528 -65 c67 -31 122 -68 234 -158
83 -66 118 -129 118 -212 0 -35 -6 -64 -15 -76 -14 -17 -15 -13 -9 46 4 54 2
70 -15 97 -25 39 -56 61 -96 65 -25 3 -29 0 -26 -17 18 -93 -4 -188 -53 -227
-32 -27 -40 -21 -17 11 26 36 41 111 31 154 -10 45 -28 77 -44 77 -10 0 -11
-12 -5 -52 5 -29 6 -68 3 -86 -8 -43 -55 -92 -88 -92 l-27 0 32 40 c44 54 51
129 17 180 l-23 35 -3 -73 c-3 -67 -5 -74 -38 -107 -26 -26 -43 -35 -67 -34
l-32 0 25 17 c68 46 85 88 59 145 -20 45 -49 52 -131 31 -90 -22 -163 -23
-203 -2 -26 14 -33 25 -44 79 -7 35 -19 76 -27 91 -20 38 -18 48 11 48 14 0
71 11 128 24 56 14 113 27 127 29 47 10 114 -3 178 -33z"/>
<path d="M5690 7083 c-23 -9 -72 -45 -67 -49 2 -3 16 0 31 6 24 9 30 7 46 -12
24 -29 34 -18 26 27 -7 36 -10 38 -36 28z"/>
<path d="M4253 7083 c-20 -7 -15 -36 13 -87 20 -36 31 -46 48 -44 31 4 30 37
-4 91 -30 47 -34 50 -57 40z"/>
<path d="M3399 6646 c-42 -25 -54 -38 -54 -57 0 -32 22 -30 85 11 49 32 65 62
36 73 -7 3 -38 -9 -67 -27z"/>
<path d="M5285 6604 c-18 -18 -10 -36 43 -102 25 -30 42 -42 56 -40 35 5 30
40 -14 95 -46 59 -63 68 -85 47z"/>
<path d="M3790 6293 c-57 -40 -66 -59 -39 -76 25 -15 141 59 137 87 -5 34 -39
30 -98 -11z"/>
<path d="M6450 6140 c-43 -43 -35 -111 16 -130 64 -25 124 7 124 65 0 41 -22
65 -59 65 -32 0 -51 -16 -51 -43 0 -16 5 -19 31 -13 25 5 30 3 27 -12 -4 -23
-60 -28 -78 -7 -11 13 -10 22 3 55 17 45 15 48 -13 20z"/>
<path d="M4223 6023 c-7 -2 -13 -13 -13 -23 0 -23 113 -103 138 -98 37 7 22
36 -42 82 -35 25 -66 46 -68 45 -2 0 -9 -3 -15 -6z"/>
<path d="M5163 5973 c-19 -7 -16 -22 18 -88 27 -54 30 -66 25 -120 l-6 -60 20
23 c30 36 40 87 29 146 -14 76 -48 115 -86 99z"/>
<path d="M5860 4440 c-27 -27 -47 -68 -153 -321 -110 -261 -151 -372 -184
-489 -30 -111 -30 -154 1 -183 29 -27 183 -113 289 -161 42 -19 77 -37 77 -39
0 -2 -22 -51 -49 -109 -61 -128 -67 -150 -47 -167 13 -11 17 -9 27 15 13 37
91 164 100 164 3 0 9 -28 11 -62 12 -147 109 -348 223 -463 79 -81 123 -105
189 -105 38 0 48 4 62 25 24 37 13 95 -42 217 -155 341 -163 366 -121 354 97
-29 176 -46 208 -46 62 0 62 1 128 250 45 175 46 166 -31 248 -76 81 -155 197
-298 442 -56 96 -122 204 -147 239 -52 72 -189 211 -209 211 -8 0 -23 -9 -34
-20z m199 -1272 l89 -43 11 -51 c7 -28 41 -114 77 -190 86 -182 126 -282 119
-294 -31 -51 -205 99 -279 239 -46 87 -92 228 -104 314 -5 37 -7 67 -5 67 2 0
44 -19 92 -42z"/>
<path d="M8588 3974 c-45 -23 -118 -164 -118 -226 0 -35 20 -16 89 84 84 121
96 177 29 142z"/>
<path d="M8593 3638 c-31 -15 -29 -36 5 -43 15 -4 53 -13 85 -21 32 -8 66 -12
77 -9 25 8 26 37 3 58 -23 20 -140 31 -170 15z"/>
<path d="M3848 3329 c-22 -12 -23 -52 -2 -73 19 -20 34 -20 62 0 54 38 -3 107
-60 73z"/>
<path d="M4118 3329 c-28 -16 -23 -67 7 -81 19 -9 29 -8 50 6 29 19 32 46 7
69 -21 19 -39 21 -64 6z"/>
<path d="M4326 3324 c-30 -29 -17 -68 25 -79 48 -12 78 44 43 79 -8 9 -24 16
-34 16 -10 0 -26 -7 -34 -16z"/>
<path d="M4542 3318 c-20 -20 -14 -56 13 -74 23 -15 27 -15 50 0 44 29 28 86
-25 86 -14 0 -31 -5 -38 -12z"/>
<path d="M4742 3318 c-13 -13 -16 -47 -4 -64 23 -34 92 -15 92 26 0 40 -60 66
-88 38z"/>
<path d="M4990 3310 c-11 -11 -20 -24 -20 -30 0 -17 39 -50 59 -50 18 0 51 34
51 52 0 14 -39 48 -55 48 -8 0 -24 -9 -35 -20z"/>
<path d="M5276 3315 c-30 -31 -9 -85 33 -85 21 0 51 30 51 51 -1 39 -56 62
-84 34z"/>
<path d="M4045 3094 c-19 -20 -16 -63 6 -77 50 -31 105 38 59 75 -27 22 -44
23 -65 2z"/>
<path d="M4236 3097 c-22 -16 -18 -65 5 -80 50 -31 105 38 59 75 -26 21 -40
23 -64 5z"/>
<path d="M4446 3091 c-38 -42 15 -104 63 -74 18 11 25 51 13 70 -15 23 -57 25
-76 4z"/>
<path d="M4668 3089 c-36 -21 -12 -89 32 -89 10 0 26 7 34 16 44 44 -12 105
-66 73z"/>
<path d="M4868 3089 c-25 -14 -24 -65 1 -79 27 -14 47 -13 65 6 44 44 -12 105
-66 73z"/>
<path d="M5102 3088 c-7 -7 -12 -21 -12 -33 0 -28 19 -45 50 -45 31 0 50 17
50 45 0 28 -19 45 -50 45 -14 0 -31 -5 -38 -12z"/>
<path d="M4323 2889 c-42 -15 -40 -74 3 -85 46 -12 72 14 60 60 -7 27 -32 37
-63 25z"/>
<path d="M4513 2889 c-42 -15 -40 -74 2 -85 34 -8 62 3 68 28 12 43 -26 74
-70 57z"/>
<path d="M4680 2870 c-11 -11 -20 -26 -20 -33 0 -20 33 -47 58 -47 19 0 52 33
52 52 0 14 -39 48 -55 48 -8 0 -24 -9 -35 -20z"/>
<path d="M4860 2870 c-11 -11 -20 -26 -20 -34 0 -22 29 -46 54 -46 30 0 46 18
46 52 0 21 -6 31 -26 38 -33 13 -31 13 -54 -10z"/>
<path d="M4508 2629 c-25 -14 -22 -55 3 -73 46 -32 98 25 59 64 -22 22 -37 24
-62 9z"/>
<path d="M4693 2629 c-31 -11 -32 -64 -2 -80 30 -16 69 3 69 33 0 42 -28 62
-67 47z"/>
<path d="M4525 2380 c-26 -29 -7 -70 33 -70 49 0 69 42 36 74 -21 22 -47 20
-69 -4z"/>
<path d="M4646 2387 c-40 -29 5 -95 52 -76 29 11 31 63 3 79 -25 13 -33 13
-55 -3z"/>
<path d="M4532 2128 c-32 -32 4 -87 48 -73 25 8 37 50 20 70 -15 18 -51 20
-68 3z"/>
<path d="M4646 2124 c-23 -22 -20 -41 10 -61 31 -20 57 -9 62 26 7 45 -40 67
-72 35z"/>
<path d="M4532 1888 c-17 -17 -15 -53 3 -68 20 -17 62 -5 70 21 13 40 -44 76
-73 47z"/>
<path d="M4656 1887 c-12 -9 -17 -23 -14 -42 3 -26 8 -30 35 -33 27 -3 35 1
45 24 11 23 10 28 -11 45 -28 23 -32 23 -55 6z"/>
<path d="M4504 1670 c-30 -12 -37 -47 -13 -71 23 -23 42 -24 64 -3 34 34 -6
91 -51 74z"/>
<path d="M4700 1672 c-37 -12 -41 -67 -6 -83 31 -14 66 4 66 34 0 38 -28 60
-60 49z"/>
<path d="M4346 1445 c-9 -9 -16 -25 -16 -35 0 -26 40 -51 68 -43 26 6 40 48
25 72 -14 22 -57 25 -77 6z"/>
<path d="M4582 1448 c-13 -13 -16 -47 -4 -64 14 -23 49 -25 73 -5 20 16 22 23
14 47 -8 22 -18 30 -40 32 -17 2 -36 -3 -43 -10z"/>
<path d="M4816 1444 c-38 -38 8 -93 62 -73 25 9 31 56 10 77 -17 17 -54 15
-72 -4z"/>
<path d="M4082 1258 c-7 -7 -12 -21 -12 -33 0 -29 19 -45 52 -45 36 0 56 36
39 69 -13 23 -59 29 -79 9z"/>
<path d="M4262 1258 c-7 -7 -12 -21 -12 -33 0 -28 19 -45 50 -45 31 0 50 17
50 45 0 12 -5 26 -12 33 -15 15 -61 15 -76 0z"/>
<path d="M4469 1249 c-17 -33 3 -69 38 -69 16 0 33 4 39 8 18 12 24 42 14 63
-15 28 -75 26 -91 -2z"/>
<path d="M4700 1250 c-23 -23 -24 -33 -10 -61 12 -22 59 -26 78 -7 7 7 12 25
12 40 0 21 -6 31 -26 38 -33 13 -31 13 -54 -10z"/>
<path d="M4912 1259 c-29 -11 -37 -34 -23 -65 9 -20 17 -25 43 -22 37 4 53 25
45 60 -8 29 -32 39 -65 27z"/>
<path d="M5082 1248 c-20 -20 -14 -56 13 -74 23 -15 27 -15 50 0 27 18 31 36
15 67 -12 22 -59 26 -78 7z"/>
<path d="M3881 1054 c-38 -27 -22 -84 24 -84 25 0 55 29 55 52 0 33 -49 52
-79 32z"/>
<path d="M4088 1058 c-24 -20 -28 -44 -12 -67 19 -26 55 -27 77 -3 23 25 21
48 -5 66 -27 19 -39 20 -60 4z"/>
<path d="M4310 1063 c-35 -14 -41 -66 -9 -83 54 -30 106 34 59 72 -24 19 -26
20 -50 11z"/>
<path d="M4518 1049 c-36 -20 -12 -89 31 -89 21 0 51 30 51 52 0 18 -31 48
-51 48 -8 0 -22 -5 -31 -11z"/>
<path d="M4716 1047 c-28 -20 -18 -69 16 -81 53 -19 91 47 46 78 -27 19 -39
20 -62 3z"/>
<path d="M4993 1049 c-30 -11 -39 -46 -17 -70 24 -26 60 -24 79 5 28 43 -11
84 -62 65z"/>
<path d="M5260 1036 c-15 -19 -9 -56 11 -69 9 -5 28 -7 42 -3 52 13 42 86 -12
86 -16 0 -34 -7 -41 -14z"/>
</g>
</svg>
