<?xml version="1.0" standalone="no"?>
<!DOCTYPE svg PUBLIC "-//W3C//DTD SVG 20010904//EN"
 "http://www.w3.org/TR/2001/REC-SVG-20010904/DTD/svg10.dtd">
<svg version="1.0" xmlns="http://www.w3.org/2000/svg"
 width="1041.000000pt" height="1040.000000pt" viewBox="0 0 1041.000000 1040.000000"
 preserveAspectRatio="xMidYMid meet">

<g transform="translate(0.000000,1040.000000) scale(0.100000,-0.100000)"
fill="#000000" stroke="none">
<path d="M5533 9098 c-38 -10 -136 -121 -165 -186 -20 -44 -21 -83 -3 -89 11
-3 196 174 221 213 16 24 12 59 -9 66 -7 3 -26 1 -44 -4z"/>
<path d="M4370 8886 c-121 -31 -221 -96 -279 -179 l-30 -44 -60 58 c-124 118
-293 176 -480 166 -271 -15 -519 -144 -787 -412 -266 -264 -425 -492 -802
-1145 -310 -537 -443 -737 -626 -939 -87 -95 -90 -108 -49 -191 36 -72 206
-242 293 -292 91 -53 109 -51 193 24 47 42 67 55 63 41 -23 -71 -46 -166 -46
-187 0 -65 331 -278 560 -361 71 -25 230 -47 230 -31 0 4 -22 17 -49 30 l-49
22 62 39 c33 22 160 136 281 255 274 268 334 322 221 200 -283 -304 -509 -641
-721 -1076 -82 -168 -233 -524 -300 -709 -76 -211 -155 -526 -155 -619 0 -54
11 -116 20 -116 4 0 17 51 29 113 81 412 208 772 445 1262 279 576 625 1044
946 1279 92 68 177 116 205 116 32 0 39 14 22 42 -25 39 -29 92 -12 136 19 47
55 75 125 98 50 16 57 16 124 0 193 -47 341 -30 538 61 77 36 78 36 99 17 69
-61 66 -204 -6 -299 -48 -63 -43 -100 8 -60 17 12 32 2 165 -110 269 -226 465
-450 676 -772 247 -379 409 -724 582 -1240 59 -175 129 -342 139 -331 8 8 -37
207 -71 311 -182 562 -361 941 -643 1367 l-76 115 70 2 c38 1 92 6 119 13 27
6 50 9 53 7 2 -3 -32 -19 -77 -37 -44 -19 -80 -37 -80 -41 0 -27 130 -10 203
27 77 39 81 57 42 196 -15 50 -25 97 -23 105 2 9 42 -26 102 -92 l100 -107 50
6 c84 11 173 45 251 97 82 55 155 131 155 162 0 11 -53 102 -119 201 -263 400
-426 732 -505 1026 -35 134 -43 184 -66 455 -24 278 -41 405 -76 564 -95 427
-277 659 -599 761 -90 29 -301 37 -385 16z m275 -56 c26 -7 22 -8 -23 -9 -153
-3 -351 -78 -514 -193 -14 -10 -20 -10 -30 1 -11 10 -4 21 37 57 66 57 167
110 257 134 75 19 215 25 273 10z m-491 -667 c50 -120 189 -291 314 -387 78
-59 225 -147 287 -170 36 -14 45 -22 40 -35 -4 -9 -20 -81 -36 -160 -64 -316
-171 -536 -340 -701 -79 -77 -150 -121 -251 -158 -66 -24 -87 -27 -208 -27
-122 0 -143 3 -215 28 -288 101 -494 377 -585 785 -13 56 -27 102 -32 102 -4
0 -8 -31 -8 -69 l0 -70 -37 6 c-120 17 -203 107 -203 220 0 58 26 105 71 128
42 22 69 13 108 -35 31 -39 34 -40 92 -40 195 0 405 94 664 295 92 72 224 207
275 283 19 28 37 52 40 52 3 0 14 -21 24 -47z m773 -619 l56 -16 -5 -69 c-7
-92 -43 -151 -118 -196 -61 -37 -75 -41 -65 -15 15 38 45 216 45 268 0 46 3
55 15 50 9 -3 41 -13 72 -22z m-1787 -1488 c0 -2 -8 -10 -17 -17 -16 -13 -17
-12 -4 4 13 16 21 21 21 13z"/>
<path d="M3707 7730 c-60 -15 -97 -38 -97 -61 0 -29 26 -34 79 -15 58 20 127
21 188 0 44 -15 48 -15 59 1 9 12 10 24 4 35 -18 34 -160 58 -233 40z"/>
<path d="M4197 7729 c-49 -8 -108 -36 -114 -54 -2 -6 3 -19 11 -30 13 -19 14
-19 57 0 56 26 149 27 176 3 39 -35 92 -10 66 31 -27 43 -111 64 -196 50z"/>
<path d="M3710 7445 c-29 -35 45 -146 123 -184 51 -25 116 -27 157 -6 l28 15
17 -44 c21 -54 60 -95 76 -79 8 8 5 22 -10 51 -12 23 -21 48 -21 57 0 14 3 14
30 0 38 -19 109 -19 138 1 31 22 51 64 58 126 5 42 3 56 -10 67 -26 22 -43 6
-49 -49 -4 -29 -13 -63 -22 -76 -34 -53 -124 -11 -147 69 -15 55 -25 67 -55
67 -23 0 -23 -2 -17 -50 6 -46 4 -51 -24 -80 -63 -63 -171 -17 -217 93 -16 39
-35 47 -55 22z"/>
<path d="M3855 6950 c-11 -17 5 -48 40 -79 63 -55 153 -63 224 -20 39 23 49
46 29 65 -13 13 -21 12 -66 -12 -48 -25 -56 -26 -91 -15 -22 6 -51 25 -65 41
-25 30 -59 39 -71 20z"/>
<path d="M5595 8770 c-44 -3 -88 -10 -97 -14 -27 -12 -23 -55 5 -60 165 -35
257 -25 257 27 0 17 -10 28 -35 40 -20 9 -39 16 -43 15 -4 -1 -43 -4 -87 -8z"/>
<path d="M4175 6399 c-7 -11 -44 -146 -45 -161 0 -5 7 -8 15 -8 23 0 67 95 63
137 -3 37 -20 54 -33 32z"/>
<path d="M3658 6378 c-6 -31 29 -93 58 -107 31 -14 31 -4 -3 70 -28 61 -49 75
-55 37z"/>
<path d="M3927 6368 c-7 -31 1 -120 12 -131 20 -20 48 82 37 128 -8 32 -42 34
-49 3z"/>
<path d="M3925 5886 c-76 -33 -135 -113 -138 -187 -3 -75 46 -78 58 -3 11 78
86 144 162 144 65 0 114 -46 135 -124 7 -26 18 -51 26 -53 7 -3 30 11 51 31
43 42 87 48 138 16 39 -23 61 -64 69 -127 4 -27 13 -59 21 -72 l15 -23 31 48
c34 52 67 73 127 81 31 4 43 0 70 -25 32 -27 34 -35 39 -108 5 -70 8 -76 19
-57 23 41 26 109 8 158 -34 89 -151 123 -241 71 l-41 -24 -23 50 c-41 90 -139
130 -226 94 l-34 -15 -11 33 c-12 38 -54 80 -93 95 -38 15 -125 13 -162 -3z"/>
<path d="M3245 5817 c-202 -68 -472 -351 -492 -517 -8 -71 2 -63 79 63 76 123
155 217 240 284 138 110 266 147 359 106 154 -69 298 -284 303 -451 1 -51 3
-57 23 -60 18 -3 24 4 32 35 5 21 9 51 9 67 -1 45 44 80 91 71 51 -10 87 -30
115 -68 31 -41 33 -57 6 -57 -24 0 -73 -23 -109 -51 -19 -15 -41 -19 -106 -19
l-82 0 -18 48 c-51 138 -202 352 -248 352 -25 0 -19 -14 37 -87 43 -56 147
-243 161 -290 5 -19 3 -23 -17 -23 -18 0 -33 16 -65 68 -87 142 -185 261 -225
275 -29 10 -22 -5 46 -107 57 -86 136 -219 136 -231 0 -3 -15 -5 -32 -5 -31 0
-37 6 -82 84 -58 101 -133 186 -164 186 -28 0 -28 -11 1 -47 47 -59 127 -198
127 -223 0 -14 -47 -12 -53 3 -9 23 -97 135 -110 140 -8 3 -19 2 -26 -2 -8 -5
-1 -25 24 -67 20 -32 34 -66 33 -74 -3 -15 -37 -25 -196 -53 -163 -30 -212
-73 -212 -188 0 -76 13 -120 47 -166 23 -31 60 -59 69 -51 2 2 -9 33 -23 68
-34 84 -38 187 -9 219 26 29 125 58 270 78 175 25 908 25 1226 0 253 -20 520
-51 595 -70 44 -11 53 -18 73 -57 30 -61 28 -97 -13 -176 -19 -37 -35 -68 -35
-70 0 -2 10 -4 23 -4 52 1 103 81 113 178 5 47 2 68 -14 106 -22 49 -57 72
-129 83 -33 6 -42 16 -23 28 16 10 30 80 23 116 -8 42 -79 114 -120 122 -33 7
-73 -1 -73 -14 0 -4 18 -14 41 -20 84 -26 107 -111 46 -172 l-33 -33 -89 11
-89 10 -11 45 c-18 68 -41 107 -82 135 -47 31 -114 34 -159 6 l-32 -19 -28 30
c-42 44 -79 59 -139 59 -62 0 -86 -10 -136 -58 l-36 -35 -22 35 c-11 19 -40
47 -63 63 -37 24 -53 28 -113 28 -38 0 -79 -3 -90 -7 -17 -7 -24 1 -52 60 -61
131 -159 239 -267 295 -51 26 -173 34 -231 15z m1068 -461 c39 -16 65 -45 100
-110 15 -27 27 -50 27 -51 0 -9 -50 14 -87 38 -59 40 -112 51 -165 32 -23 -8
-44 -13 -46 -11 -2 2 1 19 6 37 10 40 61 79 104 79 16 0 43 -6 61 -14z m264
-56 c36 -22 60 -54 73 -99 10 -35 -7 -43 -31 -15 -35 42 -107 56 -147 28 -21
-14 -22 -14 -22 6 0 28 26 77 47 89 26 15 44 13 80 -9z"/>
<path d="M3555 4930 c-270 -18 -482 -49 -524 -77 -24 -15 -24 -16 -18 -147 8
-164 37 -391 88 -696 44 -267 46 -290 22 -319 -17 -20 -23 -21 -91 -12 -41 5
-76 12 -79 15 -3 3 2 35 11 70 13 46 16 80 11 116 -7 52 -25 79 -25 38 0 -35
-35 -154 -68 -233 -16 -38 -46 -108 -65 -155 -20 -47 -40 -85 -44 -85 -4 0
-46 7 -93 15 -118 20 -279 19 -355 -4 -312 -93 -483 -384 -406 -688 24 -93 75
-195 139 -281 l49 -65 -50 -23 c-32 -16 -70 -47 -110 -92 l-61 -68 -235 3
c-183 2 -243 0 -269 -11 -55 -23 -56 -91 -1 -133 16 -13 47 -37 67 -55 l37
-31 -140 5 c-116 4 -143 2 -160 -10 -20 -15 -20 -15 5 -20 78 -16 324 -29 605
-34 l320 -5 234 36 c129 20 287 42 351 48 114 11 122 11 236 -15 402 -92 517
-102 1139 -102 593 0 783 11 1013 61 l32 6 0 -46 c0 -47 22 -106 40 -106 6 0
10 39 10 93 0 147 35 250 126 368 121 158 309 275 568 354 102 31 117 29 201
-25 83 -54 205 -113 305 -148 105 -37 140 -53 140 -64 0 -4 -45 -8 -99 -8
-134 0 -238 -15 -346 -51 -104 -34 -233 -108 -278 -159 -29 -33 -30 -35 -10
-38 11 -2 86 29 165 68 157 77 249 102 424 115 l90 7 12 -41 c14 -44 51 -79
95 -88 15 -3 26 -11 24 -17 -2 -6 -47 -47 -101 -90 l-97 -80 -65 -135 c-120
-249 -179 -281 -465 -249 -99 11 -113 10 -195 -10 -58 -14 -147 -50 -263 -107
-195 -94 -236 -103 -318 -66 -94 43 -59 107 97 177 154 69 227 130 278 231 19
36 45 123 37 123 -2 0 -17 -22 -35 -50 -18 -27 -65 -81 -106 -119 -59 -56 -92
-77 -171 -111 -248 -108 -329 -187 -289 -284 23 -54 64 -71 171 -70 109 1 159
17 375 119 234 111 281 120 484 95 122 -14 184 -7 259 33 79 42 130 102 189
227 27 58 54 115 60 127 6 12 50 53 97 91 101 81 143 122 162 160 7 15 24 41
37 59 61 83 31 156 -74 179 -99 22 -351 111 -427 151 -88 47 -157 110 -157
144 0 46 74 124 196 208 124 84 288 139 374 125 58 -9 66 -25 41 -77 -22 -45
-73 -81 -152 -106 -40 -13 -108 -65 -97 -76 9 -10 151 31 209 60 101 52 159
139 131 199 -34 75 -208 83 -383 17 -141 -53 -355 -228 -380 -309 -11 -37 -16
-42 -42 -42 -47 0 -272 -79 -384 -135 l-104 -52 -49 46 c-79 75 -70 109 62
237 140 136 373 297 498 345 62 24 120 25 120 4 0 -32 -36 -68 -146 -145 -135
-95 -214 -171 -214 -205 0 -34 26 -55 68 -55 l37 0 -29 23 -28 23 64 60 c36
33 108 90 161 127 140 98 182 164 139 217 -18 22 -28 25 -89 25 -60 0 -79 -5
-156 -42 -49 -24 -102 -52 -118 -63 l-28 -21 -6 28 c-51 239 -344 335 -726
238 -23 -6 -30 -1 -60 46 -40 63 -59 144 -59 262 0 48 -4 87 -9 87 -5 0 -14
-38 -21 -85 -11 -79 -14 -85 -36 -85 -39 0 -47 31 -41 149 4 58 7 107 7 108 0
0 22 4 49 8 61 8 88 -5 159 -77 l53 -54 -26 -55 c-45 -98 -26 -130 52 -89 73
39 213 209 252 308 8 17 15 32 16 32 2 0 31 -13 66 -29 35 -16 84 -32 107 -35
l44 -7 -20 26 c-32 40 -68 65 -100 69 -35 4 -139 73 -210 140 -94 88 -132 170
-182 386 -29 122 -55 193 -87 230 -18 22 -24 38 -20 57 15 78 -118 109 -573
133 -275 15 -697 20 -845 10z m900 -80 c175 -13 364 -35 418 -50 36 -11 37
-12 31 -48 -3 -20 -11 -102 -18 -182 l-12 -145 -29 2 c-17 1 -109 42 -205 92
-206 105 -250 120 -286 96 -28 -18 -31 -47 -9 -98 19 -46 19 -45 -9 -40 -19 4
-25 13 -30 50 -3 25 -6 68 -6 95 0 27 -5 81 -12 121 -10 61 -13 67 -19 43 -4
-15 -11 -87 -15 -159 -5 -97 -11 -137 -22 -150 -13 -14 -13 -24 -4 -56 7 -21
12 -64 12 -95 0 -53 -1 -56 -26 -56 -43 0 -64 -17 -64 -54 0 -27 9 -41 42 -71
l41 -38 -12 -231 c-15 -295 -40 -679 -47 -733 l-5 -43 -112 0 c-62 0 -155 3
-208 6 l-96 7 -6 71 c-3 39 -13 130 -21 201 -8 72 -29 337 -45 590 -40 605
-57 805 -70 835 -14 31 -7 -584 9 -870 20 -352 56 -737 77 -804 5 -17 1 -18
-38 -12 -56 8 -181 50 -239 79 -62 32 -114 110 -139 209 -52 202 -135 659
-170 928 -25 195 -43 409 -35 422 14 22 120 59 211 74 53 8 147 19 207 24 142
10 765 4 961 -10z m540 -246 c8 -19 29 -95 46 -167 44 -185 83 -263 180 -361
44 -43 79 -86 79 -96 0 -43 -123 -250 -149 -250 -4 0 -26 29 -50 65 -23 36
-57 77 -76 92 l-33 27 19 24 c21 27 25 52 9 52 -6 0 -30 -10 -53 -21 -56 -29
-385 -72 -510 -66 -110 4 -132 21 -51 37 251 50 299 90 146 122 -96 20 -216
66 -292 110 -53 32 -54 33 -26 36 16 2 105 -13 198 -33 115 -25 181 -35 205
-30 46 8 35 21 -70 81 -127 73 -295 204 -261 204 15 0 158 -56 282 -111 107
-48 149 -55 140 -26 -5 14 -45 43 -173 127 -95 62 -160 121 -153 140 2 6 83
-28 201 -86 157 -78 208 -98 251 -102 53 -4 55 -3 75 28 19 31 22 48 37 183 3
31 8 57 10 57 2 0 10 -16 19 -36z m-619 -361 c-2 -3 -20 -1 -40 2 -32 6 -36
11 -36 37 l0 29 40 -32 c22 -18 38 -34 36 -36z m-38 -172 c21 -11 63 -27 95
-36 31 -9 57 -18 57 -20 0 -2 -35 -11 -77 -20 -43 -10 -90 -24 -105 -31 -28
-14 -28 -14 -28 18 0 39 11 108 17 108 2 0 21 -9 41 -19z m38 -216 c81 -17
194 -19 283 -4 81 13 94 3 93 -70 -2 -57 -57 -320 -97 -456 -28 -96 -47 -124
-101 -150 -47 -22 -175 -53 -262 -63 l-74 -9 6 31 c9 49 24 236 36 441 17 292
19 318 35 305 7 -6 44 -17 81 -25z m-2107 -1624 c65 -44 169 -94 261 -127 35
-13 58 -25 50 -27 -13 -4 -379 -59 -483 -72 -21 -3 -97 -1 -170 5 -218 18
-405 65 -459 117 -62 59 -40 64 223 56 237 -7 235 -8 306 82 23 29 61 62 84
73 l42 21 45 -45 c24 -25 70 -62 101 -83z"/>
<path d="M3900 4203 c0 -5 20 -39 43 -77 46 -76 70 -97 88 -79 8 8 -5 31 -51
87 -57 69 -80 89 -80 69z"/>
<path d="M3786 4092 c-3 -4 22 -46 55 -93 110 -157 150 -194 166 -153 3 10 -7
29 -29 52 -19 20 -61 70 -93 110 -58 73 -89 99 -99 84z"/>
<path d="M2793 4193 c-17 -6 -17 -85 -1 -101 15 -15 45 -15 54 0 11 17 5 79
-8 95 -11 13 -24 15 -45 6z"/>
<path d="M5550 3660 c-19 -35 30 -94 72 -88 35 5 36 44 2 79 -32 34 -59 37
-74 9z"/>
<path d="M8020 3106 c-113 -32 -186 -83 -221 -152 -23 -47 -24 -57 -23 -236 1
-104 -2 -188 -7 -188 -4 0 -36 24 -70 53 -91 78 -117 94 -155 102 -81 15 -177
-74 -190 -176 -4 -27 -8 -49 -10 -49 -2 0 -36 16 -74 36 -47 23 -90 37 -128
41 -51 5 -55 4 -37 -9 11 -8 40 -23 65 -32 99 -39 179 -105 216 -179 18 -34
30 -47 42 -45 25 5 20 55 -12 122 -33 70 -33 92 3 148 67 105 109 104 233 -3
95 -83 150 -98 176 -49 10 19 11 59 6 165 -8 190 4 255 60 311 49 49 134 84
222 91 55 5 63 3 77 -17 8 -12 13 -28 11 -35 -3 -7 -47 -34 -99 -59 -58 -29
-99 -56 -111 -73 -53 -82 -13 -239 101 -391 79 -105 101 -190 70 -265 -17 -40
-20 -97 -6 -97 12 0 38 38 85 125 21 39 52 88 69 109 l31 39 27 -32 c15 -18
39 -61 54 -97 38 -89 57 -88 148 9 l69 72 -6 -90 c-4 -49 -9 -107 -12 -127 -7
-46 1 -47 91 -19 33 10 96 25 139 32 78 12 80 12 98 -10 38 -47 22 -101 -63
-218 -32 -45 -59 -88 -59 -96 0 -8 29 -40 66 -72 42 -38 67 -67 71 -86 8 -40
6 -43 -25 -52 -31 -8 -221 -44 -304 -57 -40 -6 -112 -36 -248 -104 -106 -53
-195 -96 -199 -96 -14 0 -31 50 -31 88 0 20 7 50 15 66 8 15 15 30 15 32 0 2
-36 -14 -80 -36 -88 -44 -102 -47 -120 -25 -9 11 -10 29 -2 74 12 69 7 98 -19
106 -10 3 -83 -12 -161 -34 -229 -63 -342 -85 -453 -85 -80 -1 -106 3 -128 17
-29 19 -36 37 -13 37 28 0 45 28 39 65 -5 34 -4 35 26 35 41 0 73 32 65 64 -4
19 -1 25 19 30 31 7 123 -17 187 -49 27 -14 56 -25 65 -25 19 0 20 42 0 79
-15 31 -17 31 -206 47 -82 7 -127 -11 -136 -56 -4 -24 -11 -30 -32 -30 -45 0
-73 -35 -65 -80 4 -20 -1 -28 -27 -40 -44 -20 -56 -42 -44 -77 25 -72 202
-102 402 -69 54 9 170 37 257 61 88 25 161 43 163 41 3 -2 0 -21 -6 -43 -29
-104 -2 -150 83 -141 24 3 57 12 73 20 l29 14 0 -51 c1 -73 16 -95 62 -95 47
0 165 49 312 129 104 56 125 64 215 77 55 8 118 20 140 26 22 6 112 14 200 18
88 4 168 11 178 15 37 16 13 25 -68 25 -47 0 -85 2 -85 5 0 3 5 14 12 24 20
33 -23 103 -102 161 l-68 51 68 102 c65 97 100 173 100 218 0 11 -11 31 -25
44 -21 22 -33 25 -92 25 -37 0 -108 -9 -158 -19 -49 -10 -91 -17 -93 -16 -1 1
4 31 13 66 22 94 20 174 -5 199 -36 36 -53 27 -140 -76 -39 -46 -75 -84 -79
-84 -4 0 -13 24 -20 53 -17 77 -49 136 -76 143 -33 8 -80 -20 -117 -71 -18
-24 -36 -44 -40 -45 -3 0 -11 14 -17 32 -6 17 -38 69 -72 115 -81 111 -113
183 -114 254 0 35 5 62 15 74 8 10 52 36 98 57 99 48 152 94 152 132 0 69 -46
96 -157 95 -43 0 -98 -6 -123 -13z"/>
<path d="M6572 2762 c-16 -10 9 -22 103 -48 106 -29 202 -79 225 -116 28 -46
25 -70 -15 -119 -45 -53 -58 -77 -51 -95 14 -37 59 -3 144 110 27 37 29 89 3
125 -26 36 -115 82 -221 114 -100 30 -170 41 -188 29z"/>
<path d="M6172 2072 c-45 -24 -101 -80 -108 -109 -14 -54 25 -73 50 -24 20 38
82 91 107 91 18 0 20 -5 17 -57 -2 -47 0 -58 14 -61 24 -5 40 33 42 95 1 43
-3 57 -18 69 -27 19 -64 18 -104 -4z"/>
<path d="M6973 1991 c-64 -50 -113 -109 -144 -169 l-24 -49 -170 5 c-152 4
-172 3 -184 -12 -24 -28 2 -36 129 -36 153 -1 252 -19 315 -59 67 -41 168 -62
192 -39 27 27 9 45 -52 51 -30 3 -70 14 -88 24 -85 50 -73 121 39 229 41 39
74 76 74 82 0 23 -39 11 -87 -27z"/>
</g>
</svg>
