<svg version="1.0" xmlns="http://www.w3.org/2000/svg"
 width="1040.000000pt" height="1041.000000pt" viewBox="0 0 1040.000000 1041.000000"
 preserveAspectRatio="xMidYMid meet">
<g transform="translate(0.000000,1041.000000) scale(0.100000,-0.100000)"
fill="#000000" stroke="none">
<path d="M3450 8579 c-228 -25 -486 -128 -732 -292 -389 -260 -863 -773 -1045
-1130 -60 -118 -54 -195 27 -356 124 -248 358 -478 545 -536 15 -5 -9 -20 -95
-64 -489 -245 -961 -700 -1272 -1223 -215 -363 -294 -680 -219 -878 60 -159
226 -276 474 -335 213 -51 473 -56 757 -15 210 31 430 98 430 132 0 15 -75 6
-270 -35 -221 -46 -327 -57 -534 -57 -240 0 -455 42 -576 113 -92 53 -177 167
-212 281 -29 97 -21 234 21 364 166 506 657 1104 1166 1421 369 229 740 354
1120 377 l90 6 34 -61 c73 -130 204 -240 343 -288 106 -37 166 -40 222 -14 25
13 50 20 55 16 18 -10 118 -167 169 -265 68 -129 143 -335 197 -540 43 -162
66 -220 86 -220 12 0 3 57 -33 215 -41 180 -64 259 -123 415 l-50 135 150 0
c127 0 162 4 229 23 102 29 237 99 299 154 l48 43 -30 150 c-72 359 -69 611
12 1028 28 146 35 168 52 172 153 28 207 51 282 119 78 71 117 156 121 267 3
61 -1 105 -13 146 -52 181 -228 350 -440 420 -70 23 -97 27 -215 27 -117 1
-144 -2 -205 -23 -38 -13 -82 -31 -97 -39 -15 -9 -29 -14 -31 -11 -2 2 -25 39
-51 81 -83 135 -211 229 -357 262 -88 19 -227 26 -329 15z m1644 -699 c28 -59
31 -74 31 -160 0 -84 -3 -101 -27 -145 -49 -93 -151 -169 -258 -194 -70 -16
-90 -12 -38 8 71 28 112 57 167 116 87 96 116 219 86 366 -9 46 -21 92 -26
103 -8 17 -6 16 12 -4 12 -14 36 -54 53 -90z m-814 -334 l22 -36 -26 -10 c-58
-22 -38 -78 22 -61 34 10 83 1 109 -20 8 -7 42 -27 76 -45 34 -17 61 -36 60
-42 -1 -5 -9 -68 -17 -138 -32 -269 -84 -433 -191 -594 -181 -273 -514 -367
-789 -222 -102 54 -175 130 -230 244 l-46 93 35 3 c28 3 36 8 41 29 6 21 -16
173 -42 304 -5 22 -2 27 23 32 88 20 63 53 -46 59 -94 5 -140 29 -182 97 -46
72 -36 164 23 205 32 22 104 20 143 -4 33 -21 66 -82 80 -150 17 -82 53 -116
111 -105 51 9 59 32 60 180 0 105 4 137 19 168 21 42 22 42 175 30 l84 -6 -42
-18 c-30 -13 -42 -24 -42 -39 0 -30 23 -34 82 -14 77 26 175 24 222 -4 30 -18
41 -20 53 -11 25 22 11 53 -37 77 -32 16 -38 22 -22 22 42 0 136 43 176 81
l41 38 16 -54 c9 -29 26 -70 39 -89z m-1014 -743 c-8 -8 -139 25 -194 48 -55
24 -54 26 82 120 l101 70 9 -116 c4 -64 5 -119 2 -122z"/>
<path d="M3846 7202 c-18 -56 91 -223 154 -237 49 -11 89 4 111 38 25 42 28
204 4 213 -32 13 -45 -15 -45 -96 0 -86 -12 -107 -54 -96 -32 8 -72 60 -101
133 -25 62 -57 82 -69 45z"/>
<path d="M4207 7183 c-2 -5 -4 -97 -5 -206 -1 -109 -4 -202 -7 -207 -4 -6 -21
-10 -39 -10 -30 0 -83 29 -148 81 -55 45 -66 -12 -13 -66 91 -91 228 -111 256
-38 6 16 11 62 12 104 l2 76 40 14 c58 20 89 80 89 174 1 68 0 70 -24 70 -21
0 -25 -5 -28 -30 -7 -90 -15 -119 -37 -141 -13 -13 -28 -24 -33 -24 -5 0 -12
28 -16 63 -11 102 -34 167 -49 140z"/>
<path d="M3682 6754 c-25 -45 46 -153 113 -170 42 -10 77 3 73 29 -2 17 -12
23 -41 28 -47 7 -72 31 -90 84 -15 43 -40 56 -55 29z"/>
<path d="M5608 7951 c-90 -33 -128 -56 -128 -77 0 -32 37 -27 228 33 87 27 95
61 16 68 -26 3 -65 -5 -116 -24z"/>
<path d="M5370 7668 c0 -27 112 -138 160 -158 27 -11 33 -11 40 0 18 29 -27
80 -134 152 -50 34 -66 35 -66 6z"/>
<path d="M9225 7612 c-38 -25 -124 -82 -190 -126 -136 -89 -223 -154 -269
-200 -79 -79 -211 -174 -383 -277 -240 -143 -322 -199 -382 -265 -53 -58 -91
-148 -91 -216 0 -21 -2 -38 -4 -38 -3 0 -41 12 -84 26 -50 16 -96 24 -123 22
-43 -3 -45 -5 -76 -63 -44 -83 -135 -313 -131 -334 4 -20 57 -46 168 -82 47
-15 86 -33 88 -41 1 -7 -15 -47 -36 -88 -27 -53 -44 -76 -59 -78 -11 -2 -62
13 -113 32 -123 48 -134 47 -164 -11 -51 -102 -166 -398 -166 -428 0 -24 38
-17 56 9 8 14 42 87 73 163 72 172 96 213 125 213 11 0 53 -9 91 -20 96 -27
130 -26 160 6 28 31 86 164 92 216 l5 36 -73 22 c-68 19 -179 59 -179 64 0 31
147 306 168 314 7 2 68 -12 135 -33 67 -20 146 -44 175 -53 30 -9 52 -21 52
-29 0 -20 -34 -84 -80 -149 -43 -61 -49 -96 -24 -132 21 -30 83 -29 149 2 65
30 155 113 186 170 24 46 39 58 39 33 0 -17 49 -39 150 -68 41 -12 92 -30 113
-41 37 -18 37 -19 23 -51 -47 -107 -230 -508 -298 -652 -89 -189 -138 -305
-138 -329 0 -21 11 -24 -385 106 -379 125 -538 167 -563 151 -34 -21 -25 -55
41 -143 l63 -85 210 -64 c115 -35 286 -88 379 -118 170 -55 267 -74 278 -56 4
6 -25 29 -63 51 -68 41 -177 87 -580 244 -305 119 -287 119 85 2 132 -42 288
-91 346 -109 58 -18 123 -37 143 -40 28 -6 41 -15 53 -39 18 -36 52 -76 66
-76 5 0 7 12 4 27 -9 47 349 878 416 968 15 20 16 20 25 -5 5 -14 7 -32 4 -40
-3 -8 -70 -154 -150 -325 -193 -415 -233 -510 -240 -559 -5 -36 -3 -39 10 -29
8 7 23 32 33 55 10 24 100 214 200 423 101 209 189 397 196 417 11 31 10 46
-5 100 -35 131 -66 196 -100 218 -44 27 -242 91 -287 93 l-35 2 14 36 c12 31
24 40 98 73 143 65 234 168 234 268 0 43 4 49 48 90 27 23 60 49 74 56 24 13
28 11 85 -46 33 -33 82 -75 109 -92 59 -39 28 -32 -71 15 -76 36 -93 30 -49
-16 41 -42 120 -79 172 -79 39 0 49 6 100 54 102 96 248 180 437 250 76 29
111 47 113 59 3 15 -2 17 -35 11 -81 -13 -187 96 -200 206 -8 68 -29 89 -126
124 -103 37 -117 49 -117 95 0 21 9 64 20 96 11 32 20 65 20 74 0 9 8 21 19
28 10 6 21 21 24 32 8 33 -20 25 -98 -27z m-414 -458 c54 -39 169 -161 169
-178 0 -6 -35 -28 -78 -48 -42 -20 -105 -59 -139 -87 -57 -47 -63 -55 -84
-127 -40 -136 -110 -209 -252 -265 -68 -26 -74 -31 -110 -91 -54 -88 -101
-143 -161 -187 -51 -38 -109 -64 -120 -54 -3 3 16 35 41 70 63 89 93 164 93
238 0 72 -11 95 -37 79 -11 -7 -19 -26 -21 -50 -4 -61 -9 -70 -30 -51 -10 9
-43 28 -74 42 -64 29 -64 30 -31 140 36 122 61 142 503 406 74 44 167 107 205
139 39 32 72 59 74 59 2 1 25 -15 52 -35z"/>
<path d="M3352 5918 c-7 -7 -12 -26 -12 -44 0 -66 95 -109 140 -64 26 26 25
60 -1 94 -17 21 -29 26 -68 26 -26 0 -52 -5 -59 -12z m70 -70 c-8 -8 -15 -8
-28 2 -15 13 -14 15 3 21 23 9 41 -7 25 -23z"/>
<path d="M3340 5770 c-7 -4 -10 -12 -6 -18 3 -6 0 -12 -6 -15 -10 -3 -10 -7 1
-20 17 -21 35 -22 51 -2 23 28 -10 74 -40 55z"/>
<path d="M5925 5562 c-170 -19 -334 -119 -430 -263 -28 -41 -50 -75 -51 -77 0
-1 -21 9 -45 22 -58 33 -158 56 -242 56 -308 1 -621 -215 -730 -504 -28 -74
-31 -92 -31 -206 -1 -143 18 -224 77 -321 23 -39 31 -61 26 -75 -11 -29 -9
-105 4 -141 48 -128 191 -206 286 -156 58 30 50 40 -37 44 -68 4 -84 8 -115
32 -41 31 -72 83 -82 139 -9 45 22 119 59 143 34 23 96 30 138 16 57 -19 76
-48 93 -141 9 -47 25 -114 37 -149 36 -110 122 -172 197 -141 57 23 65 101 29
287 l-22 114 61 57 c74 68 93 109 93 196 l0 66 63 -34 c149 -81 369 -126 662
-133 156 -4 225 -2 313 11 405 60 627 233 657 512 24 220 -133 413 -374 460
-72 15 -189 13 -248 -2 -18 -5 -23 -2 -23 12 0 56 -89 132 -185 159 -54 15
-133 22 -180 17z m220 -97 c53 -27 105 -80 105 -106 0 -16 -29 -9 -65 16 -128
86 -295 94 -477 21 -55 -22 -60 -23 -38 -5 39 31 135 78 193 94 31 9 86 14
138 12 73 -2 94 -6 144 -32z m430 -160 c128 -34 234 -123 275 -233 33 -86 25
-206 -18 -295 -40 -80 -121 -158 -218 -209 -108 -56 -126 -56 -42 1 92 62 157
132 195 209 24 49 28 69 28 142 -1 75 -4 93 -34 154 -38 78 -99 144 -162 176
-23 12 -83 33 -133 45 l-91 23 70 1 c39 1 97 -6 130 -14z"/>
<path d="M3135 5443 c-141 -11 -394 -59 -522 -97 -168 -51 -183 -60 -281 -160
-105 -107 -107 -113 -70 -228 l22 -68 -35 -36 c-18 -19 -70 -53 -113 -75 l-80
-40 -13 24 c-11 22 -18 24 -60 20 -269 -23 -364 -43 -558 -113 -160 -58 -212
-84 -220 -111 -4 -11 -5 -22 -3 -24 2 -2 28 6 58 17 375 141 564 181 685 144
45 -13 40 3 65 -209 28 -235 117 -421 238 -498 115 -73 211 6 187 154 -8 48
-33 107 -46 107 -5 0 -8 -42 -7 -92 3 -117 -16 -163 -26 -64 -3 36 -18 109
-31 163 -30 116 -30 123 -7 123 18 0 155 34 183 45 13 5 27 -29 78 -183 34
-104 78 -222 97 -263 26 -55 33 -78 26 -93 -9 -20 -9 -20 -21 1 -6 12 -43 109
-82 215 -88 240 -107 285 -125 292 -8 3 -14 -1 -14 -8 0 -7 33 -112 73 -232
77 -228 126 -340 154 -351 16 -6 341 42 618 92 72 13 177 31 235 40 58 9 112
21 121 26 9 4 40 45 70 91 29 46 58 86 63 89 13 10 0 96 -36 234 -40 154 -69
222 -100 230 -13 3 -74 0 -136 -8 l-114 -13 -28 62 c-35 77 -92 162 -98 146
-9 -29 55 -230 84 -261 11 -12 31 -11 136 2 67 8 126 13 130 10 20 -12 85
-224 88 -288 4 -61 2 -63 -52 -79 -114 -33 -654 -106 -780 -106 l-56 0 -35 73
c-147 310 -170 368 -155 383 13 14 22 14 74 0 98 -24 205 -37 253 -30 128 19
189 83 125 133 -49 38 -244 93 -295 82 l-34 -7 30 -16 c17 -9 65 -26 109 -38
99 -27 169 -57 162 -69 -16 -26 -179 -14 -316 24 -85 23 -96 20 -184 -46 -139
-105 -224 -135 -396 -141 l-85 -3 -11 75 c-6 41 -13 103 -16 138 -4 53 -2 62
13 62 25 0 169 75 210 109 20 17 68 77 107 133 39 57 85 118 104 135 64 62
229 98 412 91 95 -3 128 -10 115 -23 -3 -2 -72 -16 -154 -30 -170 -29 -294
-67 -327 -102 -12 -12 -19 -25 -16 -28 3 -3 42 6 87 20 120 38 202 54 322 61
112 7 189 0 172 -17 -5 -5 -94 -27 -196 -49 -231 -48 -323 -88 -285 -126 14
-14 25 -13 109 10 130 35 382 66 393 48 15 -25 -72 -60 -255 -101 -70 -17
-143 -38 -161 -48 l-33 -18 52 -3 c60 -3 262 36 348 69 63 23 125 75 125 104
0 26 -19 55 -37 55 -14 0 -13 4 5 23 12 13 22 31 22 39 0 23 -43 54 -83 62
-29 5 -33 10 -30 29 10 52 -63 77 -227 77 -127 -1 -237 -17 -317 -48 -44 -17
-53 -17 -57 -5 -18 47 2 61 179 128 111 42 354 86 552 101 153 11 152 12 211
-114 66 -140 99 -249 93 -308 -1 -6 -29 -19 -63 -29 -191 -54 -206 -65 -86
-65 99 1 214 21 235 42 14 14 13 22 -2 74 -25 85 -80 224 -136 341 -46 95 -51
103 -86 112 -35 10 -145 12 -238 4z m-802 -415 c12 -39 14 -55 5 -65 -6 -8
-14 -10 -18 -6 -12 13 -31 103 -25 114 12 19 22 8 38 -43z m1328 -986 c-5 -10
-16 -23 -23 -29 -7 -6 -150 -31 -318 -57 -168 -26 -359 -56 -424 -67 -115 -19
-140 -19 -120 0 5 5 153 35 329 66 176 31 372 66 435 79 63 13 119 24 123 25
4 0 3 -7 -2 -17z"/>
<path d="M8543 4794 c-35 -16 9 -74 55 -74 11 0 36 -7 57 -16 50 -21 100 -16
100 11 0 38 -166 100 -212 79z"/>
<path d="M8256 4675 c-20 -46 -33 -289 -17 -299 18 -11 38 10 44 47 3 17 13
74 22 126 19 109 14 161 -15 161 -13 0 -25 -12 -34 -35z"/>
<path d="M8432 4698 c-32 -32 87 -178 166 -202 41 -13 25 26 -48 111 -76 90
-101 108 -118 91z"/>
<path d="M5487 4363 c-14 -13 -7 -43 12 -53 30 -15 193 -51 209 -45 7 3 12 15
10 27 -3 20 -16 26 -108 50 -119 31 -114 30 -123 21z"/>
<path d="M5898 4323 c-40 -4 -63 -29 -48 -53 7 -11 24 -11 87 -4 74 9 78 10
78 34 0 22 -4 25 -40 26 -22 1 -57 -1 -77 -3z"/>
<path d="M6161 4306 c-17 -41 -37 -132 -66 -296 -62 -353 -149 -588 -262 -710
-75 -82 -138 -113 -238 -118 -130 -7 -248 31 -391 126 l-71 47 -6 92 c-9 125
-24 159 -77 173 -62 17 -322 9 -344 -9 -17 -14 -17 -16 0 -28 12 -9 56 -13
143 -13 161 0 197 -6 207 -34 4 -11 8 -173 8 -359 1 -288 3 -339 16 -347 8 -6
53 -7 100 -5 47 3 108 2 135 -2 l50 -8 -3 -190 c-3 -168 4 -271 24 -356 l6
-27 -469 -6 c-257 -3 -600 -8 -760 -9 l-293 -4 0 27 0 27 133 6 c145 6 195 18
229 54 18 19 20 28 12 50 -9 25 -60 60 -115 78 l-24 8 25 4 c110 17 160 36
204 77 75 68 62 99 -50 119 l-67 13 40 12 c22 7 52 22 67 33 60 47 4 109 -97
109 l-48 0 27 23 c33 29 28 67 -11 85 -45 21 -220 8 -328 -24 -18 -6 -19 6
-15 258 2 188 7 269 16 285 18 33 99 53 235 60 96 5 121 3 128 -8 5 -8 9 -51
9 -96 0 -117 -7 -113 210 -113 98 0 190 4 204 10 25 9 26 13 26 92 0 95 -21
191 -35 168 -6 -8 -12 -58 -15 -110 l-5 -95 -120 -7 c-66 -4 -138 -5 -161 -2
l-41 5 -7 86 c-6 87 -22 123 -52 123 -18 0 -64 22 -64 30 0 4 10 10 22 14 16
4 20 8 12 16 -16 16 -399 25 -452 11 -55 -15 -62 -34 -62 -159 0 -53 -3 -120
-6 -148 l-7 -52 -90 -21 c-285 -66 -881 -367 -1192 -601 -193 -145 -337 -314
-366 -427 l-11 -42 -349 -3 c-268 -2 -351 -6 -361 -16 -10 -10 -10 -14 0 -21
11 -7 404 -23 628 -25 l72 -1 6 -43 c16 -121 115 -206 281 -243 36 -8 115 -13
195 -13 111 1 152 6 232 27 120 32 243 89 326 152 84 63 112 102 112 151 l-1
39 -20 -38 c-23 -43 -38 -52 -74 -43 -23 6 -25 11 -25 61 0 51 2 55 26 61 15
4 78 -1 140 -11 96 -15 127 -16 202 -6 90 11 171 34 231 66 18 9 34 15 36 13
1 -2 5 -22 8 -45 l5 -42 -62 -5 c-33 -3 -97 -8 -141 -11 -44 -4 -120 -14 -170
-24 l-90 -18 90 -8 c50 -4 225 -5 390 -2 1432 28 3154 32 5100 11 350 -4 569
-2 585 4 l25 9 -34 18 c-46 23 -219 34 -553 35 -154 0 -269 4 -273 9 -3 6 -9
41 -14 78 -5 39 -20 91 -34 120 -37 73 -140 197 -216 261 -211 176 -588 371
-883 456 l-83 24 -11 298 c-10 287 -15 334 -35 334 -6 0 -9 -195 -9 -482 l1
-481 -68 -18 c-108 -28 -240 -79 -291 -113 -50 -33 -66 -72 -41 -102 10 -13 6
-20 -24 -45 -29 -24 -37 -38 -37 -64 0 -19 5 -37 10 -40 6 -3 10 -17 10 -30 0
-64 47 -103 135 -112 30 -3 55 -9 55 -12 1 -17 21 -34 56 -46 35 -13 0 -14
-311 -15 l-350 0 -1 215 c0 119 -5 220 -10 225 -5 5 -71 13 -147 18 -76 5
-141 13 -145 17 -11 10 -15 355 -7 583 l7 203 306 -2 c282 -1 307 1 319 17 15
20 17 42 18 179 l0 100 50 7 c28 3 115 9 195 13 80 3 177 11 215 17 60 9 67
12 48 21 -13 5 -23 14 -23 18 0 5 -14 24 -31 44 -25 28 -29 38 -20 49 7 8 8
16 4 19 -16 9 -511 30 -556 23 -66 -10 -70 -21 -68 -205 2 -149 11 -199 32
-185 7 4 9 -7 7 -27 l-3 -34 -263 4 c-198 2 -266 0 -277 -9 -12 -10 -15 -37
-15 -116 l0 -104 -55 0 c-30 0 -55 2 -55 4 0 2 11 24 25 49 96 171 231 766
206 902 l-8 40 -12 -29z m-2471 -1081 c0 -33 -2 -35 -34 -35 -51 0 -248 -52
-366 -98 -145 -55 -156 -58 -70 -16 102 49 417 173 468 183 1 1 2 -15 2 -34z
m3787 -154 c65 -21 183 -69 263 -105 156 -71 212 -106 90 -56 -100 41 -327
114 -422 135 -71 15 -78 19 -78 41 0 14 6 24 15 24 8 0 67 -17 132 -39z
m-3789 -157 c2 -39 2 -39 -54 -63 -53 -23 -90 -59 -82 -80 1 -6 39 5 83 24
112 49 192 73 323 96 122 20 192 24 192 10 0 -5 -84 -36 -187 -69 -178 -58
-233 -82 -233 -101 0 -21 38 -18 142 9 171 45 398 62 398 30 0 -8 -49 -28
-120 -49 -19 -6 -96 -22 -170 -36 -74 -15 -155 -36 -180 -48 l-44 -21 32 -8
c21 -6 70 -3 136 7 152 22 386 19 386 -5 0 -12 -143 -47 -265 -65 -150 -22
-216 -35 -236 -48 -16 -10 -15 -13 14 -25 18 -7 82 -22 142 -32 119 -21 172
-34 195 -50 48 -32 -93 -35 -338 -9 l-93 10 -92 -45 c-132 -65 -204 -80 -352
-71 -189 12 -209 10 -250 -14 -21 -12 -40 -19 -44 -16 -10 11 -5 218 7 260 11
40 12 40 89 58 85 19 190 64 233 101 16 13 62 61 104 107 84 94 160 158 209
176 45 16 52 12 55 -33z m3880 -149 c155 -49 245 -92 269 -129 48 -74 76 -222
54 -288 l-11 -34 -68 22 c-111 38 -156 39 -309 10 -76 -14 -174 -30 -218 -35
-81 -10 -175 -5 -175 9 0 7 71 40 120 55 14 5 66 13 115 19 66 9 90 15 90 26
0 30 -50 34 -192 15 -225 -31 -398 -23 -306 13 25 10 219 53 392 86 70 13 87
29 48 47 -19 9 -63 3 -218 -27 -232 -45 -268 -49 -281 -36 -7 7 4 18 34 35 58
33 87 42 298 87 100 21 184 41 186 43 3 3 -3 12 -12 22 -22 21 -65 17 -245
-25 -126 -30 -199 -38 -199 -21 0 4 30 22 68 39 93 43 115 51 217 78 115 31
222 28 343 -11z m327 -51 c91 -21 194 -96 232 -167 26 -51 5 -42 -54 22 -43
46 -82 74 -153 112 -52 27 -86 48 -75 45 11 -3 34 -8 50 -12z m-4896 -88 c15
-18 11 -20 -84 -41 -44 -10 -122 -33 -173 -51 -51 -18 -89 -27 -83 -20 18 22
162 85 241 105 92 24 85 24 99 7z m4771 -317 c52 -7 96 -13 98 -15 2 -1 0 -13
-4 -28 l-6 -26 -162 1 c-88 1 -204 4 -256 8 -94 6 -95 6 -42 14 30 4 88 19
130 32 82 25 121 34 137 30 6 -2 53 -9 105 -16z"/>
<path d="M5774 4135 c-9 -23 0 -69 40 -205 24 -80 38 -148 39 -190 l2 -65 -37
1 c-20 1 -69 17 -109 37 -40 20 -75 35 -77 32 -3 -3 13 -22 35 -44 104 -98
234 -111 256 -24 5 22 -6 136 -19 196 -5 22 -2 27 15 27 41 0 73 122 35 137
-15 6 -64 -39 -64 -59 0 -4 -4 -8 -8 -8 -4 0 -18 35 -31 77 -12 43 -27 83 -33
90 -14 18 -37 16 -44 -2z"/>
<path d="M5632 4077 c-42 -45 -37 -127 8 -127 28 0 50 38 50 87 0 55 -27 74
-58 40z"/>
<path d="M830 3768 c-47 -63 -67 -107 -89 -189 -16 -61 -17 -76 -6 -88 18 -19
32 -7 39 34 10 53 42 122 81 175 38 51 44 80 21 100 -12 9 -21 4 -46 -32z"/>
<path d="M5447 3633 c-11 -10 -8 -52 4 -76 35 -68 125 -115 157 -83 13 12 13
18 2 30 -7 9 -20 16 -30 16 -29 0 -69 39 -81 81 -11 37 -34 51 -52 32z"/>
<path d="M6706 3321 c-3 -5 1 -14 9 -21 9 -7 45 -52 82 -99 93 -121 143 -171
170 -171 29 0 30 25 3 42 -11 7 -68 68 -126 136 -99 114 -125 135 -138 113z"/>
<path d="M4880 2547 c0 -7 -18 -31 -40 -52 -39 -38 -50 -68 -30 -80 12 -8 97
71 106 97 6 19 -11 48 -27 48 -5 0 -9 -6 -9 -13z"/>
</g>
</svg>
