<svg version="1.0" xmlns="http://www.w3.org/2000/svg" width="693.333" height="693.333" viewBox="0 0 520 520"><path d="M273.5 36.5c-17.6 3.2-35.5 15.4-46.7 31.7-2.1 3.2-4.1 5.8-4.3 5.8-.5 0 1.1-5.4 2.4-7.8 1.4-2.7 1.4-3.2-.3-3.2-1.6 0-4.6 5.8-4.6 8.9 0 2.5.3 2.5-4.5.1-4.2-2.1-7.8-2.4-11-.9-1.7.8-1.5.8.7.4 3-.6 8.6 1.3 10.5 3.6 1 1.2.1 1.5-6.2 1.5-13.2.1-24.5 7.6-30.3 20.3-3.6 7.6-3.8 20.1-.4 27.6 3.3 7.3 6.8 12 11.3 15l3.9 2.7-2.4 2.9c-3.1 3.7-4 7.8-2.7 12.6 1.6 5.7 4.5 9.9 9.1 13 3.5 2.3 5.3 2.7 11.2 2.7 4.8.1 7.2-.3 7.5-1.2.3-.8-1-1.2-4.9-1.2-12.7-.1-22.5-10.3-19.7-20.5 1.6-5.7 8.2-7.4 13.2-3.5 1.4 1.1 3.5 2 4.6 2 2 0 2.1-.5 2.1-9.8 0-16.4 3.2-25.4 10.6-30.4l4.1-2.7 6.2 2.5c3.5 1.4 11.3 3.5 17.4 4.6 6.2 1.1 12.1 2.4 13.2 2.8 1.9.7 1.9.7-.2 1.8-1.7.9-2.8.9-4.8 0s-2.8-.9-3.8.1c-.9 1-.7 1.6 1.2 3.2 3.3 2.7 6.1 2.4 11.7-1.6 4.4-3.1 5.6-3.5 11.4-3.5 13.7-.1 28.3-5.1 37.1-12.9 2.5-2.2 6.1-6.8 8-10.3 3.3-6.2 3.4-6.5 3.4-18.3 0-11.3-.2-12.3-3-17.8-5.5-11.1-17.2-18.5-32.3-20.7-8.3-1.2-9.9-1.1-18.7.5m26.9 5.4c12.6 4.4 18.5 9.8 22.6 20.7 3.3 9 2.1 24-2.5 29.9-.8 1.1-.5-.2.7-3 3.4-7.6 3.2-21-.3-28.6-6.3-13.5-18.5-19.8-38.9-20-6.9-.1-8.7-.4-6.5-1 4.8-1.3 18.7-.2 24.9 2m-98.5 40.4c-8.1 2.8-13.2 6.5-17 12.5-1.6 2.5-2.9 4.2-2.9 3.8 0-1.9 4.4-7.8 8.6-11.5 4.6-4.1 10.9-6.9 15.4-7 1.4 0-.5 1-4.1 2.2m-20.7 26.4c-.3 7.1 0 9.8 1.6 14 1.1 2.9 1.6 5.1 1.2 4.8-1.6-1-4.2-10.5-4.2-15.7-.1-4.6.9-11.8 1.6-11.8.1 0 0 3.9-.2 8.7m198.8-70c-7.4 1.4-2 1.9 14.7 1.5 10.4-.2 25.3.1 33.2.7 8.1.7 14.8.8 15.3.3 1.9-1.9-54-4.1-63.2-2.5m-4.9 26c-.2 20.8.4 30.3 1.8 30.3 1.2 0 .7-51.3-.5-51.7-.8-.3-1.2 5.9-1.3 21.4m70.2-17c-1 3.3-.9 18.3.1 35l.7 12.2-5.3 1.6c-2.9.9-11.3 2.3-18.6 3.2-13.2 1.7-21 1.4-41.2-1.2-2.7-.3-2.2 0 2 1.4 4.5 1.5 5.1 1.9 3 2.3-5.5.9 8.4 2.8 20.3 2.8 16.1 0 31.6-2.4 41-6.2l2.9-1.1-.7-24.1c-.3-13.3-.8-25.1-1.1-26.4-.6-3-2.2-2.8-3.1.5M393 55.5c-1.6 1.9-.5 4.7 1.7 4.3 1.1-.2 1.8-1.2 1.8-2.7 0-2.9-1.7-3.7-3.5-1.6m23.5-.7c-18.1.4-18.8 2.2-.8 2.2 7.8 0 14.4-.4 14.8-.9.9-1.5-.3-1.6-14-1.3m-24.1 12.7c-.4.9-.2 2.1.4 2.7 1.5 1.5 4.4.1 4-1.9-.4-2.3-3.6-2.9-4.4-.8"/><path d="M412.3 66.7c-4.6.2-8.3.8-8.3 1.3 0 1.1 14.8 1.4 17.4.4 1.5-.6 1.3-2.6-.2-2.2-.4.1-4.4.4-8.9.5M393 77.5c-1.6 1.9-.5 4.7 1.7 4.3s2.9-4.3.9-5.1c-.8-.3-2 .1-2.6.8m20.5 1.4c-8.8.5-10.2.7-7 1.3 4.8.9 17.7 1 19.9.2 1.8-.7 1.2-2.5-.7-2.2-.7.1-6.1.4-12.2.7m-42.6 30.2c-1.6 3.1-.4 5.1 2.8 4.7 2.2-.2 2.8-.8 2.8-2.7 0-3.4-4-4.8-5.6-2m-77.7 40.1c.6 38 .2 41.2-6.2 53.9-2.2 4.5-3.9 8.4-3.6 8.6 2.1 2.1 7.3-6.3 11.2-17.7 2.1-6.4 2.2-12.7.9-51.8-.5-15.9-1.2-26.2-1.8-26.2s-.8 11.8-.5 33.2M104 119.1c-4.1 1.1-13.3 3.8-20.5 6-7.1 2.3-17 5-21.9 6-9 1.8-10.4 2.4-9.3 3.5 1 1.1 15.8-2.2 34.2-7.6 9.4-2.7 18.9-5.4 21.2-6 4.2-1 6.1-2.4 4.6-3.3-.5-.3-4.2.4-8.3 1.4m255.1 1.9c-1.9 1.1-.9 4.5 1.4 4.5 1.3 0 2.1-.8 2.3-2.1.3-2.3-1.7-3.7-3.7-2.4M119 122.1c0 .8 2 7.1 4.4 14 3.8 10.6 5.2 16.3 8.2 31.8.4 1.7.8 2.1 1.6 1.3 1.7-1.7-1.4-15.9-7.2-32.4-4.8-13.5-7-18.2-7-14.7m117.4 2.8c-7.1 1.8-13.2 7.7-10.6 10.3.8.8 2.1.2 5.1-2.5 2.8-2.5 5.3-3.8 8.6-4.2 3.5-.6 4.5-1.1 4.3-2.4-.4-1.8-2.9-2.3-7.4-1.2m62.8 7.7c-1.2.8-2.2 2.2-2.2 3 0 1.9.7 1.8 3.7-.6 1.4-1.1 3-2 3.4-2 2.4 0 4.9 4.2 4.9 8.2 0 5.4-4 14.1-7.4 16.3-3.3 2.2-3.3 3.5-.2 3.5 4.6 0 10.6-10.8 10.6-19.2 0-9-6.5-13.7-12.8-9.2m-26.7 1.4c-.3.6-.2 2.5.4 4.3 1 3.2 1.5 7.7 1.3 11-.3 3.5-4.5 1.5-8-3.8-1.9-2.8-3.8-5.2-4.3-5.3-1.7-.6-.9 4.3 1.2 7.3 3 4.4 7.5 13.6 8.3 16.8.4 1.6.4 3.8 0 4.9-.6 1.9-1.2 2-6.5 1.4-4.6-.4-5.9-.3-5.9.8 0 1.7 3.1 2.6 8.7 2.6 8.3 0 9.4-5.2 3.8-18.3-.5-1.3-.2-1.7 1.3-1.7 4.7 0 6.5-7.8 3.9-16.4-1.2-4-3-5.6-4.2-3.6m-223.1 9.2c.1 2.9 1.5 8.4 3 12.3 1.6 3.8 3.9 11.4 5.2 17 3.9 16.2 4.5 18.1 6.6 21.5 1.9 3.2 2 3.2 8.1 2.8 5.3-.4 38.3-9.5 52.2-14.4l4-1.4-4.5.5c-2.5.2-5.6.7-7 1s-.5-.2 2-1 7.4-2.1 11-2.8c5.8-1 6.1-1.2 2.8-1.5-4.7-.4-15.8 2.3-37.8 9.1-9.6 3-19.2 5.7-21.3 6-5.6.9-7.8-1.8-10.1-11.8C58.8 159.3 52 138 50 138c-.5 0-.8 2.4-.6 5.2m63.1 40.8c-1.1.5-2.7.9-3.5.9-.9 0-.8-.4.5-.9 1.1-.5 2.7-.9 3.5-.9.9 0 .8.4-.5.9M250 142.2c0 .6.7 3.5 1.6 6.4 1.9 5.9 1.4 8.4-1.6 8.4-3.6 0-5.9-1.9-9.1-7.5-3.4-6.1-4.9-7.5-4.9-4.8 0 2.6 5.6 11.9 8.2 13.7 3 2.2 8.1 2 10.1-.2 2.2-2.4 2.1-7.7-.3-13-1.8-3.9-4-5.6-4-3"/><path d="M72.1 152.1c-1.7 2.4-3.1 4.6-3.1 4.9 0 1.6 4 4.1 7.4 4.7 2.9.4 3.6.2 3.6-1.1 0-.9-.8-1.6-1.9-1.6s-2.2-.4-2.6-.9c-.5-.9 3.5-2.3 15.8-5.5 6.1-1.6 7.7-2.3 7.7-3.4 0-.4-5.1.5-11.2 2-13.6 3.3-13.1 3.3-11.7.7.7-1.4.7-2.5.1-3.1s-2.1.6-4.1 3.3m31.6 3.6c-1.2 1.2-.7 2 2 3.2 2.4 1.1 2.6 1.4 1 2.2-.9.6-6.3 2.4-11.9 4.1-9.7 2.9-14 4.8-10.7 4.8.7 0 5.7-1.1 10.9-2.5 11.2-2.9 11.4-2.9 10.7-1-1.1 2.8 1.5 2.7 3.8-.1 3.9-4.8 3.8-6.2-.6-8.9-4.3-2.8-4.3-2.8-5.2-1.8m242.3-.1c-4.3 1.4-9 3.8-9 4.6 0 1.2 1.8 1 5.1-.8 1.7-.8 4.2-1.4 5.7-1.2 2.2.2 2.8.9 3 3.3s-.7 4.2-4.4 8.5c-2.5 2.9-5 6.5-5.5 7.8-1.2 3.2-.2 6.2 2.1 6.2 1.6 0 1.8-.5 1.3-3.5s0-4 4.2-8.7c4.4-4.9 6.5-8.4 6.5-10.9 0-1.5-4.7-5.9-6.2-5.8-.7 0-2 .3-2.8.5m59 10.4c0 1.8 10.7 4.3 42.2 10 18.3 3.3 19.8 3.4 19.8 2s-5.5-2.6-23.9-5.5c-9.1-1.4-21.1-3.7-26.6-5-11.3-2.8-11.5-2.9-11.5-1.5m-4.2 2.6c-.5.4-.8 1.5-.8 2.4 0 1-.6 2.3-1.4 2.9-.8.7-1.5 4.4-1.9 9.8-.4 4.9-1.9 13.7-3.3 19.8-4.9 20.8-4.6 24.6 1.9 27.5 2.3 1 15.5 3.7 29.2 6 13.8 2.3 26.1 4.3 27.5 4.6 5 1-.7-1.6-6.7-3-3.2-.8-5-1.5-4-1.5 1-.1 5.5.8 9.9 1.9 4.4 1.2 8.5 1.9 9.2 1.7 2.6-1-14.5-5-36.5-8.7-13.1-2.1-25.1-4.6-26.8-5.5-3.9-2-4-4.6-.7-18.5 1.4-5.5 3.2-14.7 4.1-20.4 1.6-10.1 1.7-20.5.3-19m31.5 67.1c-.7.2-1.9.2-2.5 0-.7-.3-.2-.5 1.2-.5s1.9.2 1.3.5m6 1c-.7.2-2.1.2-3 0-1-.3-.4-.5 1.2-.5 1.7 0 2.4.2 1.8.5M218 180.4c0 2.2 10.6 21.9 14.3 26.6 4.1 5.2 10.9 10.1 12.2 8.8.4-.3-2.7-3.9-6.8-8-5.7-5.7-8.3-9.2-11.6-16-3.7-7.5-8.1-13.7-8.1-11.4m-72.6 3.1c-.7 1.8 1.2 4.5 3.2 4.5 1.6 0 3.7-3.7 2.9-5-1-1.6-5.5-1.2-6.1.5m117.3 2.2c-1.2 1.2-.7 4.1.7 4.6 1.9.7 4-1.8 3.2-3.8-.6-1.5-2.8-2-3.9-.8"/><path d="M414.1 189.7c-2.9 10.9-4.5 22.9-3.2 23.8 1.1.6 1.3-.1 3.1-11.8.6-4.3 1.6-9.1 2.1-10.7 1-2.6 1.3-2.8 4.2-1.9 1.8.5 8.4 1.8 14.7 2.9 6.3 1 13.1 2.2 15 2.6 2.5.5 3.2.3 2.5-.4-.5-.6-7.4-2.2-15.2-3.7-7.8-1.4-15.4-3-16.8-3.5-4.3-1.6-5.4-1.2-6.4 2.7m55.3-1c-.4 1.6-1.5 5.9-2.5 9.8-3.8 14.4-6.1 35.7-3.9 37 .6.4 1-1 1-3.4 0-6.3 2.8-23.5 5.5-34 1.4-5.2 2.5-10.1 2.5-10.8 0-2.4-2-1.3-2.6 1.4m-200.5 3c-9.7 4.8-14.8 10.2-20.6 21.5-5.3 10.5-5 7.3-4.2 42.8.3 10.9 0 17.1-1 20.8-1.6 6.5-.8 7.9 1.6 2.6 1.6-3.4 1.8-7.2 1.8-29.9v-26l4.6-9c3-5.8 6.3-10.6 9.2-13.2 4.5-4.2 16.4-10.9 17.4-9.9.3.3-2.4 3.6-5.9 7.3-7.1 7.4-9.8 11.7-9.8 15.8 0 3.2 2.3 2.9 2.8-.4.2-1.2 3.6-5.4 7.6-9.4 5.6-5.5 7.5-8.2 8-11 1.3-6.9-.9-7.3-11.5-2m77.1-1.2c-1 1.2-1 1.5.3 1.5 1.9 0 3.1-1.6 1.8-2.4-.5-.3-1.4.1-2.1.9m-186.3 2.1c-1.4 1.4-.7 3.5 1.1 3.2.9-.2 1.7-1 1.7-1.7 0-1.6-1.8-2.5-2.8-1.5"/><path d="M420.2 197.2c2.6 3.8 16.8 12.8 20.2 12.8 3.2 0 12.2-4.6 14.5-7.4 2-2.4.2-1.9-7.1 1.9-7.9 4.2-8.7 4.1-19.5-4.1-7.8-5.8-10.5-6.9-8.1-3.2"/><path d="M453.7 207.7c-.3.4-.8 2.6-1.2 4.8-1.4 8.7-1.2 8.5-5.3 8.5-2 0-9.3-1.4-16.2-3-13.3-3.2-17-3.6-17-2 0 .5 1 1 2.1 1 1.2 0 8 1.4 15.1 3.1 7.2 1.6 14.9 2.9 17.2 2.7l4.1-.3 1.2-7.4c1.2-7 1.2-9.3 0-7.4m-184.8 6.4c-2.1 1.8-2.1 2-.4 1.4 6.9-2.5 10.8-1.7 13.5 2.8 2.7 4.4 2.5 5.2-.6 2.8-3.2-2.5-9.1-3.8-10.7-2.2-.8.8-.5 1.1 1.1 1.1 3.9 0 8.2 2.9 11.3 7.8 4.3 6.7 3.6 8.1-1.6 3.3-2.8-2.5-5.4-4.1-7-4.1-3.2 0-3.2 1.8 0 2.6 1.4.3 3.7 2 5.1 3.8 1.5 1.7 3.5 3.7 4.6 4.4 6.9 4.9 6.3-14.9-.7-22.4-2.8-2.9-3.9-3.4-7.8-3.4-3.1 0-5.2.6-6.8 2.1m-110.2 15.6c-1.4 1.4-.6 1.8 3.9 1.9 3.2.1 5.2.7 6.6 2.2 2 2 2 2.2.5 4.6-1 1.5-4 3.3-7.8 4.7-3.3 1.2-7.1 3.1-8.5 4.1-2.7 2.2-3.3 6.8-.9 6.8.8 0 1.5-.8 1.5-1.8 0-2.7 2.7-4.7 9.4-7.3 9.5-3.5 12.9-8.6 8.5-12.7-2.8-2.7-11.5-4.3-13.2-2.5m216.3 2.8c-1.8 2.2-.8 5 1.9 5 3.2 0 4.9-2.8 3.2-4.9-1.7-2-3.5-2-5.1-.1m3 1.9c0 .3-.4.8-1 1.1-.5.3-1 .1-1-.4 0-.6.5-1.1 1-1.1.6 0 1 .2 1 .4m-102 4.5c0 .5 1.1 1.6 2.4 2.5 1.4.8 2.7 2.5 3.1 3.6.7 2.4 3.5 2.7 3.5.4 0-.8-1.3-2.9-2.9-4.5-2.8-2.8-6.1-3.9-6.1-2m86 2.7c-.9 1-1 1.8-.2 2.6 1.2 1.2 3.2.2 3.2-1.7 0-2.1-1.6-2.6-3-.9m-137.7 4c-22.7 11-49.8 62.3-59.7 113-7.4 38-4.9 57.6 8.4 67.3 11.3 8.1 25.2 5.7 38.3-6.8 9-8.4 39.3-54.9 53.3-81.6 5.8-10.9 6.4-11.7 6.4-8.4 0 6.8-1.2 12.9-2.6 12.9-.8 0-1.4-.7-1.4-1.6s-.6-1.4-1.2-1.2c-1.4.5-3.2 9.7-4.3 21.8l-.7 7.6 4.1-.4c3.8-.4 4.1-.6 4.7-4.1.9-5.7 1.2-6.1 4-6.1h2.6l-.8 7.7c-.6 7.3-.6 7.7 1 6.4 2.9-2.4 12-5.1 12.8-3.8.4.7 1.1 0 1.8-1.8 1.7-4.3.6-23.1-3.1-51.4-1.6-12.9-3.2-27.5-3.6-32.5-.8-13.2-2.2-14.1-2.3-1.4 0 9.9-.2 10.8-2.2 12.3-2.1 1.4-2.3 1.4-3-.2-.3-1-.7-5.4-.7-9.8-.1-5.6-.4-7.5-1.1-6.5-.5.8-1 2.9-1 4.7 0 3.5-1.7 5.3-3.1 3.2-.5-.9-.9 1.6-.9 6.5 0 6.2-.3 7.7-1.2 6.8-1.7-1.7-3.1-1.5-2.4.4.6 1.5.4 1.5-1.6.1-1.9-1.2-2.3-2.3-2.2-6.6.2-5-.9-6.8-2-3.4-.3 1-.7 5.3-.8 9.5-.1 4.3-.5 7.8-.8 7.8-1.1 0-14.8-14.6-20.3-21.7-6.8-8.6-7.7-9.3-7.7-5.8 0 1.5-1.4 4.7-3.1 7.2-1.8 2.5-7.8 13.9-13.6 25.4-5.7 11.5-12.4 23.8-14.8 27.5-4.6 6.8-5.3 8.4-3.5 8.4 3.1 0 8.1-8.3 24.4-40.8 6.5-12.7 12.1-23.2 12.4-23.2.4.1 3 3 5.7 6.6 7.8 10.3 19.5 20.8 26.4 24.1 5.9 2.7 6.1 2.9 6.1 6.7 0 2.8-.6 4.3-2.4 5.7-1.3 1-5 6.5-8.2 12.1-20.3 36.1-42.9 70.2-52.1 78.9-15.9 15-33.4 13-41.5-4.6-3.6-8-3.7-25.6-.4-45 3.2-18.4 7.2-33.9 12.1-47.1 5.2-13.8 16.2-36.4 22.6-45.9 7.7-11.6 19.9-23.4 28.9-27.9 7.3-3.6 7.3-3.6 3.4-3.6-2.2.1-6.2 1.2-9.1 2.6m50.7 53.6c0 .7.3 2.4.7 3.8.6 2.5.6 2.5-1.5.6-2.5-2.2-2.9-5.6-.7-5.6.8 0 1.5.6 1.5 1.2m10.3 16.9c.7 5.1.6 5.5-2 7.8l-2.8 2.4-.7-3.9c-1.3-7.2-1-11.2 1-11.7 3.1-.8 3.7-.1 4.5 5.4m-8.5 5.6c-.2 4.6-.7 5.9-2 6.1-1.6.3-1.8-.5-1.8-5.7 0-5.5.2-6.1 2-6.1 1.9 0 2.1.5 1.8 5.7m10 9.4c-.3 3.6-.8 4.6-3.5 6.2l-3.3 1.9v-5.4c0-4.8.3-5.5 2.8-7 3.5-2.1 4.4-1.1 4 4.3m1.2 12.3c0 4.8-.3 5.7-3.1 8-4.2 3.6-5.9 3.4-5.9-.8 0-6.6 1.1-9.3 4.3-10.9 1.8-.9 3.5-1.6 4-1.6.4-.1.7 2.3.7 5.3m-11.2 5.6c-.5 6.7-.4 6.5-3.7 7.5-2.4.7-2.4.7-1.8-5.5.5-6.1 1.6-8 4.6-8 1 0 1.2 1.4.9 6m-7.2-2.8c-.3 1.3-.6 3.6-.6 5.3 0 3.8-1.2 5.7-3.2 5-1.2-.5-1.4-1.5-.7-5.3 1.2-6.4 1.6-7.2 3.5-7.2 1.2 0 1.5.6 1 2.2"/><path d="M294.3 246c-1.2.5-2.6 1.8-3.2 2.9-1.8 3.2-1.3 3.6 1.3 1.2 3.2-3 6.3-2.3 12.9 2.7 5.4 4.1 17.2 17.8 22.5 26.1 11.5 17.9 25.1 50.6 31.7 76 5.8 22.3 7 46.8 2.9 59-2.4 7.1-7.6 12.5-13.4 14.1-9.6 2.6-31.9-.7-55.5-8.3-22.9-7.4-32.6-9.2-36.4-6.8-1.1.7-.3 1.2 3 2.1 16.1 4.1 24.3 6.5 31.4 9.1 11.9 4.4 28.9 8.6 38.1 9.4 9 .8 20.8-1.2 26.1-4.5 8.3-5 11.5-13.6 12.1-32.5.7-23.4-4.3-46.2-17.3-78.6-11.5-28.7-22.7-47.7-36.5-61.9-8.5-8.7-14.7-11.9-19.7-10m-22.6 12.3c-.5 9.9-2.1 15-6.3 20.4-1.4 1.9-2.4 3.9-2.2 4.5.5 1.5 5.4-3.7 7.7-8.2 3.3-6.3 5.2-19.9 3.5-24.4-1.3-3.5-2.1-1.2-2.7 7.7m-120.8 3.3c-1.2 1.4-1.1 1.6.5 1.3 1.1-.2 2.1-1 2.4-1.7.5-1.7-1.3-1.5-2.9.4"/><path d="M289 264.4c0 .3 1.4 1.3 3.1 2.1 5.2 2.7 10.8 8.5 11.8 12.3.9 2.9.6 4.9-1.4 10.9-1.4 4-2.5 8.3-2.5 9.4s1.6 4.9 3.5 8.3c4 7.2 4.3 9.7 1.5 14.9-2.3 4.3-2.5 5.8-.7 5.1 2.1-.8 5.7-7.8 5.7-11 0-1.5-1.5-5.5-3.4-9-1.9-3.4-3.6-7-3.7-8-.2-1.1.7-4.7 2-8.2 4-10.6 2-17.6-6.5-23.4-3.9-2.6-9.4-4.6-9.4-3.4m30 84.1c0 .3.8 2 1.7 3.8s2.2 6.1 2.8 9.6c.6 3.8 1.7 6.7 2.4 6.9 2.1.7.6-10.3-2.2-15.8-1.9-3.8-4.7-6.5-4.7-4.5m-70.3 25.2c-1.6 1.6-.1 2 8.6 2.6 5 .3 16.4 1.8 25.2 3.3 18.7 3.1 41.9 3.9 44.8 1.5 1.8-1.4 2.4-3.6.7-2.6-.5.3-3.5 1-6.5 1.5-6.5 1.1-15.7.2-40.9-4-16.9-2.8-30.5-3.8-31.9-2.3m10.1 7c-.5.6-1.5 4.6-2.3 8.8-.8 4.3-1.7 8-2 8.3-.2.3-3.1-.5-6.2-1.7-7.4-2.9-10.3-3.6-10.3-2.4 0 .5 1.6 1.7 3.5 2.6 3 1.4 3.5 2.2 3.5 5.2 0 2.6-.3 3.3-1.5 2.9-1.8-.7-1.8 0-.3 6.5 2.2 9.5 7.1 10.2 10.9 1.6 3.2-7.2 7.4-36.1 4.7-31.8m4.9 45.3c-.4 3-.7 7.9-.7 10.7 0 4-.4 5.3-1.5 5.3-.8 0-1.5.4-1.5 1 0 .5.7 1 1.5 1 1 0 1.5 1 1.5 2.9 0 1.5.3 4.8.6 7.3.6 4 .4 4.6-1.4 5-2.8.8-3.1-.4-4.1-16.5-1.1-17.5-3.1-20.8-3.1-5.2 0 17.8 3.7 37.5 8 42.7 1.9 2.3 1.9 2.3 2 .2 0-1.2-.7-3.8-1.6-5.9-.8-2-1.3-3.9-1.1-4.1.9-.9 5.7 1.6 5.7 3 0 .8.5 2.7 1.1 4.3.7 2 1.2 2.4 1.8 1.4.7-1 1.3-1 2.9-.2 3 1.6 3 1.5 2-3.5-.8-3.7-.7-4.8.3-5.5 1.1-.6 1.5-.1 1.7 2.1.4 4.1 2 3.8 2.4-.5.2-2.8 1-4.1 3.5-5.6l3.3-2.1-.7 7.6c-.5 6.7-.4 7.6 1.1 7.6.9 0 1.6-.1 1.6-.3 0-.1.5-4 1-8.7 3-25 3.2-39 .8-39-.6 0-2.3 1.1-4 2.5-3.8 3.2-4.8 3.2-4.8-.4 0-5.9-1.5-6.8-2-1.2-.5 5-.8 5.6-3.7 6.8L273 440v-7.7c0-4.3-.5-8.5-1-9.3s-1-1-1-.3c0 .6-1.3 1.6-2.9 2.1-2.8 1-3 .9-3.3-1.6-.2-1.7-.6-.7-1.1 2.8m25.9 15.7c-.5 4.5-1.2 7.1-2.4 7.9-2.7 2-6.2 3.8-6.5 3.3-.2-.2-.1-3.3.2-6.8.6-5.9.8-6.6 4.1-8.7 1.9-1.3 3.9-2.3 4.4-2.3.5-.1.6 2.8.2 6.6m-18.8 8.5c-.3 6.6-.5 7.3-2.4 7.6-1.8.3-2.2-.4-2.7-3.5-.4-2.1-.7-5.5-.7-7.6 0-3.5.2-3.7 3-3.7h3.1zm7.2 12.3c0 3.8-.3 4.5-2 4.5s-2-.7-2-3.8c0-4.1.6-5.2 2.7-5.2.9 0 1.3 1.4 1.3 4.5m-6 1.5c0 3.3-.4 4-1.9 4-1.3 0-2-.9-2.4-3.3-.6-3.9-.2-4.7 2.4-4.7 1.6 0 1.9.7 1.9 4m-64-34.5c0 2.2-1.1 10.7-2.5 19-2.5 15.1-3 22-1.9 24.9 1.2 3 2.4 1.6 2.4-2.7 0-2.3.9-10.5 2-18.2 2.2-15.4 2.5-23.2 1-25.5-.7-1.1-1-.5-1 2.5M327 441c0 1.6 3.9 19.1 5.1 22.7 1.3 4.2 4.4 4.6 3.5.5-1.9-8-7.1-24.2-7.8-24.2-.4 0-.8.5-.8 1"/></svg>