<svg version="1.0" xmlns="http://www.w3.org/2000/svg"
 width="1040.000000pt" height="1040.000000pt" viewBox="0 0 1040.000000 1040.000000"
 preserveAspectRatio="xMidYMid meet">
<g transform="translate(0.000000,1040.000000) scale(0.100000,-0.100000)"
fill="#000000" stroke="none">
<path d="M9541 8410 c-19 -19 -71 -78 -116 -130 -184 -214 -437 -413 -695
-549 -127 -66 -341 -164 -347 -158 -2 3 1 80 7 173 14 237 13 463 -3 494 -30
59 -163 47 -241 -21 -25 -23 -46 -45 -46 -50 0 -5 -20 -51 -44 -102 -178 -376
-181 -385 -143 -425 47 -49 63 -122 27 -122 -11 0 -22 6 -24 13 -2 6 -25 80
-50 162 -25 83 -46 155 -46 161 0 6 15 15 33 20 48 14 42 39 -9 36 -39 -3 -41
-2 -52 34 -6 21 -10 40 -8 42 3 2 26 9 53 16 37 9 48 17 48 32 0 17 -6 19 -61
16 l-62 -4 -12 37 c-7 20 -10 37 -8 39 1 1 37 9 78 17 56 10 76 18 78 32 3 15
-6 17 -72 17 -76 0 -124 -12 -138 -33 -4 -7 -8 -148 -8 -313 l0 -302 -307 -5
c-170 -3 -318 -8 -330 -12 -12 -4 -25 -14 -28 -23 -4 -10 -9 -122 -12 -249
l-6 -233 -68 -40 c-176 -104 -566 -231 -753 -244 -14 -1 -39 36 -103 149 -362
639 -347 615 -393 615 -48 0 -159 -65 -390 -230 -330 -236 -350 -251 -350
-260 0 -17 76 2 146 36 39 18 120 68 180 110 280 198 398 273 409 262 10 -10
124 -211 341 -601 586 -1051 960 -1687 1216 -2069 43 -65 78 -119 78 -122 0
-2 -48 -30 -107 -61 -135 -71 -332 -201 -466 -308 -56 -44 -194 -149 -306
-231 -510 -374 -804 -634 -939 -829 -29 -42 -49 -77 -45 -77 9 1 178 142 430
361 263 228 476 394 721 563 106 74 116 78 153 72 24 -4 119 5 241 23 112 16
255 35 318 41 202 20 557 28 815 19 244 -8 337 -14 730 -44 244 -19 305 -19
332 0 87 61 220 890 353 2185 89 872 102 1054 80 1095 -37 69 -151 84 -674 92
l-418 6 148 72 c257 123 393 217 608 419 209 196 303 321 294 393 l-3 28 -34
-35z m-1204 -206 c7 -20 -13 -557 -33 -862 -16 -248 -20 -266 -71 -314 -58
-56 -192 -93 -179 -50 9 31 45 332 61 517 9 99 19 298 22 442 l6 262 51 9 c84
16 136 14 143 -4z m-262 -366 c-15 -297 -54 -723 -72 -783 -7 -22 -44 80 -88
237 l-24 88 35 16 c90 43 116 176 53 266 -14 19 -19 37 -15 53 7 28 107 245
113 245 2 0 1 -55 -2 -122z m-135 -358 c-6 -11 -32 -30 -58 -42 l-47 -23 0
-80 c0 -71 6 -98 51 -230 46 -132 55 -152 85 -172 54 -38 123 -53 235 -53 123
0 119 -3 136 128 6 48 12 89 14 91 2 2 47 -4 101 -12 54 -9 175 -21 268 -27
148 -9 342 -33 454 -56 l34 -7 -7 -116 c-14 -240 -83 -879 -97 -895 -4 -4 -14
5 -22 20 -22 41 -135 192 -204 270 -86 98 -220 214 -374 324 -172 122 -291
182 -374 188 -72 5 -66 -4 28 -43 66 -27 85 -45 49 -45 -23 0 -64 -29 -42 -30
8 0 53 -4 99 -10 67 -7 93 -16 133 -41 46 -30 49 -34 32 -46 -23 -17 -74 -26
-124 -21 -22 2 -40 0 -40 -4 0 -3 26 -19 58 -35 51 -25 68 -28 158 -28 l101 0
49 -42 c27 -22 62 -55 77 -71 l29 -30 -37 -12 c-54 -18 -206 -8 -280 18 -33
11 -61 19 -63 17 -2 -2 16 -22 40 -44 98 -95 237 -126 361 -81 l61 23 44 -49
c24 -27 51 -60 60 -73 15 -23 15 -25 -12 -46 -40 -32 -92 -45 -182 -45 l-79
-1 34 -29 c68 -58 159 -60 260 -4 55 31 61 30 61 -5 0 -40 -26 -109 -55 -147
-29 -38 -30 -44 -10 -44 25 0 77 29 112 63 l32 30 6 -25 c6 -22 -36 -335 -87
-656 l-21 -133 -51 98 c-162 308 -317 525 -520 729 -285 286 -692 524 -893
524 -35 0 -62 -4 -59 -9 3 -5 64 -29 135 -55 72 -26 148 -55 171 -65 l41 -18
-47 -12 c-25 -7 -70 -24 -98 -38 -53 -27 -149 -93 -144 -99 2 -2 33 6 68 18
94 30 265 30 379 0 99 -27 140 -47 205 -101 l48 -41 -38 -17 c-31 -14 -70 -17
-187 -18 l-148 0 28 -23 c76 -61 241 -81 382 -46 l66 17 88 -93 c48 -51 97
-106 109 -122 l21 -30 -39 20 c-91 46 -174 64 -321 69 -147 6 -293 -3 -293
-17 0 -4 19 -10 42 -14 59 -10 438 -136 522 -175 l69 -31 -29 -31 c-76 -80
-270 -130 -539 -142 l-60 -2 64 -34 c85 -45 150 -61 252 -61 109 0 216 27 317
79 42 22 77 39 79 37 2 -2 -26 -31 -62 -64 -68 -62 -179 -126 -299 -172 l-69
-27 32 -13 c72 -29 229 5 424 94 43 20 82 36 88 36 21 0 6 -26 -44 -77 l-54
-53 30 0 c45 0 93 28 142 82 l45 50 61 -126 62 -126 -13 -71 -12 -71 -107 6
c-58 4 -239 17 -401 28 -480 35 -1040 29 -1065 -12 -14 -23 75 -29 485 -34
262 -3 507 -11 615 -20 99 -8 255 -18 347 -22 l167 -7 15 54 c104 361 311
2027 272 2183 -14 58 -114 79 -458 97 -201 10 -319 7 -415 -10 l-42 -8 6 81
c2 45 8 128 11 186 l7 105 30 -2 c199 -11 513 -23 645 -23 200 0 387 -15 458
-35 l52 -16 0 -64 c0 -146 -57 -745 -145 -1535 -95 -846 -163 -1288 -233
-1507 l-28 -88 -40 -3 c-22 -2 -215 11 -430 27 -676 52 -742 56 -1051 56 -167
0 -303 1 -303 2 0 0 21 14 48 29 26 15 64 38 85 51 l38 24 -56 65 c-48 57 -53
67 -42 84 6 11 15 20 19 20 5 0 8 4 8 9 0 4 -71 118 -159 252 -87 134 -211
331 -275 438 l-118 194 25 76 c81 245 157 1041 170 1773 1 75 6 140 10 145 5
4 185 11 400 14 325 6 419 11 465 28 1 1 -2 -8 -8 -19z m-954 -697 c-10 -179
-34 -483 -52 -648 -24 -221 -77 -550 -93 -583 -7 -13 -122 182 -443 753 -96
171 -180 319 -186 331 -11 20 -7 22 126 43 203 33 541 148 622 211 14 11 27
20 29 20 2 0 1 -57 -3 -127z"/>
<path d="M7317 7163 c-51 -6 -57 -25 -57 -186 -1 -428 -55 -969 -135 -1343
-19 -89 -35 -174 -35 -189 0 -24 2 -26 16 -14 28 23 52 83 78 199 74 334 116
718 132 1232 5 153 9 200 20 209 11 9 55 10 162 6 151 -7 222 2 222 27 0 7 10
18 23 23 22 11 22 11 -8 23 -30 13 -342 22 -418 13z"/>
<path d="M4120 7601 c-62 -63 -89 -131 -71 -175 19 -45 82 -308 79 -329 -3
-16 -6 -15 -35 5 -37 26 -39 31 -18 52 8 8 15 21 15 30 0 27 -21 28 -46 2 -22
-21 -29 -23 -50 -14 -13 6 -24 14 -24 18 0 4 20 26 45 49 25 23 45 49 45 57 0
18 -7 14 -78 -39 -77 -59 -77 -35 1 37 37 34 67 70 67 80 0 20 1 20 -97 -46
-39 -27 -74 -56 -77 -64 -3 -8 -17 -14 -31 -14 -14 0 -25 -3 -25 -8 0 -20 227
-205 291 -238 41 -20 47 -28 53 -64 4 -23 13 -57 21 -76 14 -33 16 -34 69 -34
50 0 60 -4 95 -35 40 -36 56 -73 46 -103 -3 -10 -26 -32 -50 -51 -44 -33 -45
-33 -72 -16 -16 9 -84 75 -153 145 -250 255 -384 369 -406 347 -12 -12 418
-472 494 -529 l33 -25 -89 -56 c-49 -32 -106 -64 -125 -72 -71 -29 -214 -47
-351 -43 l-130 4 -51 135 c-27 74 -54 141 -58 147 -12 17 -89 15 -139 -4 -24
-9 -150 -68 -281 -131 -131 -63 -248 -118 -260 -122 l-22 -8 -3 206 c-2 182
-11 308 -28 392 -7 35 -42 50 -132 56 -60 5 -75 3 -92 -12 -11 -10 -17 -21
-15 -25 3 -4 37 -10 77 -14 92 -9 108 -14 108 -33 0 -12 -13 -14 -72 -13 -91
3 -98 2 -98 -9 0 -10 117 -41 155 -41 14 0 25 -4 25 -10 0 -6 -31 -9 -77 -7
-65 2 -78 -1 -81 -14 -3 -16 39 -28 143 -43 13 -2 20 -11 20 -26 0 -21 -4 -23
-60 -22 -55 0 -85 -10 -85 -27 0 -4 34 -13 75 -20 53 -9 75 -17 75 -27 0 -11
-15 -14 -60 -14 -46 0 -60 -3 -60 -15 0 -8 17 -18 43 -25 69 -17 87 -28 87
-51 0 -19 -5 -20 -57 -17 -33 2 -60 -1 -62 -7 -1 -5 24 -19 58 -29 46 -15 61
-24 61 -38 0 -17 -6 -18 -65 -12 -55 6 -65 4 -65 -9 0 -9 23 -23 64 -37 55
-20 65 -27 68 -51 4 -25 -1 -29 -55 -53 -44 -19 -64 -23 -73 -15 -10 8 -10 15
-1 29 14 23 -10 127 -94 411 -32 108 -63 225 -68 260 -12 75 -34 99 -92 99
-57 0 -148 -37 -159 -65 -8 -20 -100 -677 -100 -711 0 -20 -182 -19 -318 2
-275 41 -535 129 -839 285 -167 86 -220 109 -252 109 -90 0 -32 -48 224 -184
209 -111 278 -142 471 -207 230 -77 455 -116 616 -107 l80 5 -7 -70 c-3 -38
-8 -74 -11 -81 -16 -42 -555 -331 -1060 -567 -120 -57 -175 -94 -195 -131 -10
-19 -8 -19 23 -13 18 4 103 40 188 80 85 40 200 94 255 118 170 76 525 253
625 310 52 31 95 55 96 54 5 -7 -29 -233 -35 -235 -4 -1 -93 -52 -197 -113
-104 -61 -285 -158 -403 -217 -117 -59 -215 -112 -218 -119 -3 -7 38 -86 90
-175 213 -366 495 -919 732 -1433 148 -323 206 -442 243 -498 24 -36 29 -39
63 -34 26 3 80 35 181 106 78 55 208 140 288 188 160 96 569 307 840 433 335
156 385 181 468 233 l84 52 -5 72 c-5 74 -4 72 -165 463 -105 256 -277 696
-400 1025 -122 324 -192 500 -215 536 -23 37 -40 23 -34 -28 6 -46 222 -631
384 -1038 41 -104 78 -196 80 -203 3 -7 -46 14 -108 47 -130 68 -250 108 -347
117 -126 12 -198 -28 -251 -140 -43 -90 -60 -203 -70 -458 -11 -266 -16 -283
-76 -282 -25 0 -84 20 -155 52 -198 87 -268 91 -347 20 -131 -121 -212 -411
-241 -859 l-7 -106 -125 271 c-68 149 -195 420 -280 601 -86 182 -188 397
-226 479 -58 126 -164 323 -263 488 l-23 37 44 17 c88 35 229 114 451 253 125
78 234 144 243 148 15 5 16 1 11 -35 -9 -52 7 -69 71 -77 26 -3 98 -14 161
-24 l115 -18 40 31 c23 17 67 44 98 61 54 28 60 35 91 105 19 41 47 108 63
149 l28 74 86 40 c211 97 261 123 350 182 114 76 180 131 180 151 0 29 -31 26
-84 -9 -70 -47 -181 -102 -341 -170 -181 -77 -166 -75 -213 -22 -22 25 -47 61
-56 80 -15 31 -15 38 -2 70 14 33 18 35 60 35 65 0 192 48 441 167 234 112
341 157 349 145 2 -4 52 -139 111 -301 201 -555 540 -1417 888 -2256 l145
-349 -52 -17 c-237 -76 -756 -330 -962 -470 -22 -15 -120 -71 -218 -124 -217
-117 -518 -296 -606 -360 -67 -48 -210 -183 -210 -197 0 -14 90 36 335 188
131 80 317 191 414 245 399 225 955 488 1311 621 44 16 69 32 77 48 14 29 16
26 -187 510 -188 451 -175 416 -155 400 41 -34 567 -777 708 -1000 169 -267
259 -380 305 -380 34 0 22 19 -291 487 -438 655 -578 852 -720 1015 l-67 76
-101 289 c-55 158 -109 313 -120 343 l-19 55 31 -35 c43 -48 375 -493 546
-730 77 -107 222 -319 323 -470 187 -281 279 -400 266 -343 -13 57 -77 165
-267 453 -340 515 -703 1015 -897 1237 -50 57 -83 106 -103 153 -20 48 -44 83
-77 114 -38 36 -53 60 -80 135 -19 49 -32 94 -30 99 5 14 128 125 198 178 35
27 147 104 249 171 l184 122 143 -72 c126 -63 141 -73 118 -79 -14 -4 -47 -27
-73 -51 -26 -25 -167 -123 -312 -220 -237 -156 -339 -237 -339 -267 0 -19 22
-10 93 39 115 78 175 113 297 175 173 87 332 189 408 259 l32 31 88 -43 c75
-37 94 -42 128 -37 21 4 59 8 84 10 27 2 62 13 86 29 48 30 131 120 162 176
l22 39 -40 48 c-22 27 -40 52 -40 56 0 4 69 53 153 108 83 56 159 107 167 114
8 6 41 22 73 35 32 13 67 35 78 50 l21 26 -24 3 c-52 6 -380 -148 -485 -228
l-51 -38 -34 36 c-19 21 -120 136 -224 257 -333 388 -560 631 -616 661 -43 22
-59 17 -108 -35z m230 -166 c84 -87 193 -210 545 -615 l230 -265 -1 -52 c-2
-59 -31 -118 -86 -170 l-33 -32 -132 172 c-327 427 -568 737 -666 857 l-107
131 16 32 c9 18 30 47 47 65 l31 32 39 -37 c21 -21 74 -74 117 -118z m-109
-240 c41 -50 160 -203 264 -340 105 -136 234 -299 287 -361 107 -125 108 -124
-58 -41 -104 52 -218 104 -278 127 -28 10 -28 11 -10 31 11 13 19 41 22 79 4
51 0 66 -22 104 -32 55 -95 94 -164 103 l-50 6 -17 91 c-9 50 -27 138 -41 194
-13 57 -24 107 -24 110 0 8 2 5 91 -103z m-1881 -81 c0 -3 -5 -15 -12 -27 -8
-15 -14 -143 -19 -397 -10 -470 -47 -1070 -68 -1093 -4 -4 -27 -5 -51 -1 -60
10 -119 66 -155 147 l-29 62 17 150 c10 83 33 252 53 375 19 124 48 324 65
445 42 313 32 281 98 315 51 26 101 38 101 24z m105 -727 c-46 -38 -65 -81
-65 -147 0 -59 27 -119 73 -161 31 -28 31 -29 14 -61 -71 -139 -147 -270 -147
-253 0 11 5 61 10 110 10 94 34 493 46 750 l6 150 50 -179 50 -178 -37 -31z
m2160 -27 c3 -5 1 -10 -4 -10 -6 0 -11 5 -11 10 0 6 2 10 4 10 3 0 8 -4 11
-10z m-837 -57 c39 2 72 3 72 1 0 -2 -33 -27 -72 -57 -40 -29 -87 -70 -105
-90 -18 -20 -34 -33 -37 -28 -8 12 -66 171 -66 180 0 4 30 3 68 -2 37 -5 100
-7 140 -4z m-1435 -2110 c-59 -161 -89 -453 -80 -760 l6 -182 -34 -20 c-55
-32 -59 -18 -51 172 13 317 46 542 102 699 23 65 69 158 78 158 2 0 -8 -30
-21 -67z"/>
<path d="M5690 6874 c0 -20 13 -68 29 -108 61 -151 377 -715 905 -1611 58 -99
106 -184 106 -190 -1 -5 -71 -52 -158 -103 -484 -285 -916 -593 -1159 -826
-87 -83 -182 -201 -170 -212 5 -6 75 51 272 220 83 71 221 182 307 247 251
188 435 307 936 604 75 44 80 29 -129 388 -78 133 -174 298 -214 367 -208 357
-424 746 -580 1040 -121 229 -145 259 -145 184z"/>
<path d="M5495 6211 c-52 -22 -87 -108 -75 -186 l6 -42 -35 8 c-96 22 -191
-53 -191 -149 0 -37 6 -50 34 -78 19 -19 48 -37 65 -40 43 -9 45 -16 19 -60
-30 -52 -30 -128 0 -171 54 -76 171 -65 264 24 l36 35 1 -92 c2 -169 29 -291
102 -459 64 -147 137 -251 175 -251 3 0 -2 13 -10 29 -14 27 -14 29 15 57 39
37 69 135 69 223 0 72 -23 167 -46 191 -12 12 -18 10 -43 -14 -31 -30 -111
-176 -111 -204 -1 -9 -12 12 -26 47 -35 91 -61 236 -69 380 l-7 124 32 -23
c72 -52 178 -30 214 43 16 33 17 44 6 84 -19 78 -73 133 -130 133 -29 0 -25
-14 15 -44 93 -71 85 -186 -13 -186 -48 0 -122 51 -122 83 -1 65 -42 55 -67
-16 -11 -31 -36 -70 -63 -98 -75 -78 -155 -84 -189 -15 -20 43 0 96 65 167 30
32 54 61 54 63 0 3 -34 2 -75 -1 -82 -6 -116 7 -136 51 -22 48 41 116 108 116
15 0 48 -9 72 -20 24 -11 52 -20 63 -20 23 0 22 7 -12 86 -17 37 -21 61 -16
87 15 83 82 114 131 61 14 -15 36 -64 50 -110 26 -86 51 -118 103 -131 25 -6
53 5 59 23 2 5 -16 19 -40 31 -47 23 -54 34 -82 138 -24 84 -76 135 -136 134
-24 0 -53 -4 -64 -8z m391 -1069 c-17 -16 -18 -16 -5 5 7 12 15 20 18 17 3 -2
-3 -12 -13 -22z m-36 -80 c-10 -32 -21 -80 -25 -106 -5 -32 -10 -44 -15 -35
-11 19 5 99 29 155 27 61 32 55 11 -14z"/>
<path d="M5567 5872 c-19 -21 -22 -48 -7 -57 6 -3 10 -16 10 -29 0 -47 57 -63
84 -24 49 70 -32 171 -87 110z m46 -76 c-5 -10 -13 -12 -23 -6 -11 7 -12 11 0
25 16 20 36 4 23 -19z"/>
<path d="M4890 5688 c-18 -13 -42 -35 -53 -50 -25 -33 -34 -116 -17 -149 12
-22 14 -20 31 41 23 85 64 125 118 116 54 -8 91 -54 91 -114 0 -26 -7 -68 -16
-93 -22 -59 -15 -76 33 -84 127 -20 187 -45 209 -86 19 -38 9 -73 -29 -105
-29 -24 -35 -26 -101 -20 -155 14 -136 22 -182 -75 -60 -123 -118 -165 -164
-119 -16 16 -20 33 -20 83 0 60 1 63 30 74 37 14 48 39 27 60 -12 13 -21 14
-48 4 -46 -16 -88 -13 -135 8 -80 36 -99 108 -42 156 31 26 36 27 128 24 57
-3 97 0 99 6 2 6 -15 20 -39 33 -49 25 -125 29 -181 11 -72 -24 -117 -96 -104
-165 12 -64 106 -143 172 -144 20 0 22 -5 21 -68 -1 -132 73 -197 177 -157 53
20 85 55 131 146 33 67 35 68 62 58 36 -14 121 -14 164 0 46 15 98 70 108 115
10 47 -2 102 -32 133 -31 34 -112 71 -171 79 -43 6 -48 9 -43 28 27 93 18 162
-27 213 -57 65 -137 81 -197 41z"/>
<path d="M6250 5455 c-7 -8 -10 -24 -7 -36 16 -62 -56 -175 -151 -235 -56 -35
-82 -59 -82 -76 0 -15 25 -8 95 25 117 56 205 168 205 260 0 63 -32 96 -60 62z"/>
<path d="M760 5280 c0 -37 13 -64 137 -278 143 -250 286 -539 752 -1532 151
-320 316 -650 370 -735 49 -79 125 -164 137 -153 3 4 -45 105 -108 225 -177
341 -236 463 -645 1338 -241 515 -431 878 -562 1075 -63 94 -81 108 -81 60z"/>
<path d="M1823 5199 c-65 -25 -135 -93 -158 -154 -26 -67 -17 -187 18 -248 93
-158 323 -197 460 -77 85 75 115 152 90 230 -8 25 -17 61 -19 80 -10 71 -79
145 -163 175 -61 21 -164 18 -228 -6z m103 -54 c-87 -31 -156 -137 -156 -239
0 -48 6 -70 30 -113 27 -47 28 -53 11 -43 -49 26 -101 124 -101 190 0 115 105
217 225 219 29 0 29 0 -9 -14z"/>
<path d="M5470 4987 c0 -41 6 -95 14 -120 8 -26 10 -47 5 -47 -16 0 -132 42
-197 71 -37 17 -86 51 -122 85 -38 36 -65 54 -75 51 -42 -17 4 -94 90 -152 60
-40 143 -74 284 -116 l73 -22 -54 -29 c-108 -58 -150 -120 -91 -134 54 -14
218 37 274 83 l31 26 65 -32 c36 -17 68 -29 71 -26 11 11 -35 60 -84 90 -39
24 -50 36 -52 60 -11 100 -149 285 -213 285 -17 0 -19 -8 -19 -73z"/>
<path d="M5174 4710 c-33 -16 -81 -48 -107 -70 -85 -75 -147 -243 -103 -279
12 -10 17 -8 25 8 6 11 11 30 11 43 0 31 41 116 75 156 15 19 63 54 106 79 85
49 104 66 94 83 -10 16 -36 11 -101 -20z"/>
<path d="M9590 3880 c-17 -32 -5 -53 52 -85 95 -54 148 -62 169 -24 15 29 -14
64 -84 99 -72 36 -121 39 -137 10z"/>
<path d="M8376 3828 c-26 -40 -108 -240 -128 -313 -31 -111 -25 -184 14 -185
15 0 68 96 84 150 8 30 22 71 31 90 38 86 66 179 67 225 1 47 -1 50 -26 53
-19 2 -31 -3 -42 -20z"/>
<path d="M8791 3752 c-10 -18 3 -53 43 -117 41 -66 128 -108 143 -69 8 22 -8
53 -73 133 -59 74 -93 90 -113 53z"/>
<path d="M1547 2674 c-211 -89 -361 -206 -308 -238 12 -8 144 48 201 84 25 16
70 38 100 50 133 52 217 111 204 143 -11 28 -61 18 -197 -39z"/>
<path d="M1699 2375 c-97 -101 -133 -176 -93 -192 16 -6 84 24 84 37 0 3 24
35 54 69 58 67 74 104 55 127 -21 25 -47 15 -100 -41z"/>
<path d="M2372 2278 c-22 -22 -12 -48 41 -107 28 -32 76 -86 105 -120 100
-115 164 -117 113 -5 -26 56 -156 201 -202 224 -45 24 -42 23 -57 8z"/>
</g>
</svg>
