<svg version="1.0" xmlns="http://www.w3.org/2000/svg" width="1386.667" height="1386.667" viewBox="0 0 1040 1040"><path d="M440.3 185.9c-8.6 1.4-18.5 4.8-25.2 8.8-8.8 5.3-19.1 16.4-23.4 25.3-1.9 4-3.8 6.7-4.2 6.1-1.3-2.2-10.4-6-16.7-7-23.8-3.9-46.9 12.6-55.4 39.4-4.8 15.2-5.6 25.6-4.9 62 .6 31.3.5 33.4-1.4 40.9-3.6 13.8-9.2 20.6-22.2 27.2-6.3 3.1-7.3 3.4-8.1 2-1.5-2.6-3.8-1.9-3.8 1.1.1 9.2 17.1 30.5 32.5 40.7 12.1 8.1 34.3 16 52 18.6 4.4.6 9.5 1.3 11.3 1.6l3.4.5-4.9 5.2c-8.6 9.1-12.1 15.7-8.2 15.7.6 0 4-3.2 7.7-7.1 10.4-11.1 22.7-19 37-23.8l6.1-2.1 10.3 10.4c7.4 7.3 12 11.1 16.4 13.3l6.1 3-2.3 2.6c-3.1 3.6-8.6 13.1-11 18.9-1 2.7-2.3 4.8-2.8 4.8-.4 0-3.5-1.6-6.7-3.6-8.1-4.9-22-18.3-27.1-26-2.6-3.9-4.9-6.4-6-6.4-3 0-2.2 5.2 1.7 10.9 2.6 3.7 3.1 5.1 2 5.1-7.1 0 13.3 17.7 28.8 25.1 8.8 4.1 10.9 3.9 14.1-1.5 4.1-7 11.1-13.6 14.4-13.6 5.4 0 14.1 7 18.4 14.9 1 1.7 2.5 3.4 3.5 3.8s2.1 1.1 2.5 1.6c.9 1.4 8.6-3.3 15.2-9.4 6.7-6.1 13.3-15.8 19.6-28.8 7.7-15.7 10-25.6 6-25.6-1.6 0-3 2.5-6.1 11.3-4.1 11.9-17.8 31.6-28.1 40.6-5.1 4.5-8.8 5.9-8.8 3.3 0-3-10.2-21.5-13.9-25.1l-4-3.9 5.7-3.7c3.2-2 7.5-5.2 9.6-7 6.4-5.7 14.8-19.4 18.6-30.5l1.7-5 13.9.1c8.3 0 17.7.8 23.4 1.8 12.6 2.2 31.2 8.5 43.5 14.6 10.8 5.4 33.5 21.2 54.8 38.2 23.2 18.6 38.1 27.7 47.9 29.3 4.1.7 13.2-1.1 12.3-2.5-.2-.4-2.3-1-4.6-1.4-13-2.1-27.6-10.5-52.5-30.3-26.6-21-49.2-36.6-64.5-44.3l-6-3.1 6.1-4.5c17.7-13.4 32.4-33.3 41-55.6 5.5-14.2 9.4-36.4 7.1-40.5-.8-1.6-.8-2.3.2-2.6.6-.3-3.6-.6-9.4-.6-17.9-.2-29.2-5.1-41.5-18.3-9-9.7-15.1-19.6-28-45.2-6.3-12.6-13.9-26.7-17-31.3-12.2-18.4-30.2-31.8-49.1-36.7-7.4-1.9-20.3-2.7-27-1.7m26.7 8.7c12.2 3.6 26.2 12.4 34.9 22 6.8 7.4 11.6 14.6 18 26.9 2.9 5.5 4.6 9.2 3.9 8.1-.7-1-4.4-6.6-8.3-12.5-8.1-12.2-20.4-25.1-28.8-30-3.1-1.8-8.8-4.5-12.5-5.9-6-2.3-8.1-2.6-21.2-2.6-13.4-.1-15.2.1-23.4 2.8-10.2 3.4-20.8 9.9-28.6 17.7l-5.3 5.4 2.8-5.2c3.7-7 15.5-18.3 23.1-22.1 5.9-3 14-5.7 19.9-6.6 5.4-.8 19.9.3 25.5 2m-86.8 34c3.7 1.6 6.8 3.5 6.8 4.2 0 .8-.7 1.1-1.7.8-5.7-1.7-11.7-2.6-18.4-2.6-19.8 0-34.2 9.8-45 30.7-3.4 6.8-3 3.3.9-6.5 5.1-13 15.1-23.1 27.6-27.9 8.7-3.3 20.4-2.8 29.8 1.3m22.1 44.3 3.6 3.4-1.9 2.8c-4.4 6.1-.6 10.5 4.2 4.8l2.8-3.3 8.7 4.6c17.2 9 39.4 14.4 55.6 13.6 4.2-.3 7.7-.4 7.7-.3 0 .2-.7 1.9-1.6 4-1.8 4.5-1.5 10 .6 10 .9 0 3.1-3.2 5.3-7.7 3.2-6.5 4.6-8.2 8.3-10.4 10.3-6.1 20.4.9 20.4 14.1 0 11.9-8.4 20.3-22 21.9-6.7.8-9.2 2.1-7 3.6.8.5 2.1 1 2.9 1 1.1 0 1.3 1.7.7 9.2-1.8 25.6-10.8 40.8-29.7 50.3-10.8 5.4-17.7 6.8-29.3 6.3-11-.6-20.5-3.7-30.9-10.1-20.3-12.7-33.5-34.4-40.3-66.2-.9-4.4-2-8.8-2.5-9.7-.7-1.3-.1-2.1 2.5-3.7 4-2.5 14.6-13.6 17.3-18.1 1.6-2.8 2.1-3.1 5.2-2.5 9 1.7 18.6 9.3 22.7 18 3.8 8.1 3.4 16.4-1.6 28.7-4.4 10.9-5.2 16.1-2.3 13.7 3.7-3.1 12.3-24.9 12.3-31.4 0-1.1-.7-4.8-1.5-8-3.1-11.9-12.3-21.8-23.5-25.2l-5.6-1.7 3.3-8c1.8-4.5 3.5-10 3.9-12.3l.6-4.2 3.8 4.7c2.1 2.6 5.4 6.2 7.3 8.1m84.6 121.5c1.6 6.5 1.4 10-1.4 21.1-3.1 12.4-10.2 26.9-16.4 33.4-5.2 5.6-10.5 8.5-19.1 10.7-6 1.5-6.1 1.5-10.3-1-2.3-1.4-5.5-3.6-7.2-5-2.8-2.3-2.9-2.5-1-3.2 16.8-6 26.6-11.7 34.9-20.4 9.4-10 17.6-27.3 17.6-37.2 0-5 1.4-4.1 2.9 1.6"/><path d="M439.4 311c-6.9 6.1-10.9 7.1-15.8 4.1-5.9-3.7-9.2.1-4.2 4.8 3 2.8 9.9 3.8 15 2.1 4-1.3 14.6-10.4 14.6-12.6 0-.7-.9-1.8-1.9-2.4-1.7-.8-2.9-.2-7.7 4m-42.9 12c-6.2 5-10.7 5.7-19.6 3.5-2.8-.7-4.4 1.1-3.3 3.9 1.5 3.8 12.7 5 19.5 2.2 5.4-2.2 9.9-6.4 9.9-9.1 0-3.5-2.5-3.7-6.5-.5m52 25.1c-.4.5-.4 2.1-.1 3.5.5 1.8 0 3.1-1.8 4.9-1.4 1.4-3.2 2.5-3.9 2.5-2.2 0-3 3.1-1.3 4.8 3.2 3.2 12.1-2.4 13.2-8.4.4-2 .2-4.6-.5-6-1.1-2.5-4.4-3.3-5.6-1.3m287.2-101.2c-1.9 3.2-3.6 24.4-2 25.4 2 1.2 3.5-1.3 5.9-9.9 3.3-12.2 3.2-18.4-.5-18.4-.9 0-2.4 1.3-3.4 2.9m-40.1.9c-1.2 1.2-.5 5.8 1.3 8.7 3.5 5.5 9.6 12.8 11.8 14.3 2 1.3 2.3 1.2 2.9-.3.8-2-5-14.5-9-19.2-2.5-3-5.9-4.7-7-3.5m73.4 31.1c-5.6 2.3-10.3 7.7-7.9 9.1 1.5 1 8.6-1.6 11.3-4 3.2-3.1.7-6.8-3.4-5.1M691.4 320c-5.9 6.2-15.4 20.8-15.4 23.6 0 4.3 3.1 2.5 7.9-4.6 2.4-3.6 6.4-8.9 8.8-11.7l4.4-5.3 3.7 1.6c3.6 1.4 5.2 2.4 17.2 9.9 5.1 3.2 11 4.6 11 2.7 0-3.1-27.5-20.2-32.4-20.2-.8 0-3.1 1.8-5.2 4m11.6 24.6c-18.2 3.3-33.1 9.1-34.5 13.4-1.2 3.7 2.7 8.1 8.9 10.3l3.8 1.3-4.1 2.7c-9.8 6.5-4.5 15.6 8.5 14.5 4.6-.3 5.2 0 3.3 1.9-.8.8-.8 2.1.1 4.8 1.4 4.2 6.5 7.1 11.1 6.1 1.9-.3 2.9 0 3.3 1 1.1 3 5.2 3.4 17 1.7 11.3-1.6 11.5-1.6 15.1.5 3.7 2.2 8.5 2.9 8.5 1.3 0-2-5.2-7-8.5-8.1-2.6-.8-5.9-.7-14.6.5-6.1.8-11.4 1.3-11.7 1-2.2-2.2 8.9-7.1 20-8.8 6.4-1 8.4-1.7 8.6-3 1-4.8-14.3-3.6-29.2 2.3-9.8 4-14 4.8-15 3.1-.6-1 7.1-6 21.4-14 7.8-4.4 8.5-5.1 9.1-8.4.3-2.2.2-3.7-.4-3.7s-4.9 2-9.6 4.4c-9.4 4.8-19 8.1-28.2 9.5-13.9 2.3-8.9-2 14-12 15.6-6.9 20.4-9.3 20.9-10.8.6-1.7-4.5-1.3-17.4 1.3-11.2 2.3-18.1 3-24.7 2.7-7.1-.3 2.6-5 18.3-8.8 20.2-4.9 36.2-3.1 49.8 5.6 9.9 6.4 14.3 14.2 17.8 31.1 2.4 12.2 1.5 34-2 47.5-4 15.5-12.5 37.5-14.5 37.5-2.4 0-9.9-2.5-16.4-5.3l-5.8-2.6 3.7-7.3c8.7-17.4 14.1-42.8 9.1-42.8-.8 0-1.7 2.8-2.4 7.7-1.6 10.8-5.6 22.3-11.2 32.9-4 7.4-5.2 9-7.5 9.2-3.1.4-3.5 3.1-.8 5.5 2.7 2.5 14 7.4 23.9 10.3 7.5 2.3 10.7 2.7 22.3 2.8 11.5.1 14.6-.2 20.9-2.2 8.9-2.8 13.1-6.4 13.1-11.4 0-6.7-8.3-15.8-14.4-15.8h-3l5.1 5.2c5.7 5.9 7.6 9 6.8 11-.4 1-1.6.4-4.4-2.2-2.1-2-8.4-6-13.9-8.9l-10.1-5.1 1.9-5.6c4.7-13.6 6.5-25.2 6.5-41.9-.1-13.2-.5-17.5-2.3-24.4-4.5-17.3-10.5-25.4-23.8-32.3-12.6-6.6-25.8-8.2-42.4-5.2"/><path d="M661.3 365.3c-3.6 3.7-26.3 38.1-29.4 44.4-1.1 2.3-1.8 4.7-1.4 5.3 1.1 1.8 13.8 11.5 25.2 19.3 13.8 9.4 22.7 14 25.4 13.2 3.5-1.2 23.9-29.8 23.9-33.7 0-4-4.4-1.3-12.4 7.7-4.5 4.9-9.5 10.7-11.2 12.9l-3 3.9-9.5-4.2c-9.8-4.3-30.5-17.3-32.3-20.2-.7-1.3 2.1-6.3 13.2-22.8 12.5-18.7 16.8-26.9 15-28.6-.2-.3-1.8 1-3.5 2.8m-446.6 52.3c-1.2 1.3-.7 6.8.9 9.9.9 1.6 3.2 6 5.1 9.6 3.8 7.5 6.5 10.4 8.8 9.6 2.2-.9 1.9-2.9-2.1-12.5-5.4-13-10.1-19.2-12.7-16.6m275.1 37.9c-1 1 .5 6.7 1.9 7.2 2.2.9 2.6-.3 1.3-4.1-1.1-3.4-2-4.3-3.2-3.1m-170.6 5c-1.8.8-5.2 2.8-7.5 4.4l-4.2 3-6-2.9c-23.4-11.4-48.9-1.8-61.4 23-8.5 17-12.4 35.4-12.5 58.2-.1 8.7-.3 15.8-.5 15.8s-3.3-2.8-6.9-6.2c-5.5-5.3-6.6-5.9-7.3-4.5-1.5 2.5 1 6.3 9.3 14.3 18.3 17.8 34.4 26.5 49.8 26.8 9.1.1 13.5-2.3 14.6-7.8.8-4.5-2.6-12.2-6-13.8-3.8-1.7-4-.6-1.2 5.1 3.3 6.5 3.3 8.1-.1 4.9-1.6-1.5-5.7-4.4-9.3-6.6l-6.5-3.9v-8.4c0-4.6.4-11.1.8-14.4.9-6.9-.3-10.3-2.7-7.3-1.8 2.4-3.9 23.3-3.5 33.5.3 5.6.1 8.3-.7 8.3-1.5 0-11.7-7.3-18.8-13.4l-5.9-5.1.6-17.5c1.3-38.4 12.8-66.1 31.4-75.5 5.4-2.8 6.5-3 17.3-3 11 0 11.8.2 18.2 3.3 3.6 1.8 8.8 5.2 11.5 7.6 5 4.5 11 12.3 10.1 13.1-.2.3-3.8-2-7.9-5.1-11.3-8.5-16.6-10.8-21.6-9.5l-2.8.8 4.2 2.1c2.3 1.2 8.1 5.7 12.8 9.9 4.8 4.3 10.1 8.6 11.8 9.5 3.6 1.9 6.7 2.3 6.7.8 0-.6.9-1.9 2.1-3.1 1.4-1.4 1.8-2.7 1.3-4.2-1.6-5.5-4.3-9.6-10-15.4l-6.2-6.3 5.4-4.3c3-2.3 5.4-5 5.4-5.9 0-1-.1-1.8-.2-1.8-.2.1-1.8.7-3.6 1.5"/><path d="M326.3 466.3c.3.9 5 8.3 10.5 16.4 17.6 26.4 28.4 45.6 29.7 52.8.6 2.9 0 3.4-13.9 13.4-8 5.7-15.3 11.2-16.2 12.2-1.5 1.7-2 1.3-8.4-6.9-7.6-9.8-17.1-19.2-19.4-19.2-3.3 0-1.3 4.2 5.8 12.3 4 4.6 10.1 12.1 13.5 16.5 3.3 4.4 6.6 8.4 7.2 8.7 1.5 1 5.1-1.8 24.3-18.4 9.1-7.9 16.6-15.2 16.6-16 0-3.7-31-53.8-40.7-65.9-3.7-4.6-10.1-8.8-9-5.9m-134.2 2.1c-3 3.6 2.1 6.5 11.7 6.8 6.9.2 9.4-1.1 7.6-4-2.3-3.5-16.9-5.7-19.3-2.8m228.1 1.3c-1.9 5.2-2.1 6.2-1.2 6.8.7.4 5-7 5-8.8 0-1.9-2.9-.3-3.8 2m58.8-.8c0 2.2 1.5 3.5 3 2.6.6-.4.5-1.3-.3-2.5-1.5-2.5-2.7-2.5-2.7-.1m227.5 3.7c-2.7 2.8-12.6 23.2-17.1 35.7-4.6 12.6-6 19.4-4.5 21.6 1.4 2.2 3.8.6 4.6-3.1 1.8-9.2 8.8-26.1 15.5-37.8 5.5-9.4 6.6-21.4 1.5-16.4m-421.8 10.2c-.6.9 5.3 21.9 9.5 33.7 3 8.3 7.8 15.8 9.2 14.4.4-.4-1.3-6.9-3.8-14.5-2.4-7.7-5.2-16.8-6.2-20.4-2.2-8.3-5-14-6.9-14-.7 0-1.6.3-1.8.8m511.9 1.6c-1.1 1.5-4.1 10.6-6.7 20.1-13 46.9-31 83.9-48.2 99-9.2 8-22.8 13.3-31.2 12s-15-3.8-19.2-7.2c-2.4-2-4.6-3.3-4.9-3-2 2 4.8 10.8 10.6 13.7 9.3 4.8 24.7 4.3 35.6-1 14.5-7.1 31.2-29 44.6-58.4 9.7-21.5 22.4-65.2 21.6-74.5l-.3-3.6zm-524.2 4.7c-.3.6.1 2.7.9 4.7.8 2.1 3.6 10.4 6.2 18.7 5.3 16.7 7.7 21.5 10.7 21.5 1.5 0 1.8-.4 1.3-1.8-.8-2.1-6.3-19.4-9.9-31.2-1.4-4.7-3.2-9.5-4.1-10.8-1.7-2.4-4-2.9-5.1-1.1m179.2 10.7c-.8 1.4 4.3 28.6 7 37.4 3 9.6 7.1 16.8 9.7 16.8 2.1 0 2.1-.4-.2-6.5-1.7-4.4-2.8-9.3-7.2-31.3-.6-2.9-1.7-5.6-2.4-5.9-.8-.2-2.1-2.9-3-5.9-1.5-5-2.7-6.5-3.9-4.6m-189 5.1c-.6 1 12.5 26.3 15.2 29.3 1.4 1.6 5.2 2.5 5.2 1.3 0-1.1-12.4-26.1-14.2-28.8-1.9-2.6-5.1-3.6-6.2-1.8m500.9 1.3c-6.7 2.2-22.6 2.9-35 1.5-9.2-1-6.5.7 3.7 2.3 11.3 1.8 29 .9 35.1-1.8 2.6-1.1 4.7-2.6 4.7-3.1 0-1.5-1.4-1.3-8.5 1.1M251 509.4c0 1.6 7.8 13.6 11.3 17.3 1.8 2 4.7 3.1 4.7 1.8 0-1-9.2-17.1-10.7-18.7-1.9-2.2-5.3-2.4-5.3-.4m-40.3 53.3c-2.1 2 1.8 26.6 6.8 43.1 7.7 25.3 24.1 53.8 33.7 58.5 5.1 2.5 4.9-.3-.6-6.4-10.2-11.4-22.8-35.3-28-53.4-1.5-5-4-15.8-5.6-24-1.7-8.3-3.3-15.8-3.6-16.8-.6-1.8-1.6-2.2-2.7-1m210.4 10.2c-1.8 1.2-.6 3 3.3 4.7 1.9.8 2.4 1.3 1.3 1.4-2.9 0-1 1.7 2.5 2.3 1.8.3 15 .1 29.3-.4 50-1.7 91.8-2.9 92.1-2.6.6.6-17.1 34.2-18.1 34.2-.5 0-4.4-6.4-8.5-14.2-7.8-14.6-10.3-18.3-12.6-18.3-1.1 0-1.1.6-.3 2.7 2.2 5.8 13.9 28.4 16.3 31.6 1.4 1.9 2.6 3.7 2.6 4.2 0 .4-6.8 13.5-15.1 29.2-15.5 29.2-22.9 44.3-22.9 46.7 0 1-5.1 1.4-24.6 2-13.5.4-24.9.4-25.3.1-1-1.1 18.3-36.5 19.8-36.5.3 0 3.3 3.9 6.5 8.6 5.5 7.9 17.2 20.1 18.3 19 .6-.6-2.2-6-6.7-12.6-5.2-7.7-23.3-38.9-32-55-10.1-18.9-18.4-32.9-21.8-36.9-3.1-3.8-5.2-3.5-5.2.5 0 1.6-.4 2.3-1.1 1.8-.6-.3-.8-1.5-.6-2.6.5-1.6.3-1.7-1-.7-.8.7-7.4 13-14.5 27.4-12.3 24.5-32.5 63.7-42.5 82.3l-4.4 8.3-3.9-3.1c-13.8-10.9-43.9-17.6-67.9-15.1-5.9.6-13.5 1.8-16.7 2.6-20.3 5.2-35.7 16.4-42.7 31.2-3 6.4-3.2 7.5-3.2 17.8 0 10.4.2 11.4 3.3 17.7 7.8 16 25 28 62.5 43.8 8.1 3.4 14.7 6.3 14.7 6.5 0 .1-3 6.4-6.6 13.8l-6.5 13.5-5.2.6c-2.9.3-19.1 1-36.2 1.6-17 .7-32.1 1.4-33.5 1.7-6.1 1.3 2.6 2.2 24 2.4 14.9.1 21 .4 18 1-2.5.4-8.2.8-12.7.8-8.2.1-13.3 1.2-13.3 3 0 1 32.8.4 46.8-.8 6.4-.5 8.2-.4 8.2.6 0 2.6 2.9 1.2 6.3-3 1.9-2.3 9.6-16.4 17.1-31.2 7.4-14.9 21.6-42.4 31.6-61.3 9.9-18.9 18-34.7 18-35.2 0-2.3 1.7-.6 4.2 4.2 1.6 2.9 2.3 4.7 1.6 4-1.4-1.4-2.8-1.6-2.8-.4 0 .4 2.1 4.3 4.6 8.7 8.4 14.6 25.5 46.8 28.1 52.9 1.4 3.4 3.8 8.6 5.4 11.7l2.8 5.6-5.7 9.4c-10.9 17.8-16.4 26-18.2 26.9-1.1.6-16.6 1-38.5 1-31.4 0-37 .2-39.7 1.6-1.7.9-2.6 1.9-2.2 2.4 1.1 1 81.2 1.8 83.9.8 1.1-.5 4.1-3.9 6.7-7.7l4.8-6.9 12.2 4c6.8 2.1 14.2 4.2 16.5 4.5 3.3.4 4.8 1.4 7.3 4.4 3.8 4.7 5.4 5 4.8.8-.6-4.1 6-19.1 29.9-68.4 9.9-20.4 19.5-40.7 21.4-45.3l3.3-8.2 2.3 2.7c6.8 8.1 21.1 31.7 40.6 66.9 2.1 3.8 5.1 8.8 6.7 11l3 4.2-4.6 7.8c-2.6 4.4-7.5 12.3-11.1 17.6l-6.5 9.8-21.1.1c-11.7.1-27.7.1-35.7 0-14.2-.1-20.9 1-21.7 3.5-.4 1.1 34.9 2.4 65.7 2.4 13.3 0 14.8-.2 16.8-2 3.5-3.3 14.2-19.8 17.7-27.3l3.2-6.9 8.9 15.7c8.7 15.4 17.3 27.1 15.8 21.5-1.1-4.3-18.7-37.6-32.4-61.5-3.1-5.5-11.5-20.6-18.5-33.5s-15.4-28.4-18.7-34.4c-3.2-5.9-5.7-11.1-5.4-11.4.9-.8 33-2.1 58.1-2.2 29.7-.2 51.2-1.3 52.7-2.8.9-.9.6-1.2-1.4-1.2-6 0-6.2-.7-1.7-8.9 2.3-4.2 5.3-9.3 6.7-11.4l2.5-3.7 5.8 10.5c3.1 5.8 7.2 12.3 9.1 14.3 1.8 2.1 4.6 6.3 6.2 9.4 2.9 5.3 2.9 5.6 1.4 8.9-.9 1.9-3 6.9-4.8 11.3-1.7 4.3-3.8 9.2-4.7 10.9l-1.5 3-1.9-2.4c-1.1-1.3-6.2-8.5-11.4-16-8.2-11.8-10.9-14.9-13.1-14.9-1.2 0 .2 2.8 6.4 13.2 3.8 6.2 8.5 14.2 10.6 17.8 2 3.6 4.1 7.2 4.8 8.1.9 1.3-2.4 8.4-17.2 37.5-25.7 50.3-27.2 53.4-27.7 57.9l-.4 4 1.9-2.3c1.6-1.8 3.1-2.2 7.4-2.2 3.6 0 4.8.3 3.8 1-.8.5-1.2 1.1-.9 1.4.2.3 18.3.8 40.1 1.2 45 .8 41.9 1.3 47.9-7.5 2.6-4 5.4-6.4 11.7-10.1 4.5-2.8 8.7-5 9.2-5s2.2 2.4 3.9 5.2c3.5 6.1 10 13.9 10.1 12.1 0-2.2-47.4-93.4-70.7-135.8-32.8-59.6-52.3-90.9-70.9-114.2l-8.2-10.2 28.1-.3c15.5-.2 28.9-.7 29.8-1.2 1.3-.6 1.9 0 2.8 2.7.6 1.9 2.5 5.5 4.1 8l3 4.7-4.8.1c-2.6.1-9.4.5-15.2.9-10.1.8-9.9.8 5.2.6l15.8-.1 6.5 9c3.5 4.9 6.5 9.3 6.5 9.7 0 .5-3.9.8-8.7.8-9.2 0-16.3.8-16.3 1.9 0 .3 6.1.5 13.6.3 12.2-.3 13.7-.1 15 1.5 2.6 3.5 1.7 4.2-5.8 4.6-7.2.4-7.2.4 1 .3l8.2-.1 17.9 27c26.8 40.6 89.8 138.8 105.2 163.9l13.5 22.1-11.5.7c-6.4.4-19.2 1.1-28.6 1.7-10.6.6-19.1 1.6-22.5 2.7l-5.5 1.7 3.5 1c1.9.5 6.9.7 11 .4 5.4-.4 6.8-.2 5 .5-1.9.7-2.2 1.1-1 1.6.8.4 23.2.5 49.7.2 36.7-.4 48.5-.8 49.5-1.8 1-.9-5.1-1.2-30.2-1.4-23-.1-28.7-.3-21-.8 5.8-.4 22-.9 36-1 23.9-.2 31.9-.8 29.5-2.2-.6-.3-10.2-.9-21.5-1.3-33.3-1.2-38.6-2.1-13.1-2.2 25.1-.2 31.4-1.6 11.4-2.7-7-.3-18-.9-24.3-1.3l-11.5-.6-12.7-20.7c-7.1-11.4-12.8-21-12.8-21.3 0-.4 1.3-1.3 2.8-2.1 4.7-2.4 11.3-8.4 16.5-14.8 15.4-19.3 18-41.2 6.7-58.8-7.4-11.5-19.3-19.5-36.5-24.5-15.7-4.5-37.2-4.3-48.1.5l-4.2 1.8-12.8-19.7c-7-10.8-18.3-27.8-25.1-37.8S649 613.7 649 613.2c0-.6-.4-1.2-.8-1.4-.5-.2-5.2-6.3-10.5-13.7s-11.7-16-14.4-19.2c-4.5-5.5-5.1-5.9-10.3-6.5-3-.4-28.9-.3-57.5.2-61.4 1-99.7 1-119 .1-7.8-.4-14.6-.3-15.4.2m133.8 9.8c1 1.9.9 2.2-.4 1.7-.8-.4-1.5-1.5-1.5-2.7 0-2.3.2-2.2 1.9 1m-121.5 28.8c9.9 14.7 24.6 39.7 24.6 41.8 0 .6-1.6 3.9-3.6 7.2-6.9 11.3-17.1 30-18.1 33l-1 3-25.9-.1c-19.6-.1-27.7-.6-33.3-1.8-4.1-.8-7.8-1.9-8.2-2.3-.5-.5 4.1-10.3 10.2-21.8 15.8-30.2 36.7-72.4 38.1-76.7l1.1-3.8 3.4 3.8c1.8 2 7.6 10 12.7 17.7m53.6 90.6c0 1.4-8.9 24.2-9.9 25.2-.4.4-3-2.5-5.8-6.5s-6.9-9.5-9.2-12.3c-2.2-2.7-4.1-5.3-4.1-5.7 0-.8 6.6-1.4 19.8-1.6 6-.1 9.2.2 9.2.9m-63.3 1.1 24.2.3 4.7 4.5c5.3 5.2 21.4 24.6 21.4 25.9 0 .4-7.3 16.1-16.1 34.7-8.9 18.6-18.7 39.6-21.8 46.6s-5.9 12.8-6.3 12.8c-1.1 0-9.2-14.6-25.6-46.5-27.3-53.2-34.4-65.7-41.4-73.1-5.2-5.5-4-5.9 17.5-5.7 10.5.2 30.1.4 43.4.5m-96.7 11c4.7 2 14 10.3 14 12.5 0 .7-3-1.1-6.7-3.9-3.8-2.8-9.6-6.4-13-8.1-3.5-1.6-6.3-3.1-6.3-3.3 0-.9 7.5.9 12 2.8"/><path d="M419.1 629.7c-1.8 3.8-7 13.1-11.6 20.8-9.5 16.1-11.5 19.9-11.5 21.7 0 2.1 2.5-1.1 8.1-10.2 10.8-17.8 21.2-39 19.1-39-.4 0-2.3 3-4.1 6.7m8.4 3.5c-1 1.8-5.1 9-9.1 15.9-7.2 12.2-8.4 14.9-6.5 14.9 1.1 0 15.6-25.3 17.2-29.9 1.5-4.4.4-5-1.6-.9m-106.2-53.5c-.7.2-1.3 1.1-1.3 1.8 0 2.3-5.8 12.3-11.5 20-7.1 9.5-7.2 13-.1 6.5 9.4-8.7 17.2-21.9 15.9-26.9-.5-2.2-.9-2.3-3-1.4M227 595.8c0 .8 11 8.3 15.8 10.7 5.4 2.6 18.1 5.5 24.1 5.4l5.6-.1-7.7-1.3c-11-1.8-16.3-3.8-26.8-10-9.1-5.4-11-6.2-11-4.7m56.5 5.1c-.7 1.2 3.9 15.8 7.5 23.7 3.2 7 11.6 19.7 15.7 23.6 3.1 3 8 5.2 8.7 3.9.3-.4-1.3-2.5-3.5-4.7-7.7-7.5-18.5-27.4-23.8-43.7-1.2-3.5-3.3-4.8-4.6-2.8M351 743.5c0 .4.7 2 1.6 3.7s3.4 7.8 5.5 13.6l3.9 10.4-4 8c-2.5 5.1-3.7 8.5-3.1 9.1 1.1 1.1 3.1.1 3.1-1.6 0-.7 1.2-3.7 2.6-6.6l2.5-5.5 2.4 5.2c1.8 3.8 3 5.2 4.5 5.2 2.6 0 2.6-.6-1.1-8.4l-3.1-6.7 2.5-5.9c3.1-7 2.1-9-1.2-2.3-1.2 2.5-2.3 4.4-2.5 4.2s-2-4.2-4.1-8.9c-4-9.1-7.1-14-8.6-14-.5 0-.9.2-.9.5m134.5 24.3c-10.2 16.3-11.5 18.7-11.5 20.9 0 1.3.4 2.3.8 2.3.9 0 15.3-24.7 16.5-28.2.3-1 .2-2-.2-2.2-.5-.3-3 2.9-5.6 7.2m6.2 20.9c-5.1 10.1-5.2 10.3-3.7 10.3 1.4 0 9.3-16.5 8.8-18.2-.3-.7-2.6 2.9-5.1 7.9M272 846c-11.9.7-18 2-18 3.7 0 .7 10.3.7 50.7 0 9.5-.1 14.6-.6 15.4-1.4 1-1 .9-1.3-.2-1.7-2.8-.9-35.7-1.3-47.9-.6"/></svg>