<svg version="1.0" xmlns="http://www.w3.org/2000/svg"
 width="1040.000000pt" height="1041.000000pt" viewBox="0 0 1040.000000 1041.000000"
 preserveAspectRatio="xMidYMid meet">
<g transform="translate(0.000000,1041.000000) scale(0.100000,-0.100000)"
fill="#000000" stroke="none">
<path d="M1595 9235 c-65 -35 -62 -42 23 -48 150 -10 276 -96 344 -234 31 -64
33 -74 33 -173 0 -94 -3 -111 -27 -160 -80 -162 -260 -249 -426 -206 -173 44
-277 150 -305 309 -9 55 -8 71 11 132 14 44 38 92 67 130 25 33 44 64 42 70
-2 5 -15 11 -30 13 -38 5 -100 -56 -139 -136 -31 -63 -33 -73 -33 -172 0 -102
1 -109 38 -182 170 -344 679 -345 840 0 27 59 31 79 35 177 4 94 1 120 -18
174 -42 126 -125 223 -242 282 -77 39 -167 49 -213 24z"/>
<path d="M1563 9020 c5 -36 2 -41 -26 -59 -31 -20 -32 -20 -53 -1 -43 41 -79
10 -46 -38 18 -26 19 -28 1 -67 -22 -47 -23 -74 -8 -109 14 -30 67 -50 108
-41 25 5 31 2 50 -28 27 -44 27 -49 -9 -69 -55 -31 -27 -80 35 -61 31 10 36 9
50 -13 8 -13 22 -24 31 -24 15 0 14 10 -3 57 -3 6 4 16 15 22 17 9 23 6 36
-14 26 -39 39 -31 32 18 -5 34 -3 47 9 57 36 30 55 94 39 135 -9 22 -57 45
-97 45 -31 0 -34 3 -49 50 l-16 49 34 20 c52 31 40 51 -30 51 -24 0 -38 7 -54
30 -33 45 -56 40 -49 -10z m60 -156 c18 -50 17 -59 -11 -66 -14 -4 -24 6 -42
40 -23 43 -24 45 -5 58 30 22 40 17 58 -32z m-107 -61 c19 -25 17 -33 -6 -33
-15 0 -20 7 -20 25 0 29 8 32 26 8z m239 -53 c3 -5 2 -17 -3 -26 -9 -17 -14
-13 -25 19 -7 18 17 25 28 7z m-67 -35 c16 -35 15 -43 -8 -55 -18 -10 -22 -7
-36 25 -8 20 -12 40 -9 45 12 19 42 10 53 -15z"/>
<path d="M7650 8758 c-132 -46 -224 -126 -283 -247 -30 -63 -32 -72 -32 -181
0 -111 1 -118 33 -183 67 -136 207 -233 353 -244 179 -13 351 74 415 212 25
52 31 95 14 95 -5 0 -49 -40 -97 -88 -110 -110 -156 -134 -273 -140 -113 -5
-177 18 -260 95 -85 78 -115 144 -115 249 0 73 4 88 37 156 45 91 103 147 196
191 135 64 277 35 389 -80 29 -29 68 -82 88 -118 20 -36 39 -65 42 -65 3 0 3
26 1 58 -11 116 -89 216 -216 275 -91 42 -198 48 -292 15z"/>
<path d="M2585 8705 c-47 -46 -18 -105 53 -105 48 0 62 14 62 61 0 66 -68 92
-115 44z"/>
<path d="M7876 8534 c-9 -20 -43 -69 -75 -108 -96 -119 -181 -238 -187 -262
-7 -27 1 -54 15 -54 6 0 22 17 38 38 35 47 114 141 177 212 98 109 128 178 87
200 -30 16 -36 13 -55 -26z"/>
<path d="M7602 8484 c-12 -8 -22 -19 -22 -24 0 -5 -11 -26 -25 -46 -30 -45
-32 -73 -4 -108 24 -30 64 -34 109 -11 42 22 60 53 60 106 0 40 -4 51 -31 73
-35 30 -56 32 -87 10z m48 -85 c0 -23 -37 -62 -53 -56 -14 5 -12 53 3 72 15
18 50 7 50 -16z"/>
<path d="M7858 8354 c-17 -9 -28 -23 -28 -37 -1 -12 -7 -33 -15 -47 -21 -37
-18 -58 14 -91 65 -64 171 -7 171 91 0 42 -15 67 -50 85 -36 19 -57 18 -92 -1z
m72 -88 c0 -28 -22 -49 -47 -44 -25 5 -29 39 -7 55 29 21 54 16 54 -11z"/>
<path d="M7052 8160 c-12 -5 -27 -21 -34 -35 -16 -35 12 -65 62 -65 43 0 60
14 60 51 0 41 -44 66 -88 49z"/>
<path d="M3620 7879 c-30 -5 -87 -25 -126 -44 -279 -137 -343 -533 -119 -744
194 -184 529 -173 688 21 74 90 111 202 97 292 -7 46 -52 126 -71 126 -9 0 -8
-15 7 -100 6 -38 -13 -137 -36 -186 -35 -71 -104 -140 -178 -176 -62 -31 -74
-33 -167 -33 -93 0 -105 2 -172 34 -147 69 -226 189 -226 346 0 226 164 395
383 395 86 0 161 -25 243 -80 68 -45 72 -46 81 -24 11 28 -27 77 -84 112 -94
56 -214 79 -320 61z"/>
<path d="M3783 7653 c-31 -6 -81 -66 -88 -106 l-7 -34 -36 13 c-71 25 -158 9
-181 -34 -21 -38 -13 -96 19 -144 68 -102 274 -205 357 -177 60 20 100 154 89
297 -11 133 -66 201 -153 185z m50 -80 c8 -10 21 -40 28 -66 22 -91 -12 -267
-52 -267 -16 0 -17 3 -8 28 6 15 12 64 12 109 1 91 -15 123 -60 123 -21 0 -23
2 -12 23 16 31 50 67 64 67 7 0 19 -8 28 -17z"/>
<path d="M8660 6710 c-51 -10 -93 -34 -129 -75 -124 -142 -176 -471 -111 -705
12 -41 24 -78 28 -82 4 -4 7 68 8 160 1 296 53 495 153 585 41 37 57 42 121
37 35 -2 143 -51 155 -70 4 -6 -4 -10 -19 -10 -14 0 -41 -14 -61 -31 -65 -57
-95 -211 -95 -486 l0 -151 -122 -52 c-158 -67 -463 -169 -660 -219 -84 -22
-327 -78 -539 -125 -213 -47 -440 -102 -505 -121 -153 -46 -275 -105 -310
-150 -57 -75 -81 -285 -33 -285 5 0 9 26 9 58 1 31 7 71 15 87 l13 30 1 -42
c1 -23 6 -65 12 -93 7 -33 8 -55 2 -61 -42 -42 -413 -163 -594 -194 -52 -9
-122 -23 -156 -32 l-63 -15 -67 40 c-88 51 -252 125 -367 164 -180 61 -285 48
-416 -51 -56 -42 -68 -47 -89 -39 -45 16 -133 10 -206 -15 -75 -26 -286 -119
-321 -142 -12 -7 -50 -26 -85 -40 -74 -32 -86 -30 -294 35 -142 44 -225 78
-225 93 0 6 7 49 16 95 9 47 14 107 12 134 -3 44 -1 48 17 46 30 -4 45 -45 45
-123 0 -73 8 -99 26 -87 34 22 50 113 34 182 -23 96 -107 127 -209 78 -174
-82 -483 -560 -638 -988 -122 -336 -147 -672 -61 -804 43 -66 92 -80 164 -47
64 29 110 77 185 190 72 109 114 213 107 268 -3 26 -6 22 -37 -37 -52 -101
-137 -227 -194 -287 -74 -78 -96 -85 -43 -13 47 64 134 236 181 356 l27 71 50
6 c80 10 320 -11 394 -34 37 -11 106 -39 155 -61 77 -35 87 -43 79 -59 -15
-28 -12 -97 7 -137 43 -90 148 -158 210 -136 34 12 42 34 12 34 -39 0 -110 41
-139 81 -36 51 -46 103 -25 135 28 43 93 28 176 -38 34 -27 37 -34 44 -101 12
-124 42 -167 124 -175 33 -3 60 1 82 12 17 9 33 16 35 16 1 0 6 -15 9 -32 18
-82 58 -112 146 -111 55 1 102 26 148 78 17 19 32 35 35 35 2 0 7 -16 10 -35
9 -47 65 -101 118 -116 86 -23 206 9 328 87 67 44 78 60 55 83 -14 14 -26 10
-126 -43 -86 -45 -123 -59 -168 -63 -106 -10 -151 35 -151 150 0 107 54 247
95 247 21 0 42 -48 65 -147 28 -120 40 -126 40 -22 0 109 -20 179 -62 214 -37
31 -68 28 -111 -13 -34 -33 -111 -171 -126 -227 -13 -51 -64 -121 -102 -140
-41 -22 -96 -19 -109 4 -41 78 30 363 113 449 51 52 80 42 148 -54 34 -46 34
-46 37 -19 5 43 -25 111 -65 146 -32 27 -41 31 -80 26 -30 -3 -54 -14 -72 -31
-15 -14 -30 -26 -33 -26 -3 0 -8 19 -11 42 -7 52 -35 90 -75 102 -26 7 -41 4
-79 -16 -63 -32 -114 -101 -155 -209 l-33 -87 -38 34 c-65 54 -123 77 -184 71
-48 -5 -58 -2 -101 26 -63 43 -188 91 -292 113 -116 25 -461 25 -602 1 -54 -9
-100 -17 -102 -17 -10 0 47 189 90 298 64 164 161 345 267 497 49 72 93 134
97 138 5 5 68 -18 141 -51 123 -55 205 -84 361 -127 75 -21 88 -38 58 -70 -50
-54 -16 -45 220 55 361 153 501 203 520 184 5 -5 -7 -42 -32 -94 -84 -177 -95
-238 -53 -288 31 -37 72 -45 159 -33 100 14 184 58 264 138 38 37 75 79 83 92
l16 25 79 -28 c216 -76 550 -292 635 -409 35 -49 38 -102 8 -167 -20 -45 -56
-90 -70 -90 -5 0 -43 32 -86 70 -82 74 -197 140 -242 139 -14 0 -35 -4 -46 -8
-19 -8 -19 -8 2 -15 45 -14 175 -108 253 -182 79 -76 80 -77 80 -126 0 -72
-50 -158 -92 -158 -22 0 -146 61 -203 100 -65 44 -125 71 -151 68 -38 -5 -32
-20 22 -55 27 -17 81 -54 120 -82 39 -27 92 -60 118 -73 44 -21 47 -25 42 -53
-8 -38 -51 -100 -88 -127 -69 -49 -114 -40 -253 52 -82 54 -135 74 -135 52 0
-21 183 -162 243 -187 72 -30 142 -15 211 45 43 38 96 124 96 157 0 16 11 28
38 42 21 11 51 38 65 60 30 46 62 152 54 183 -4 13 11 41 44 84 77 103 96 202
54 285 -74 142 -486 413 -732 481 -72 20 -82 26 -85 48 -3 22 -8 18 -56 -42
-126 -159 -297 -274 -377 -254 -33 8 -33 47 -1 120 85 192 270 356 400 356
111 0 359 -96 553 -213 61 -37 117 -67 123 -67 9 0 11 11 7 35 -3 19 -4 35 -1
35 24 0 362 65 417 80 90 25 95 25 70 -2 -34 -37 -37 -64 -14 -114 35 -73 105
-83 156 -22 44 52 28 124 -35 156 l-37 18 41 13 c83 26 184 73 248 115 l66 43
57 -50 c69 -61 176 -197 237 -303 46 -79 126 -279 116 -290 -3 -2 -43 -14 -89
-25 -226 -54 -491 -193 -715 -376 -290 -237 -434 -348 -480 -371 -30 -14 -54
-30 -54 -34 0 -15 76 -7 120 13 51 23 85 48 335 244 99 78 221 169 272 203 96
64 293 172 316 172 7 0 31 -44 55 -98 58 -136 155 -296 213 -354 44 -44 46
-48 21 -42 -68 15 -121 52 -215 149 -104 106 -113 104 -54 -8 35 -66 125 -154
189 -186 61 -29 144 -29 189 2 110 72 119 308 23 623 -91 301 -237 596 -402
813 -55 71 -176 191 -193 191 -20 0 -7 17 24 29 170 68 309 106 698 190 512
111 759 179 1043 288 306 117 496 223 648 362 l67 62 47 -63 c55 -76 151 -269
194 -393 102 -295 171 -691 185 -1070 l6 -150 -91 -80 c-127 -112 -246 -191
-428 -283 -364 -186 -811 -352 -1272 -473 -418 -109 -453 -119 -490 -139 l-35
-19 47 -1 c155 -1 772 153 1130 283 157 57 383 146 472 186 38 17 70 30 71 29
1 -2 18 -52 39 -113 104 -303 265 -535 372 -535 39 0 39 0 18 -43 -74 -142
-188 -183 -322 -116 -89 44 -190 151 -271 285 -37 60 -71 109 -76 109 -18 0
-17 -87 1 -134 36 -96 136 -224 234 -299 102 -78 241 -104 338 -62 168 73 277
332 334 800 17 137 17 780 0 945 -61 596 -153 944 -355 1341 -206 403 -454
625 -657 584z m-2246 -2072 c12 -20 -8 -48 -35 -48 -16 0 -18 5 -13 28 12 48
26 54 48 20z m-1798 -863 c21 -50 18 -79 -15 -138 -34 -59 -61 -156 -61 -215
0 -32 -6 -45 -30 -65 -42 -36 -67 -41 -95 -23 -26 17 -30 35 -26 111 6 111 75
280 135 333 48 42 73 42 92 -3z"/>
<path d="M1527 6556 c-206 -74 -414 -406 -597 -956 -150 -448 -225 -836 -238
-1235 -16 -472 19 -831 114 -1178 103 -375 269 -655 437 -736 95 -46 210 -17
300 75 96 97 182 324 194 513 5 78 4 93 -8 89 -24 -8 -47 -59 -79 -178 -43
-159 -76 -243 -124 -313 -78 -112 -169 -151 -254 -108 -54 28 -58 37 -14 33
27 -3 45 2 64 18 83 65 153 359 174 730 4 66 8 120 9 120 2 0 58 -22 126 -49
184 -72 383 -135 606 -190 230 -57 367 -76 502 -69 92 5 181 29 181 49 0 5
-56 9 -125 9 -68 0 -175 7 -237 16 -112 15 -363 75 -468 112 l-55 19 -3 129
c-4 158 16 312 68 524 58 232 98 346 199 553 50 103 94 200 98 215 6 25 5 26
-11 12 -51 -41 -192 -296 -256 -461 -56 -146 -157 -481 -185 -615 -15 -71 -29
-171 -32 -222 l-6 -93 -26 6 c-96 24 -481 191 -863 376 -216 104 -237 116
-242 143 -10 47 -7 483 4 622 26 316 111 660 240 967 18 43 36 76 39 75 3 -2
38 -19 76 -39 290 -151 829 -248 1515 -274 218 -8 658 -42 789 -60 117 -17
244 -49 279 -72 28 -18 32 -15 21 14 -22 59 -153 111 -329 132 -131 16 -428
39 -725 56 -355 20 -557 40 -795 76 -107 17 -196 32 -198 33 -1 2 -7 86 -12
187 -24 437 -69 689 -136 756 -25 25 -48 28 -91 12 l-28 -10 30 32 c35 37 118
79 158 79 36 0 75 -21 108 -57 86 -95 129 -258 165 -630 9 -100 21 -180 25
-178 35 22 45 386 15 539 -31 158 -85 283 -152 350 -61 61 -161 82 -247 52z"/>
<path d="M5450 6038 c-50 -29 -87 -65 -106 -107 -9 -20 -29 -54 -44 -76 -39
-58 -69 -147 -72 -213 -3 -55 -2 -57 24 -60 24 -3 30 3 58 65 18 37 71 125
119 196 105 156 114 172 106 197 -8 25 -39 25 -85 -2z"/>
<path d="M4507 5863 c-16 -15 -3 -37 69 -115 42 -46 112 -137 157 -203 88
-130 112 -156 142 -152 18 2 20 8 17 62 -4 78 -29 131 -94 207 -77 89 -122
128 -190 171 -60 36 -87 44 -101 30z"/>
<path d="M6156 5084 c-9 -8 -16 -19 -16 -23 0 -13 24 -31 42 -31 10 0 18 -6
18 -14 0 -23 -28 -39 -56 -32 -25 7 -26 9 -19 53 l7 47 -23 -16 c-71 -47 -31
-168 57 -168 69 0 114 45 114 113 -1 36 -14 58 -47 75 -30 16 -59 15 -77 -4z"/>
<path d="M7612 4983 c-20 -8 -33 -50 -23 -76 6 -16 39 -37 110 -71 113 -53
149 -56 168 -16 24 50 8 69 -105 121 -101 47 -122 53 -150 42z"/>
<path d="M8781 4681 c-68 -73 -76 -155 -18 -175 36 -13 53 -2 95 58 37 55 41
97 12 126 -28 28 -57 25 -89 -9z"/>
<path d="M6452 4425 c-61 -65 -57 -126 10 -161 87 -45 189 57 144 144 -39 75
-94 81 -154 17z m63 -36 c12 -3 21 -14 23 -27 3 -20 0 -23 -19 -20 -24 3 -52
45 -42 61 3 5 8 5 12 -1 3 -5 15 -11 26 -13z"/>
<path d="M6480 3793 c-31 -11 -49 -36 -55 -74 -9 -51 9 -95 46 -114 41 -22 63
-18 98 14 27 25 31 36 31 80 0 42 -5 57 -25 76 -23 24 -60 31 -95 18z m50 -87
c0 -25 -12 -46 -26 -46 -17 0 -18 14 -2 40 15 23 28 26 28 6z"/>
<path d="M2342 3765 c-39 -33 -62 -83 -62 -138 0 -103 117 -161 206 -102 32
20 63 88 64 135 0 46 -28 101 -60 117 -44 22 -115 16 -148 -12z"/>
<path d="M6515 2625 c-29 -28 -31 -54 -10 -94 16 -33 33 -41 81 -41 71 0 108
77 63 134 -29 36 -99 37 -134 1z"/>
<path d="M7956 2529 c-204 -42 -358 -206 -388 -414 -34 -237 114 -435 372
-501 207 -52 406 50 511 261 37 74 42 93 47 173 4 81 2 95 -21 145 -27 60 -70
98 -89 79 -8 -8 -7 -32 7 -91 34 -150 5 -265 -96 -375 -72 -79 -150 -116 -244
-116 -259 0 -443 192 -405 423 21 135 101 241 222 298 68 32 80 34 178 34 99
0 109 -2 189 -37 47 -21 87 -36 89 -34 2 2 -3 18 -12 34 -22 42 -89 97 -137
111 -57 17 -165 22 -223 10z"/>
<path d="M8189 2136 c-68 -27 -109 -52 -186 -112 l-58 -45 -7 41 c-10 59 -49
124 -76 128 -16 3 -22 -2 -22 -16 0 -43 52 -218 70 -236 24 -24 36 -19 145 59
44 31 114 74 156 96 64 32 89 53 89 74 0 9 -33 35 -43 35 -7 0 -37 -11 -68
-24z"/>
<path d="M2753 1982 c-82 -29 -163 -103 -163 -149 0 -21 43 -15 83 13 80 54
138 74 214 74 158 0 273 -82 309 -219 29 -117 -10 -244 -108 -348 -71 -74
-142 -107 -232 -107 -213 -1 -340 150 -346 409 0 36 -29 -18 -41 -78 -20 -96
28 -223 113 -303 184 -175 497 -143 635 64 55 81 75 152 75 261 1 184 -64 291
-221 364 -58 28 -78 32 -166 34 -77 3 -112 -1 -152 -15z"/>
<path d="M2960 1764 c-83 -28 -115 -59 -90 -89 9 -11 16 -11 45 1 68 28 66 11
-11 -84 l-43 -52 -32 47 c-35 53 -56 73 -76 73 -14 0 -91 -114 -112 -166 -14
-35 -11 -100 4 -98 6 0 30 38 55 84 25 46 50 85 55 86 6 2 24 -18 40 -44 31
-49 70 -76 91 -64 7 4 42 45 78 91 53 68 67 80 72 65 15 -50 38 -68 48 -37 13
41 11 160 -3 177 -13 16 -84 21 -121 10z"/>
<path d="M8780 1497 c-36 -18 -40 -70 -7 -92 33 -21 75 -10 88 22 10 28 -2 57
-31 73 -23 12 -20 12 -50 -3z"/>
</g>
</svg>
