<svg version="1.0" xmlns="http://www.w3.org/2000/svg"
 width="1041.000000pt" height="1041.000000pt" viewBox="0 0 1041.000000 1041.000000"
 preserveAspectRatio="xMidYMid meet">
<g transform="translate(0.000000,1041.000000) scale(0.100000,-0.100000)"
fill="#000000" stroke="none">
<path d="M8888 9023 c-30 -35 -38 -63 -38 -132 0 -67 22 -151 40 -151 16 0 28
27 44 97 23 102 22 179 -3 193 -25 13 -25 13 -43 -7z"/>
<path d="M8470 8785 c0 -16 8 -24 75 -75 75 -57 129 -90 147 -90 49 0 20 77
-43 112 -103 58 -125 68 -151 68 -18 0 -28 -5 -28 -15z"/>
<path d="M9164 8482 c-68 -44 -132 -114 -171 -188 -17 -32 -37 -55 -56 -64
-48 -21 -69 -65 -64 -136 4 -50 16 -85 73 -198 57 -116 69 -147 72 -199 4 -64
-17 -213 -43 -304 -15 -49 -18 -53 -58 -63 -23 -6 -57 -17 -74 -25 -18 -8 -33
-11 -33 -6 0 12 46 48 71 56 22 7 26 40 5 48 -24 10 -83 -12 -115 -42 -37 -35
-41 -76 -10 -115 44 -55 221 -119 414 -148 102 -15 367 -15 421 0 74 21 97 75
57 130 -27 38 -110 92 -140 92 l-26 0 29 -22 c53 -39 114 -102 114 -117 0 -11
-5 -10 -22 6 -29 26 -87 55 -155 77 l-53 18 0 51 c1 65 25 261 34 276 4 6 33
24 64 40 85 43 135 105 124 154 -4 19 -32 24 -32 5 0 -27 -57 -81 -126 -119
-41 -23 -78 -48 -83 -58 -17 -30 -43 -245 -45 -355 l-1 -108 -65 6 c-80 8
-138 21 -211 48 l-56 19 18 61 c36 114 61 262 63 363 l1 100 -73 150 c-95 197
-96 236 -5 266 50 16 159 6 222 -22 78 -33 71 -39 -65 -63 -43 -8 -90 -19
-104 -24 l-25 -10 28 -11 c16 -6 43 -11 61 -11 41 0 52 -12 60 -72 5 -35 15
-54 37 -73 17 -14 36 -25 43 -25 7 0 18 -11 24 -24 6 -13 20 -27 31 -31 12 -3
21 -15 21 -25 0 -40 84 -54 143 -24 63 33 97 67 127 127 34 68 38 119 12 145
-17 16 -17 19 1 77 30 100 4 161 -66 153 l-35 -4 -4 54 c-8 96 -63 135 -132
93 l-33 -21 -6 41 c-13 95 -84 115 -183 51z m122 -47 c6 -26 -9 -126 -27 -172
-6 -18 -15 -23 -32 -21 -23 3 -25 16 -12 75 6 26 4 34 -10 39 -21 8 -46 -16
-61 -59 -10 -30 -14 -32 -62 -35 -29 -2 -52 0 -52 4 0 19 90 120 138 155 67
47 108 52 118 14z m160 -77 c13 -20 4 -96 -17 -153 -24 -65 -112 -201 -139
-215 -32 -17 -7 45 34 84 42 39 45 64 13 103 -22 27 -23 30 -10 75 9 31 27 58
53 82 43 38 55 43 66 24z m132 -172 c6 -47 -51 -147 -131 -230 -39 -42 -78
-76 -86 -76 -18 0 -7 42 24 95 13 22 41 71 62 110 42 77 96 139 115 133 7 -3
14 -17 16 -32z m12 -203 c0 -37 -48 -108 -93 -139 -34 -23 -97 -43 -97 -31 0
3 29 33 64 67 36 34 75 77 88 96 28 41 38 43 38 7z"/>
<path d="M7426 7443 c-136 -28 -281 -103 -375 -191 l-52 -49 -29 43 c-87 125
-316 199 -500 160 -234 -49 -396 -228 -429 -472 -33 -239 85 -451 277 -496
l50 -12 -38 -76 c-43 -85 -92 -234 -110 -330 -17 -90 -14 -280 5 -376 33 -156
112 -312 204 -398 17 -17 31 -35 31 -40 0 -15 -58 -61 -165 -133 -96 -64 -152
-126 -199 -220 -105 -210 -58 -452 112 -574 l42 -30 -76 -90 c-42 -49 -118
-134 -170 -189 -52 -55 -94 -104 -94 -109 0 -17 62 0 105 29 56 39 161 150
305 325 139 169 226 259 286 299 l41 26 64 -30 c117 -54 253 -63 401 -24 134
34 293 126 418 242 47 42 85 67 135 87 252 100 468 344 631 713 148 338 263
704 343 1097 17 83 33 160 36 173 5 22 11 18 70 -45 54 -58 66 -66 82 -57 33
20 26 49 -27 109 -27 32 -60 77 -73 100 -23 40 -23 43 -10 146 8 57 12 118 11
134 -4 39 -55 -139 -106 -368 l-37 -168 -30 5 c-70 14 -172 75 -237 144 -53
56 -73 88 -117 187 -30 66 -69 145 -88 177 -68 114 -216 222 -376 273 -91 29
-201 32 -311 8z m-1176 -254 c-53 -73 -73 -160 -68 -297 3 -86 10 -132 26
-175 27 -75 99 -175 151 -211 23 -16 40 -30 38 -32 -1 -2 -32 11 -67 28 -95
44 -144 89 -180 162 -83 168 -44 396 93 543 42 44 45 34 7 -18z m664 -506 c25
-49 46 -92 46 -95 0 -3 -12 -8 -28 -11 -33 -7 -82 -43 -82 -61 0 -7 8 -20 18
-30 18 -15 22 -15 63 4 72 32 79 29 184 -79 152 -157 357 -290 474 -307 27 -4
51 -14 59 -25 20 -29 48 -23 79 17 56 71 128 84 204 35 61 -38 83 -86 76 -161
-18 -202 -209 -311 -411 -235 -76 29 -88 17 -33 -32 l34 -30 -44 -23 c-63 -33
-138 -119 -158 -181 -24 -71 -17 -161 17 -227 l26 -50 -87 -40 c-130 -62 -196
-76 -341 -76 -145 0 -212 15 -335 74 -191 92 -317 248 -377 466 -32 121 -30
343 5 476 31 119 85 236 167 362 l61 95 37 -6 c104 -15 162 -77 162 -171 0
-76 -61 -232 -91 -232 -5 0 -21 12 -36 26 -24 24 -25 30 -22 111 3 73 1 87
-13 97 -33 20 -52 -15 -56 -103 -4 -86 16 -144 60 -175 l22 -16 -25 -26 c-13
-14 -42 -35 -64 -46 -76 -39 -92 -68 -37 -68 85 1 239 137 296 262 42 90 56
163 45 225 -17 86 -85 162 -171 188 l-43 13 120 119 120 118 17 -47 c9 -25 37
-86 62 -135z m869 -1055 c89 -62 125 -117 134 -203 11 -103 -47 -201 -142
-241 -95 -40 -236 -11 -290 60 -97 127 -35 296 140 377 73 34 116 36 158 7z"/>
<path d="M6899 6234 c-8 -9 -14 -50 -17 -102 -3 -74 0 -92 17 -119 71 -113
209 -78 315 82 31 46 31 49 10 69 -25 26 -40 19 -82 -39 -65 -93 -123 -124
-168 -91 -16 12 -19 27 -19 103 0 48 -4 94 -8 101 -11 17 -32 15 -48 -4z"/>
<path d="M6913 5668 c-5 -7 -13 -21 -16 -30 -12 -33 -58 -53 -136 -58 -74 -5
-76 -6 -79 -32 -3 -23 2 -30 25 -39 46 -18 139 -5 191 28 52 33 92 96 75 122
-13 21 -47 26 -60 9z"/>
<path d="M9636 6978 c-19 -31 -21 -37 -61 -253 -20 -104 -47 -233 -60 -285
-13 -52 -38 -151 -55 -220 -41 -161 -141 -486 -221 -715 l-63 -180 -14 50
c-22 82 -29 95 -57 95 -37 0 -40 -33 -9 -135 15 -49 29 -99 31 -110 5 -23 -26
-105 -182 -475 -229 -542 -303 -777 -354 -1124 -40 -265 -24 -499 65 -976 19
-102 37 -194 41 -205 4 -14 -8 -8 -40 23 -52 47 -59 49 -81 26 -23 -23 -21
-28 33 -88 113 -125 126 -150 151 -286 24 -138 65 -305 81 -329 18 -28 1 233
-26 394 -13 83 -47 263 -75 400 -70 346 -90 493 -97 690 -7 213 15 411 68 607
l10 38 34 -34 c42 -42 134 -87 240 -118 108 -31 310 -33 398 -4 123 40 199
118 252 257 39 100 78 139 204 204 133 68 173 101 208 172 22 47 27 71 27 128
0 129 -62 216 -239 335 -213 144 -314 256 -359 395 -9 28 -25 116 -35 197 -12
91 -28 166 -42 198 l-22 51 46 147 c138 437 237 883 237 1064 0 82 -10 103
-34 66z m220 -2215 c138 -103 186 -220 134 -327 -18 -39 -89 -106 -111 -106
-3 0 3 19 14 42 15 30 21 61 21 109 0 98 -40 174 -153 286 -49 48 -96 103
-105 121 -17 32 -17 32 56 -20 40 -28 105 -76 144 -105z"/>
<path d="M4982 5575 c-94 -21 -168 -58 -192 -97 -67 -110 -57 -285 35 -568 18
-58 43 -141 54 -185 22 -88 61 -314 61 -357 0 -25 -3 -27 -41 -25 -34 2 -45
-3 -61 -25 -18 -23 -21 -42 -21 -155 -1 -211 47 -557 108 -778 84 -306 176
-492 319 -643 154 -162 333 -240 489 -213 167 29 338 178 362 316 l8 40 -23
-30 c-13 -16 -37 -45 -53 -62 l-30 -33 -34 49 c-38 58 -47 64 -72 56 -35 -11
-33 -36 8 -99 48 -73 46 -77 -61 -126 -135 -62 -279 -49 -413 38 -64 41 -173
151 -222 223 -68 99 -169 335 -159 373 3 12 30 49 61 84 56 65 66 91 40 112
-22 18 -49 4 -91 -50 -21 -27 -42 -49 -45 -50 -15 -1 -86 362 -105 540 l-6 64
23 -17 c13 -9 34 -24 46 -33 17 -12 26 -13 42 -4 37 19 24 46 -48 105 l-69 55
-4 73 c-4 53 -1 76 9 87 12 13 60 15 311 15 256 0 307 3 372 19 91 22 129 43
137 75 9 36 -16 72 -68 98 -52 27 -107 38 -144 29 -36 -9 -26 -18 54 -50 76
-30 104 -52 82 -65 -7 -5 -34 0 -61 10 -26 10 -85 23 -132 30 l-85 12 -31 96
c-17 53 -36 122 -42 153 -22 113 -45 69 -30 -58 8 -66 34 -186 56 -256 5 -16
-4 -18 -88 -18 -52 0 -124 7 -164 16 l-71 17 -7 89 c-12 161 -47 323 -119 559
-91 298 -67 438 84 484 116 35 347 29 427 -13 38 -20 92 -93 57 -77 -11 5 -76
11 -145 12 -129 4 -175 -6 -175 -37 0 -12 15 -14 80 -12 117 5 205 -11 233
-43 27 -32 31 -81 5 -70 -10 4 -63 11 -118 17 -113 11 -179 0 -173 -30 3 -14
19 -18 93 -23 162 -10 225 -36 225 -92 0 -14 -4 -17 -17 -12 -10 5 -63 10
-119 13 -85 3 -103 2 -117 -13 -20 -19 -23 -54 -4 -56 6 -1 57 -2 112 -3 115
-3 135 -9 135 -42 0 -27 -18 -38 -75 -48 -67 -12 -72 -15 -106 -71 -24 -39
-45 -60 -74 -74 -53 -25 -74 -48 -51 -57 48 -18 150 42 176 105 10 26 19 31
59 37 64 9 109 32 125 63 20 39 26 134 15 251 -5 58 -12 129 -14 159 -9 113
-66 176 -183 200 -72 15 -263 13 -340 -4z"/>
<path d="M8281 4994 c-73 -68 -86 -95 -51 -114 25 -14 33 -9 114 67 67 62 76
79 54 101 -23 23 -46 12 -117 -54z"/>
<path d="M3290 4895 c-13 -16 -10 -96 9 -191 10 -55 46 -134 60 -134 23 0 27
82 10 206 -16 116 -45 160 -79 119z"/>
<path d="M3552 4770 c-12 -5 -27 -22 -32 -37 -6 -16 -15 -37 -21 -49 -6 -11
-9 -42 -7 -70 3 -45 5 -49 28 -49 19 0 31 12 58 60 64 112 52 176 -26 145z"/>
<path d="M3787 4613 c-69 -26 -157 -93 -157 -119 0 -26 30 -21 246 42 66 19
94 40 94 68 0 44 -80 48 -183 9z"/>
<path d="M7376 4475 c-82 -73 -235 -139 -384 -165 -73 -13 -143 -2 -234 36
-32 13 -68 24 -80 24 -21 -1 -20 -3 13 -34 134 -124 431 -107 666 40 111 69
155 136 93 141 -17 2 -40 -11 -74 -42z"/>
<path d="M1920 4304 c-356 -8 -780 -33 -824 -50 -26 -10 -19 -24 22 -41 33
-14 60 -15 262 -4 124 7 343 15 488 18 l264 6 71 -70 c40 -39 124 -112 187
-163 119 -96 210 -179 210 -191 0 -12 -46 -18 -180 -24 -69 -3 -168 -10 -220
-15 -148 -14 -462 -23 -534 -15 -53 5 -76 14 -124 46 -81 55 -257 196 -346
279 -107 99 -136 102 -136 15 0 -22 7 -161 14 -310 8 -148 20 -436 26 -640 13
-430 24 -601 40 -667 35 -136 41 10 24 552 -7 245 -18 568 -25 718 -6 151 -8
276 -5 279 5 6 6 5 171 -132 201 -166 213 -180 237 -265 21 -78 28 -218 44
-885 4 -191 9 -269 20 -294 8 -19 18 -31 22 -27 4 4 10 269 13 589 3 341 10
594 15 612 14 42 58 51 304 59 113 4 279 12 370 17 290 19 309 16 355 -62 18
-30 20 -60 27 -286 3 -139 9 -261 13 -272 11 -35 61 -46 200 -45 142 0 234 15
258 42 24 28 29 106 17 307 -14 232 -14 293 -1 327 20 54 43 58 444 79 225 12
383 25 400 32 l28 12 -20 27 c-40 50 -482 373 -581 423 -33 17 -83 18 -720 20
-377 1 -750 1 -830 -1z m721 -81 c8 -9 73 -67 145 -129 142 -123 266 -249 291
-298 17 -34 37 -241 49 -508 6 -131 5 -158 -7 -163 -20 -7 -70 -13 -181 -21
l-97 -7 -20 34 c-26 42 -28 64 -41 349 -5 129 -14 251 -20 272 -7 26 -36 60
-98 120 -95 90 -353 293 -424 333 l-43 24 190 3 c105 2 202 4 216 6 15 1 33
-5 40 -15z m828 -14 c80 -46 219 -139 349 -237 108 -81 132 -102 116 -102 -26
0 -659 -40 -702 -45 l-52 -5 -158 159 c-86 87 -188 182 -226 210 l-69 51 343
0 343 0 56 -31z"/>
<path d="M2845 3601 c-3 -6 -8 -58 -11 -118 -9 -151 13 -293 45 -293 9 0 7
393 -2 408 -10 14 -24 16 -32 3z"/>
<path d="M5709 4253 c-8 -20 -8 -69 0 -171 8 -118 16 -159 44 -240 24 -70 38
-98 52 -100 16 -4 17 1 12 39 -3 24 -12 76 -21 114 -8 39 -20 135 -26 215 -6
80 -13 151 -15 158 -8 22 -35 13 -46 -15z"/>
<path d="M4060 3680 c0 -25 -2 -281 -4 -570 -5 -656 -3 -648 -136 -669 -165
-26 -646 -67 -902 -77 -129 -6 -171 -4 -183 6 -16 13 -21 55 -6 64 5 3 18 26
30 51 37 79 22 155 -30 155 -32 0 -77 -23 -211 -107 -141 -89 -240 -127 -430
-162 -234 -44 -452 -48 -1156 -20 -338 14 -471 4 -435 -32 7 -7 8 -21 2 -42
-12 -41 -12 -119 0 -150 5 -14 24 -41 42 -61 56 -64 36 -129 -54 -174 -26 -12
-51 -31 -57 -42 -6 -11 -9 -62 -8 -114 3 -93 2 -95 -27 -126 -16 -17 -53 -42
-82 -55 -63 -30 -72 -42 -40 -54 32 -12 486 -67 727 -87 345 -29 635 -3 688
63 26 33 57 111 66 169 6 32 3 45 -12 64 l-19 24 -28 -83 c-15 -45 -38 -94
-50 -109 l-24 -27 -17 40 c-9 22 -19 78 -21 125 l-5 85 109 49 c243 111 326
127 728 136 296 7 327 9 415 33 121 31 210 72 306 138 82 57 138 118 149 162
9 33 1 31 228 52 214 19 429 50 456 65 43 22 46 65 46 625 0 541 -4 608 -41
675 -13 24 -13 24 -14 -20z m-1271 -1172 c-12 -23 -50 -82 -85 -129 l-63 -86
42 -2 c23 0 159 -3 302 -5 143 -2 275 -8 294 -13 l35 -9 -81 -61 c-198 -149
-335 -183 -737 -183 -350 0 -508 -27 -704 -120 -46 -22 -86 -40 -88 -40 -17 0
14 254 44 365 l8 30 124 7 c317 17 562 76 715 170 156 97 209 128 212 124 3
-2 -5 -24 -18 -48z m-1776 -367 c35 -39 44 -60 31 -74 -11 -11 -57 19 -103 67
-37 38 -42 47 -32 60 11 14 17 14 40 1 15 -7 44 -32 64 -54z m387 -175 c0 -19
-13 -33 -57 -60 -59 -37 -87 -44 -99 -25 -14 23 93 107 139 109 11 0 17 -8 17
-24z m-425 -331 c0 -14 -16 -29 -50 -47 -57 -32 -90 -33 -90 -3 0 14 16 28 55
48 61 31 85 31 85 2z m507 -22 c46 -50 59 -89 33 -99 -31 -12 -124 88 -104
113 18 21 43 15 71 -14z"/>
<path d="M6393 3503 c-17 -42 -162 -598 -199 -763 -103 -464 -190 -1015 -194
-1230 -3 -114 -1 -130 13 -130 36 0 47 35 62 201 17 184 19 204 46 379 29 189
25 178 77 202 53 25 162 131 162 158 0 24 -25 43 -49 35 -10 -3 -36 -26 -56
-50 -36 -44 -72 -71 -82 -62 -6 7 113 611 143 727 14 52 48 162 75 243 50 149
61 212 25 152 -16 -27 -17 -28 -11 -5 10 44 18 180 11 180 -4 0 -14 -17 -23
-37z"/>
<path d="M7851 2729 c-39 -34 -71 -68 -71 -75 0 -14 27 -44 40 -44 10 0 116
87 143 118 12 13 16 28 12 41 -12 37 -49 25 -124 -40z"/>
<path d="M646 2560 c-85 -10 -158 -34 -178 -58 -11 -13 -10 -14 10 -8 15 5 31
1 53 -15 26 -18 53 -24 142 -31 73 -6 124 -6 152 1 22 6 72 8 111 4 69 -5 71
-5 107 27 44 38 46 52 10 70 -34 16 -293 22 -407 10z"/>
</g>
</svg>
