<svg version="1.0" xmlns="http://www.w3.org/2000/svg"
 width="1040.000000pt" height="1040.000000pt" viewBox="0 0 1040.000000 1040.000000"
 preserveAspectRatio="xMidYMid meet">
<g transform="translate(0.000000,1040.000000) scale(0.100000,-0.100000)"
fill="#000000" stroke="none">
<path d="M2531 9181 c-15 -27 -14 -174 1 -206 8 -18 18 -25 32 -23 19 3 21 10
22 97 1 52 -2 106 -6 120 -8 32 -35 39 -49 12z"/>
<path d="M2082 8774 c4 -21 84 -64 164 -89 51 -16 84 -12 84 9 0 11 -54 46
-71 46 -6 0 -31 10 -57 21 -25 12 -64 24 -85 27 -34 4 -39 3 -35 -14z"/>
<path d="M6498 8616 c-22 -16 -58 -108 -58 -146 0 -25 4 -30 25 -30 20 0 29
10 49 53 31 68 37 96 25 119 -11 21 -18 22 -41 4z"/>
<path d="M5982 8578 c-17 -17 2 -43 89 -132 53 -54 83 -77 93 -73 24 9 20 33
-13 81 -61 89 -144 149 -169 124z"/>
<path d="M3065 8564 c-163 -35 -328 -145 -414 -278 -114 -174 -132 -427 -46
-623 29 -65 29 -63 13 -63 -38 -1 -93 -79 -114 -160 -22 -86 -12 -155 29 -217
39 -59 117 -113 161 -112 28 0 29 1 12 12 -80 51 -115 79 -141 116 -27 39 -30
50 -30 124 1 91 22 147 71 186 36 29 101 28 145 -2 57 -37 72 -84 79 -232 6
-153 19 -185 72 -185 40 0 110 69 153 152 17 32 33 58 36 58 14 0 314 -189
312 -196 -1 -5 -15 -43 -30 -84 -37 -102 -39 -222 -5 -292 29 -59 89 -112 150
-132 63 -22 157 -20 210 4 l43 19 11 -27 c18 -44 48 -164 48 -189 0 -43 -18
-63 -56 -63 -40 0 -73 16 -157 72 -86 58 -108 45 -27 -16 107 -79 184 -109
235 -90 25 10 45 58 45 109 0 44 1 45 22 34 33 -18 122 -4 175 26 75 45 143
116 143 152 0 53 -92 155 -164 183 -53 20 -64 5 -17 -23 49 -29 128 -105 141
-137 12 -28 11 -33 -11 -56 -71 -76 -181 -130 -235 -115 -32 8 -60 43 -70 86
-7 29 -7 30 13 13 26 -23 68 -23 92 1 11 11 27 21 38 23 10 2 19 14 21 27 3
17 -9 35 -47 71 l-50 47 24 34 c34 45 31 76 -13 145 -73 112 -219 214 -306
214 l-41 0 83 -41 c91 -44 213 -150 247 -213 23 -43 16 -60 -66 -150 -101
-110 -216 -143 -321 -93 -29 14 -62 34 -74 44 -80 70 -88 191 -23 351 16 41
27 82 24 91 -3 9 -73 56 -156 105 -182 108 -191 115 -183 142 5 18 16 22 74
28 164 15 589 115 647 152 27 17 17 33 109 -171 75 -168 131 -267 200 -356 45
-59 46 -60 16 -45 -34 18 -78 21 -87 7 -6 -11 22 -41 39 -41 7 0 30 -13 52
-30 39 -29 84 -40 84 -19 0 6 18 -5 40 -24 98 -84 221 -127 362 -127 115 0
176 14 278 62 110 53 206 145 252 243 57 123 48 270 -22 345 -30 32 -60 40
-60 14 0 -8 11 -35 25 -58 92 -157 12 -360 -189 -480 -81 -49 -92 -45 -17 5
77 52 132 115 177 206 34 66 36 77 32 145 -4 82 -22 126 -75 187 -35 41 -35
41 -23 92 31 127 -10 250 -114 346 -144 134 -415 205 -716 189 l-105 -5 65 16
c93 24 379 23 473 0 230 -57 382 -176 437 -343 28 -83 28 -137 2 -197 -22 -51
-19 -56 17 -31 50 35 63 118 35 215 -63 214 -236 352 -514 409 -182 38 -458
17 -629 -49 -54 -20 -71 -20 -71 2 0 26 -88 155 -154 224 -116 123 -243 202
-381 238 -74 19 -217 18 -310 -1z m-190 -146 c-165 -133 -239 -278 -264 -509
l-8 -84 -2 100 c-1 113 13 178 60 273 35 71 128 176 196 222 60 39 68 38 18
-2z m1027 -1684 c3 -3 -5 -16 -18 -29 -13 -13 -25 -34 -25 -47 -1 -15 -3 -17
-6 -6 -2 9 3 32 11 52 14 34 26 43 38 30z"/>
<path d="M8015 8370 c-214 -28 -361 -170 -390 -375 -5 -36 -4 -37 6 -15 55
120 77 157 120 205 133 144 376 185 567 94 215 -103 341 -399 288 -680 -35
-188 -15 -258 128 -442 49 -62 86 -161 86 -226 0 -106 -60 -200 -153 -242 -46
-21 -67 -24 -182 -24 -127 0 -132 1 -197 33 -85 42 -161 122 -210 224 -20 42
-42 79 -47 83 -20 12 -23 -45 -6 -98 65 -203 284 -337 530 -324 160 7 281 76
340 192 26 50 30 69 29 134 0 99 -27 156 -134 281 -91 108 -131 180 -138 249
-2 27 3 99 12 162 13 90 15 132 7 199 -34 298 -207 512 -456 565 -76 16 -108
17 -200 5z"/>
<path d="M6962 7999 c-234 -41 -438 -180 -467 -316 -9 -44 -2 -41 29 11 58
100 210 204 360 246 324 92 585 -39 755 -377 93 -186 125 -341 125 -598 0
-252 -27 -379 -90 -435 -19 -16 -42 -30 -51 -30 -9 0 -38 23 -64 50 -26 28
-50 50 -53 50 -13 0 -4 -48 18 -96 46 -99 108 -119 175 -58 73 65 104 169 120
397 13 186 -5 373 -51 535 l-21 73 29 30 c27 28 29 37 32 119 4 79 1 95 -24
150 -35 77 -106 144 -177 165 -60 18 -90 18 -137 2 -32 -12 -40 -10 -95 19
-33 18 -85 40 -115 49 -67 19 -226 27 -298 14z"/>
<path d="M5839 7699 c-85 -11 -196 -49 -266 -91 -117 -70 -221 -216 -258 -363
-23 -92 -20 -246 8 -343 43 -148 147 -281 262 -338 56 -27 68 -29 170 -28 89
0 121 4 165 22 57 22 119 66 109 76 -3 3 -39 -6 -80 -20 -109 -38 -234 -43
-314 -13 -154 58 -285 276 -285 474 0 203 120 419 275 498 110 55 189 72 335
71 126 0 143 -3 255 -38 226 -70 354 -89 438 -65 67 18 41 39 -51 39 -80 1
-188 22 -327 64 -201 61 -295 73 -436 55z"/>
<path d="M3685 7340 c-5 -8 23 -23 128 -68 9 -4 41 -40 70 -81 28 -41 57 -75
62 -75 21 -2 15 45 -13 101 -33 64 -72 106 -115 122 -36 14 -124 14 -132 1z"/>
<path d="M7234 7161 c-17 -10 -41 -32 -52 -49 -26 -36 -52 -131 -52 -191 l0
-44 -87 6 c-89 6 -177 30 -230 63 -15 10 -52 40 -81 66 -30 26 -62 48 -72 48
-10 0 -34 -21 -54 -49 -71 -96 -202 -159 -386 -182 -103 -13 -189 -4 -305 32
-105 33 -155 20 -72 -19 89 -42 214 -66 348 -66 l126 -1 -1 -30 c-2 -44 33
-45 59 -3 27 43 59 58 128 58 50 0 57 2 57 19 0 11 -5 23 -10 26 -6 4 10 28
40 56 27 28 57 64 66 80 l15 30 28 -35 c69 -87 180 -146 302 -161 48 -6 64 -3
111 19 l55 26 7 71 c11 117 56 192 122 205 58 11 143 -57 163 -131 35 -129
-21 -333 -97 -351 -41 -10 -55 -24 -41 -40 16 -20 59 -17 95 5 70 43 109 159
102 310 -4 99 -18 141 -62 189 -54 60 -160 81 -222 43z"/>
<path d="M3673 6943 c-4 -10 1 -22 14 -32 19 -16 19 -17 1 -46 -34 -57 -15
-115 38 -115 15 0 41 15 66 39 39 36 41 41 31 64 -12 27 -111 107 -132 107 -6
0 -14 -7 -18 -17z"/>
<path d="M6046 6715 c-48 -17 -60 -29 -52 -51 5 -13 13 -15 39 -8 17 4 59 8
92 9 54 0 60 2 63 22 6 41 -67 55 -142 28z"/>
<path d="M2704 6605 c33 -551 447 -768 844 -441 48 39 142 144 142 158 0 23
-39 0 -116 -71 -146 -133 -269 -192 -399 -193 -101 0 -170 29 -251 104 -92 87
-139 197 -184 439 -6 31 -18 65 -26 75 -14 17 -15 11 -10 -71z"/>
<path d="M7262 6583 c-18 -7 -42 -57 -42 -88 0 -43 50 -85 100 -85 73 0 120
37 120 95 0 27 -31 48 -38 27 -2 -8 -12 -6 -29 8 -14 11 -32 20 -39 20 -8 0
-14 7 -14 15 0 15 -31 19 -58 8z"/>
<path d="M6505 6508 c-16 -73 -73 -158 -106 -158 -26 0 -55 43 -69 100 -9 38
-16 50 -31 50 -27 0 -25 -52 5 -116 43 -93 103 -110 166 -46 38 38 80 132 80
177 0 40 -37 33 -45 -7z"/>
<path d="M6186 6478 c-21 -108 -30 -141 -49 -179 -12 -24 -30 -45 -39 -47 -22
-4 -54 47 -63 100 -5 28 -12 38 -26 38 -27 0 -25 -52 6 -118 70 -150 184 -57
211 171 6 53 5 57 -15 57 -13 0 -22 -8 -25 -22z"/>
<path d="M3339 6303 c-16 -42 -8 -68 23 -71 37 -4 66 38 50 73 -16 35 -59 34
-73 -2z"/>
<path d="M2125 6184 c-510 -108 -1137 -574 -1507 -1120 -144 -211 -162 -270
-162 -504 0 -239 45 -502 124 -725 59 -164 75 -185 148 -185 43 0 42 1 76
-105 l16 -49 -40 -41 -40 -40 6 34 c10 47 -13 38 -48 -20 -40 -65 -44 -93 -18
-119 48 -48 168 -7 306 103 127 101 254 280 271 380 5 33 3 37 -16 37 -16 0
-27 -12 -44 -52 l-23 -51 -36 69 c-42 81 -80 184 -113 305 -22 83 -22 86 -4
97 10 7 39 53 64 103 l46 91 38 -79 c85 -174 219 -324 387 -436 185 -123 355
-183 502 -175 59 3 71 1 67 -10 -3 -8 -25 -96 -50 -196 -79 -324 -130 -618
-166 -956 -42 -395 -34 -1200 12 -1200 18 0 20 54 9 298 -36 802 121 1782 396
2475 94 238 186 430 297 623 95 166 130 239 124 257 -5 15 -83 -91 -155 -210
-77 -128 -232 -445 -301 -617 -35 -88 -71 -160 -87 -177 -15 -16 -53 -38 -83
-50 -50 -18 -63 -19 -133 -10 -149 20 -270 75 -393 178 -118 100 -235 251
-311 406 l-37 75 52 84 c29 46 80 117 112 158 53 66 76 120 50 120 -46 0 -370
-509 -435 -682 l-24 -63 -10 40 c-6 22 -18 90 -27 150 -10 61 -19 114 -22 118
-10 17 -33 -17 -33 -50 0 -125 55 -372 121 -539 30 -78 38 -109 30 -117 -8 -8
-11 -8 -11 1 0 7 -28 -6 -61 -29 -75 -50 -150 -78 -235 -86 l-64 -6 -34 74
c-137 296 -204 839 -130 1056 55 162 303 480 572 736 300 283 655 494 980 579
126 33 329 33 460 -1 51 -13 96 -21 99 -17 9 8 -92 52 -162 71 -75 19 -255 19
-350 -1z m-1006 -2446 c38 -61 36 -68 -33 -145 -57 -63 -184 -159 -195 -147
-11 13 -50 109 -66 161 -12 40 -12 45 3 50 103 35 242 107 242 125 0 21 20 3
49 -44z"/>
<path d="M6193 6192 c-24 -15 -76 -184 -81 -263 -4 -70 -2 -77 21 -105 33 -38
96 -41 144 -6 l31 22 32 -57 c42 -74 161 -190 236 -230 158 -84 311 -83 474 3
37 19 93 58 124 86 92 82 180 224 174 281 -3 30 -6 26 -53 -58 -71 -128 -164
-220 -281 -276 -79 -38 -98 -44 -174 -47 -176 -8 -312 72 -459 271 -31 43 -40
62 -32 70 6 6 11 20 11 31 0 17 -7 13 -42 -21 -47 -46 -108 -76 -133 -67 -46
18 -46 101 0 241 43 131 44 148 8 125z"/>
<path d="M2611 6043 c-6 -21 -11 -56 -11 -78 0 -278 204 -504 344 -382 l38 32
14 123 c15 139 12 162 -17 136 -24 -21 -39 -75 -39 -136 0 -59 -24 -88 -74
-88 -43 0 -91 33 -138 95 -54 71 -68 121 -68 237 0 91 -1 98 -20 98 -14 0 -22
-11 -29 -37z"/>
<path d="M4441 5860 c-108 -17 -214 -72 -287 -151 -22 -24 -91 -119 -152 -211
-119 -177 -201 -269 -272 -309 -83 -45 -113 -127 -92 -247 29 -174 176 -314
344 -330 77 -7 71 9 -15 37 -173 58 -266 161 -275 306 -6 101 23 174 82 209
66 39 152 138 258 298 162 244 254 324 406 350 133 23 288 -20 408 -113 29
-22 80 -74 114 -114 34 -41 65 -75 70 -75 14 0 -10 59 -45 115 -103 163 -342
266 -544 235z"/>
<path d="M7705 5852 c-101 -35 -230 -126 -324 -228 -89 -97 -156 -238 -122
-258 4 -3 24 27 44 67 72 144 208 275 364 349 111 54 145 53 251 -1 101 -53
200 -153 255 -258 44 -84 73 -99 64 -32 -11 80 -108 210 -214 286 -124 88
-216 110 -318 75z"/>
<path d="M6518 5853 c-42 -11 -7 -87 36 -81 27 4 34 49 11 72 -17 17 -18 17
-47 9z"/>
<path d="M3082 5684 c44 -75 22 -330 -57 -646 -72 -287 -181 -630 -246 -775
-34 -77 -36 -79 -230 -289 -159 -172 -245 -272 -307 -357 -63 -84 -85 -136
-47 -109 6 4 40 43 75 87 90 112 174 207 333 375 166 174 187 203 238 328 90
220 232 718 273 957 36 203 33 367 -7 426 -31 46 -52 49 -25 3z"/>
<path d="M5338 5685 c-110 -28 -202 -86 -213 -136 -10 -45 -1 -46 41 -4 111
112 313 140 456 63 218 -116 304 -417 204 -711 -20 -58 -36 -108 -36 -112 0
-3 10 -5 23 -3 51 7 107 189 107 349 0 203 -89 395 -226 490 -95 65 -245 92
-356 64z"/>
<path d="M4481 5600 c-103 -22 -204 -97 -245 -183 -14 -29 -39 -104 -55 -169
-16 -64 -37 -130 -46 -147 -8 -17 -11 -31 -6 -31 18 0 59 83 86 175 53 174
101 241 210 292 51 24 73 28 145 28 77 0 92 -4 164 -38 43 -20 82 -35 85 -31
11 11 -70 72 -117 89 -59 19 -164 27 -221 15z"/>
<path d="M7670 5547 c0 -17 100 -99 114 -94 44 14 -28 107 -83 107 -19 0 -31
-5 -31 -13z"/>
<path d="M4576 5486 c-46 -17 -146 -84 -153 -103 -12 -31 5 -32 42 -2 46 36
124 73 175 83 53 9 99 -9 151 -60 26 -25 52 -45 59 -42 16 5 -26 64 -73 102
-31 25 -48 31 -100 33 -37 2 -78 -3 -101 -11z"/>
<path d="M8395 5322 c253 -126 389 -207 549 -325 391 -292 694 -631 847 -951
98 -205 111 -342 50 -525 -37 -110 -68 -173 -181 -366 -49 -83 -92 -164 -96
-180 l-7 -29 30 22 c38 27 144 185 216 323 106 200 150 378 128 516 -46 298
-327 706 -713 1035 -253 217 -449 350 -688 469 -147 73 -228 104 -305 114 -44
6 -23 -7 170 -103z"/>
<path d="M2634 5405 c-3 -8 -2 -20 2 -26 5 -9 2 -10 -9 -6 -29 11 -21 -40 8
-59 52 -34 105 28 70 82 -17 27 -62 33 -71 9z"/>
<path d="M1610 5362 c-36 -26 -86 -60 -112 -74 -87 -48 -203 -142 -318 -258
-170 -170 -258 -296 -276 -392 -5 -34 -4 -38 14 -38 15 0 31 22 66 93 70 143
264 342 522 538 139 105 184 145 184 165 0 22 -10 17 -80 -34z"/>
<path d="M7468 5402 c-31 -6 -19 -30 25 -50 23 -11 58 -36 76 -56 19 -20 39
-36 43 -36 11 0 10 48 -2 70 -21 40 -103 81 -142 72z"/>
<path d="M7972 5370 c-91 -43 -160 -90 -234 -159 -68 -62 -60 -72 10 -13 84
72 144 110 241 152 77 34 98 50 74 57 -4 1 -46 -15 -91 -37z"/>
<path d="M5190 5263 c1 -101 62 -261 125 -326 34 -35 65 -48 65 -28 0 6 -19
31 -42 58 -54 63 -103 168 -119 254 -14 78 -29 100 -29 42z"/>
<path d="M7264 5289 c-9 -15 4 -24 55 -38 34 -10 64 -32 132 -102 53 -53 97
-89 109 -89 32 0 24 18 -44 94 -94 105 -226 176 -252 135z"/>
<path d="M2536 5199 c-45 -35 -29 -89 26 -89 37 0 64 39 48 69 -19 36 -45 43
-74 20z"/>
<path d="M4894 5143 c-51 -128 -88 -186 -172 -272 -137 -139 -252 -197 -448
-228 -65 -10 -114 -23 -127 -34 l-22 -17 29 -8 c68 -17 319 45 441 110 142 74
322 315 337 451 5 43 -20 42 -38 -2z"/>
<path d="M4997 5163 c-15 -14 -6 -96 18 -158 23 -63 24 -65 4 -65 -53 0 -144
-64 -133 -94 10 -27 36 -27 74 -1 21 14 53 28 72 31 33 6 37 3 96 -67 67 -81
95 -105 221 -191 113 -77 137 -81 206 -34 66 46 112 55 154 30 62 -37 79 -133
39 -214 -25 -49 -72 -85 -127 -99 -20 -4 -53 -12 -74 -17 -52 -12 -51 -28 1
-32 98 -7 207 52 243 132 27 60 25 159 -4 210 -34 60 -69 81 -132 80 -45 0
-63 -6 -110 -38 l-58 -38 -41 18 c-59 26 -271 240 -335 339 -28 44 -61 110
-72 148 -20 64 -28 75 -42 60z"/>
<path d="M7900 5010 c-6 -12 -28 -40 -47 -61 -34 -38 -35 -41 -19 -57 15 -15
19 -15 42 -2 15 8 40 34 57 58 25 34 29 47 21 60 -16 25 -41 26 -54 2z"/>
<path d="M8637 5003 c-27 -27 40 -93 95 -93 22 0 28 5 28 23 0 16 -13 29 -50
50 -53 28 -62 31 -73 20z"/>
<path d="M7563 4980 c3 -8 33 -75 66 -148 117 -256 258 -643 331 -906 l22 -78
-25 -57 c-37 -84 -64 -198 -50 -212 8 -8 22 12 54 81 27 57 45 86 50 78 11
-21 106 -441 133 -593 64 -350 91 -653 91 -1010 -1 -324 -16 -510 -66 -802
l-11 -63 -687 0 -686 0 -2 95 c-4 230 -95 664 -204 983 -116 335 -263 619
-451 870 -171 227 -387 393 -551 423 -33 6 -61 8 -64 6 -2 -3 37 -26 89 -51
133 -64 210 -118 317 -221 161 -155 277 -320 415 -589 167 -326 303 -764 366
-1171 21 -138 39 -333 31 -340 -2 -3 -189 -5 -414 -5 l-409 0 6 23 c11 37 25
484 25 767 1 346 -15 854 -30 955 -17 122 -27 141 -91 160 -70 20 -231 41
-453 57 -242 17 -1306 17 -1540 0 -229 -17 -344 -31 -382 -47 -27 -12 -32 -20
-39 -62 -9 -63 2 -772 17 -1074 l12 -236 -37 -57 c-48 -75 -110 -199 -129
-261 -24 -76 -26 -145 -3 -145 8 0 19 25 29 66 19 75 99 268 126 303 18 24 18
24 26 -85 4 -60 15 -160 26 -222 10 -63 19 -118 19 -122 0 -5 -440 -6 -977 -3
-681 4 -1026 2 -1137 -6 -173 -12 -283 -28 -292 -42 -3 -5 -4 -9 -2 -10 2 0
1065 -2 2363 -4 1298 -2 2493 -7 2655 -10 505 -9 2587 -6 3185 4 531 10 647
16 618 34 -37 23 -214 29 -648 24 -445 -5 -459 -5 -425 12 27 14 71 20 200 24
190 7 281 22 400 67 106 41 185 44 250 12 34 -16 46 -19 53 -9 15 21 -1 216
-33 402 -138 802 -426 1760 -680 2264 -53 106 -119 201 -140 201 -5 0 34 -84
85 -187 89 -180 163 -355 239 -564 l34 -97 -71 -78 c-132 -143 -321 -261 -492
-305 -98 -26 -266 -30 -377 -10 l-77 14 -11 71 c-91 553 -337 1351 -536 1737
-39 75 -124 191 -111 149z m-2298 -1801 c216 -12 445 -36 510 -52 35 -9 54
-20 62 -38 7 -13 8 -25 4 -27 -5 -2 -56 6 -113 17 -248 48 -591 71 -1043 71
-584 0 -1145 -46 -1182 -96 -40 -54 -19 -563 57 -1418 17 -181 30 -335 30
-343 0 -8 -12 -13 -34 -13 l-34 0 -6 108 c-23 384 -37 637 -47 842 -12 250
-18 894 -8 904 51 52 1190 80 1804 45z m-459 -779 c50 -25 88 -77 105 -143 10
-43 9 -51 -13 -95 -44 -85 -121 -117 -213 -88 -97 30 -161 132 -136 216 14 49
55 98 96 116 45 20 113 17 161 -6z"/>
<path d="M4682 4560 c-10 -17 -23 -20 -80 -20 -37 0 -90 6 -119 14 -55 15 -63
13 -63 -15 0 -13 10 -20 35 -25 33 -6 35 -9 41 -55 8 -62 34 -87 73 -72 l28
10 -40 -80 c-32 -62 -42 -95 -45 -143 -4 -58 -2 -65 22 -87 37 -35 86 -41 154
-22 71 21 142 64 142 88 0 25 -33 21 -93 -12 -67 -37 -110 -46 -148 -31 -59
25 -51 67 52 272 40 79 69 151 69 168 0 35 -10 38 -28 10z m-42 -77 c-1 -5 -8
-19 -16 -33 -8 -14 -13 -17 -10 -7 3 10 6 25 6 33 0 8 5 14 10 14 6 0 10 -3
10 -7z"/>
<path d="M4880 4540 c0 -12 10 -21 30 -25 27 -6 30 -11 30 -44 0 -44 24 -71
62 -71 31 0 49 20 63 69 9 31 16 37 44 41 35 5 53 27 29 34 -7 3 -68 7 -135 9
-114 5 -123 4 -123 -13z"/>
<path d="M4204 4478 c23 -242 173 -577 338 -753 l57 -61 -40 -24 c-21 -14 -39
-31 -39 -38 0 -23 48 -105 95 -165 55 -69 145 -130 216 -147 177 -43 433 74
574 262 48 65 58 93 26 83 -10 -3 -50 5 -88 18 l-69 23 53 69 c29 38 65 94 82
124 40 77 91 225 91 267 0 68 -37 31 -74 -76 -74 -208 -178 -351 -304 -418
-78 -42 -182 -66 -248 -57 -251 31 -506 376 -619 835 -24 99 -36 130 -47 130
-7 0 -8 -24 -4 -72z"/>
<path d="M2470 4393 c0 -5 -7 -39 -15 -77 -10 -48 -27 -87 -53 -125 -46 -66
-56 -91 -39 -91 25 0 96 111 106 164 18 97 21 136 11 136 -5 0 -10 -3 -10 -7z"/>
<path d="M8392 4360 c-35 -41 -39 -72 -9 -78 32 -6 102 73 91 102 -10 27 -47
16 -82 -24z"/>
<path d="M9427 4293 c-21 -20 -4 -42 43 -58 53 -18 70 -14 70 14 0 11 -16 23
-47 34 -54 19 -57 20 -66 10z"/>
<path d="M7780 4244 c0 -3 -29 -115 -65 -248 -35 -134 -71 -282 -80 -330 -13
-78 -13 -91 1 -134 39 -116 135 -247 264 -361 44 -39 85 -71 90 -71 29 0 -1
43 -98 139 -116 114 -170 187 -208 283 -25 60 -25 60 -9 146 9 48 30 139 46
202 79 297 94 380 69 380 -5 0 -10 -3 -10 -6z"/>
<path d="M9156 4132 c-2 -4 20 -27 49 -50 66 -50 155 -161 225 -279 29 -48 64
-102 77 -120 l23 -32 -36 -138 c-50 -190 -59 -231 -51 -240 15 -14 27 15 77
182 58 195 80 284 80 326 0 46 -22 31 -38 -25 l-14 -48 -78 119 c-129 196
-286 349 -314 305z"/>
<path d="M4952 3907 c-33 -24 -54 -32 -90 -32 -40 -1 -47 -4 -47 -21 0 -16 8
-20 49 -22 40 -3 57 2 102 30 40 24 54 38 52 52 -4 29 -19 28 -66 -7z"/>
<path d="M7783 3864 c-8 -21 28 -68 56 -72 27 -4 28 20 0 59 -22 32 -46 38
-56 13z"/>
<path d="M8747 3773 c-17 -16 -3 -40 39 -65 50 -31 64 -34 82 -16 19 19 15 25
-32 58 -43 29 -75 37 -89 23z"/>
<path d="M1360 3682 c0 -20 219 -321 299 -411 64 -73 136 -130 148 -118 7 8
-29 60 -102 147 -30 36 -92 115 -139 175 -105 138 -174 215 -192 215 -8 0 -14
-4 -14 -8z"/>
<path d="M9676 3602 c-3 -5 3 -31 12 -58 13 -36 23 -49 37 -49 16 0 20 6 18
30 -4 46 -23 85 -44 85 -10 0 -20 -4 -23 -8z"/>
<path d="M4374 3507 c-110 -80 -224 -186 -224 -208 0 -29 20 -23 66 22 23 22
90 77 150 122 105 79 137 117 97 117 -10 -1 -50 -24 -89 -53z"/>
<path d="M8370 3477 c-43 -81 -1 -106 50 -31 35 50 34 74 -3 74 -18 0 -30 -11
-47 -43z"/>
<path d="M5435 3415 c-33 -24 -86 -57 -117 -72 -32 -15 -58 -33 -58 -40 0 -21
16 -16 109 32 94 48 135 83 129 109 -2 13 -16 7 -63 -29z"/>
<path d="M4480 3432 c0 -16 102 -122 117 -122 21 0 14 11 -45 74 -50 52 -72
67 -72 48z"/>
<path d="M1385 3333 c-38 -31 -101 -85 -140 -121 l-70 -64 -25 33 c-56 76
-110 119 -110 89 0 -6 22 -42 50 -81 l49 -71 -111 -108 -111 -108 -88 91 c-48
50 -91 89 -94 85 -4 -4 23 -44 60 -90 100 -123 99 -115 28 -195 -68 -77 -135
-177 -126 -187 4 -4 55 41 114 100 l107 107 61 -119 c33 -65 75 -145 92 -176
l31 -57 -100 -108 c-122 -132 -150 -165 -190 -224 -78 -116 30 -28 203 163
l115 127 41 -44 c23 -25 46 -45 51 -45 5 0 -4 24 -21 54 -17 29 -31 58 -31 63
0 6 27 43 61 83 71 85 155 208 147 216 -3 3 -56 -51 -118 -120 -61 -69 -113
-126 -115 -126 -2 0 -31 51 -65 113 -35 61 -78 138 -97 171 -39 69 -46 53 86
188 l95 97 54 -100 c55 -100 115 -179 126 -168 9 8 -38 116 -96 219 l-48 85
142 142 c147 147 166 185 43 86z"/>
<path d="M657 3198 c-38 -81 -67 -263 -87 -548 -13 -190 -13 -740 1 -966 10
-173 33 -392 43 -401 3 -3 10 -2 17 2 13 9 9 99 -13 320 -7 73 -12 312 -12
615 -1 514 8 661 50 855 27 127 32 155 24 155 -4 0 -15 -15 -23 -32z"/>
<path d="M1924 3192 c-41 -23 -130 -99 -150 -129 -22 -35 -4 -52 29 -27 13 11
50 38 81 62 62 47 94 88 80 102 -5 5 -22 1 -40 -8z"/>
<path d="M1536 3028 c-43 -67 -117 -530 -147 -913 -17 -226 -18 -702 0 -742 7
-18 17 -33 22 -33 5 0 9 93 9 208 0 390 46 906 116 1285 19 103 34 194 34 202
0 22 -18 18 -34 -7z"/>
<path d="M1670 2785 c0 -22 44 -106 70 -132 24 -27 50 -30 50 -7 0 25 -88 154
-105 154 -8 0 -15 -7 -15 -15z"/>
<path d="M1610 2436 c5 -13 22 -51 38 -83 l30 -59 -49 -59 c-38 -47 -46 -61
-33 -63 9 -2 35 15 59 38 l42 42 32 -51 c17 -28 35 -51 41 -51 13 0 4 43 -21
94 -18 40 -18 40 5 70 48 66 40 93 -15 47 l-34 -29 -43 64 c-43 65 -69 85 -52
40z"/>
<path d="M617 2168 c99 -128 193 -258 260 -360 l83 -127 -75 -98 c-86 -110
-111 -151 -98 -164 9 -9 122 101 175 170 l26 34 61 -63 c65 -69 96 -77 40 -11
-19 21 -42 55 -52 74 l-19 34 60 79 c100 132 140 217 71 151 -13 -13 -55 -58
-93 -100 l-68 -78 -79 117 c-44 65 -96 138 -116 163 -71 88 -166 191 -175 191
-7 0 -7 -4 -1 -12z"/>
<path d="M1577 1968 c12 -62 109 -186 129 -165 13 12 -17 63 -75 127 -50 56
-58 61 -54 38z"/>
<path d="M6370 1647 c-125 -72 -201 -127 -283 -208 -59 -59 -78 -83 -75 -100
5 -37 25 -32 57 15 39 57 146 143 288 231 72 45 112 76 113 88 0 26 -17 21
-100 -26z"/>
</g>
</svg>
