<svg version="1.0" xmlns="http://www.w3.org/2000/svg"
 width="1041.000000pt" height="1041.000000pt" viewBox="0 0 1041.000000 1041.000000"
 preserveAspectRatio="xMidYMid meet">
<g transform="translate(0.000000,1041.000000) scale(0.100000,-0.100000)"
fill="#000000" stroke="none">
<path d="M6070 9349 c-25 -10 -25 -11 13 -24 21 -7 48 -21 59 -32 19 -16 48
-71 48 -90 0 -4 -26 -8 -58 -8 -68 0 -110 -25 -137 -81 -20 -42 -14 -75 18
-105 18 -17 31 -20 75 -17 57 5 99 35 129 92 l15 28 30 -28 c16 -16 38 -44 50
-61 25 -42 58 -45 58 -5 0 36 -47 102 -93 131 -28 17 -35 29 -40 61 -11 87
-104 164 -167 139z m110 -220 c0 -6 -16 -27 -35 -46 -27 -27 -41 -34 -66 -31
-44 4 -47 22 -11 58 24 24 39 30 71 30 23 0 41 -5 41 -11z"/>
<path d="M4050 8823 c-31 -11 -60 -47 -60 -74 0 -75 98 -81 135 -8 21 39 12
65 -27 78 -17 6 -31 11 -32 10 -1 0 -8 -3 -16 -6z"/>
<path d="M2522 7869 c13 -45 237 -108 605 -169 104 -17 222 -37 264 -45 224
-42 602 -45 919 -5 397 49 1008 84 1345 77 346 -8 581 -35 810 -94 87 -22 375
-127 428 -155 10 -5 21 -7 24 -5 8 8 -38 47 -115 98 -154 101 -407 172 -757
211 -82 9 -253 13 -535 12 -367 0 -465 -4 -840 -32 -234 -17 -539 -37 -678
-44 -371 -18 -565 0 -1084 102 -299 58 -393 70 -386 49z"/>
<path d="M8111 7773 c-95 -47 -94 -170 2 -220 17 -8 44 -28 60 -44 28 -28 86
-47 106 -34 21 12 11 33 -21 44 l-32 12 32 19 c34 21 51 63 35 89 -32 52 -120
46 -145 -10 -7 -16 -16 -29 -20 -29 -10 0 -48 51 -48 66 0 27 52 73 100 89 28
9 48 21 44 26 -9 15 -76 10 -113 -8z m129 -158 c10 -12 8 -16 -15 -25 -34 -13
-35 -13 -35 3 0 14 19 37 31 37 4 0 12 -7 19 -15z"/>
<path d="M2400 7713 c-130 -159 -277 -596 -515 -1538 -135 -535 -207 -847
-596 -2580 -158 -703 -271 -1189 -351 -1510 -38 -154 -74 -302 -79 -329 -5
-28 -15 -54 -22 -58 -6 -4 -48 -8 -93 -8 -88 0 -144 -14 -144 -36 0 -12 33
-14 192 -13 438 4 1197 -13 1433 -31 138 -11 255 -15 275 -11 l35 8 -40 11
c-129 36 -431 61 -915 77 -553 17 -556 18 -567 159 -4 50 3 102 35 252 23 104
53 254 67 334 14 80 68 330 120 555 52 226 207 914 345 1530 283 1262 305
1355 460 1940 171 646 309 1100 374 1236 13 27 22 49 20 49 -1 0 -16 -17 -34
-37z"/>
<path d="M8899 7387 c-9 -6 -21 -22 -28 -35 -16 -30 0 -52 39 -52 36 0 52 21
48 62 -3 36 -30 48 -59 25z"/>
<path d="M6957 7310 c-28 -91 -56 -205 -137 -560 -96 -421 -351 -1412 -679
-2635 -177 -659 -265 -1004 -277 -1087 -5 -39 -4 -48 9 -48 37 0 68 87 158
445 28 110 108 416 179 680 71 265 170 636 220 825 52 197 99 357 111 374 13
20 19 24 15 11 -3 -11 -36 -175 -75 -365 -38 -190 -98 -466 -131 -615 -74
-325 -156 -752 -164 -855 l-6 -75 15 40 c45 117 255 1029 435 1890 40 187 85
403 101 480 65 302 209 1019 238 1180 27 154 30 181 23 285 l-8 115 -27 -85z"/>
<path d="M7051 7206 c-29 -35 102 -803 144 -845 13 -14 15 -13 15 9 0 34 -39
335 -50 385 -5 22 -18 119 -30 215 -12 96 -26 192 -31 213 -10 38 -28 47 -48
23z"/>
<path d="M3144 6931 c-23 -10 -44 -23 -47 -28 -3 -5 37 -9 91 -8 84 0 104 -3
152 -26 78 -37 114 -71 150 -142 24 -48 28 -64 18 -70 -7 -4 -53 -31 -103 -60
-69 -40 -120 -82 -222 -182 -83 -81 -133 -124 -133 -113 0 40 -51 176 -75 198
-14 13 -27 21 -30 18 -3 -3 1 -39 10 -79 9 -41 23 -110 32 -154 9 -45 24 -88
34 -99 18 -19 21 -18 146 105 70 69 162 152 203 183 77 60 148 101 157 92 3
-3 -2 -37 -10 -75 -64 -281 -360 -524 -586 -481 -68 13 -145 55 -181 98 -16
19 -38 65 -50 103 -19 57 -22 86 -18 171 3 94 7 110 41 183 40 85 100 155 177
208 69 47 74 67 19 67 -85 0 -218 -125 -279 -262 -54 -124 -68 -288 -31 -391
67 -192 276 -296 485 -242 252 66 464 322 494 598 l7 61 55 16 c51 15 55 18
55 45 0 26 -4 30 -32 33 -18 2 -47 -1 -66 -6 -33 -9 -33 -9 -50 38 -24 68 -96
143 -171 180 -83 41 -182 50 -242 21z"/>
<path d="M8077 6720 c-47 -12 -92 -35 -117 -60 -19 -19 -20 -19 -72 8 -41 21
-69 28 -131 31 -94 4 -151 -14 -210 -68 -118 -106 -118 -295 0 -417 27 -27 37
-45 35 -64 -3 -23 3 -29 41 -44 24 -9 54 -28 67 -41 45 -48 91 -18 53 33 l-20
27 61 11 c34 6 68 14 76 18 11 5 20 -6 33 -43 24 -67 79 -116 150 -132 l56
-12 -15 -28 c-8 -16 -17 -49 -20 -73 l-7 -45 -86 31 c-47 17 -191 77 -319 134
-128 57 -242 104 -252 104 -39 0 -104 -119 -133 -243 -9 -39 -20 -56 -56 -85
-61 -49 -79 -71 -89 -107 -13 -45 3 -86 49 -127 l41 -37 -11 -51 c-16 -74 -13
-223 5 -294 46 -180 197 -321 392 -366 28 -7 52 -13 52 -15 0 -1 -24 -18 -54
-38 -124 -82 -209 -250 -192 -376 14 -103 74 -171 188 -212 l57 -21 -50 -79
c-27 -44 -69 -110 -92 -147 -68 -105 -159 -267 -219 -387 -78 -154 -209 -469
-252 -602 -33 -104 -47 -203 -28 -203 9 0 20 26 73 178 39 112 73 192 184 433
l58 127 34 -14 c31 -13 40 -12 124 16 98 33 124 37 152 25 13 -5 17 -2 17 12
0 52 -69 66 -185 38 -33 -8 -70 -15 -83 -15 l-22 0 21 43 c36 70 158 275 231
389 63 97 75 110 125 134 30 15 93 33 141 41 81 13 172 46 172 62 0 4 -35 3
-77 -2 -43 -5 -123 -6 -178 -3 -130 6 -212 34 -271 91 -54 51 -58 81 -11 90
17 4 60 22 94 41 68 38 90 41 119 19 31 -24 46 -19 32 10 -7 16 -25 29 -49 37
-35 10 -47 8 -118 -20 -103 -41 -124 -42 -115 -4 4 15 17 48 30 73 20 40 29
48 68 58 25 6 59 11 75 11 50 0 34 31 -22 45 l-28 8 26 27 c44 46 174 100 277
116 101 15 121 25 97 50 -19 18 -52 20 -184 10 -273 -21 -491 113 -550 339 -8
33 -15 75 -15 95 l0 35 63 0 c77 0 132 28 132 66 0 29 -18 29 -85 3 -49 -19
-97 -14 -106 11 -16 40 89 320 161 429 41 64 55 95 69 158 l6 28 58 -26 c134
-61 382 -163 450 -185 39 -12 72 -28 72 -34 0 -18 57 -92 83 -110 22 -14 30
-14 88 2 57 14 69 15 108 2 54 -17 85 -56 84 -104 -2 -52 -46 -120 -99 -151
-40 -23 -53 -26 -107 -21 -34 3 -70 8 -81 13 -38 15 -10 -21 34 -44 73 -38
169 -18 240 48 l30 28 0 -23 c0 -13 2 -29 5 -37 3 -8 -11 -20 -40 -31 -123
-51 -174 -222 -99 -329 66 -95 198 -134 299 -89 26 11 49 21 50 21 2 0 -3 -18
-11 -40 -35 -100 39 -210 161 -241 126 -32 248 52 249 172 1 51 3 52 62 34 6
-2 13 -23 16 -48 7 -61 56 -129 111 -156 75 -36 177 -23 235 32 70 65 82 181
28 252 l-28 36 20 22 c51 54 67 158 35 225 -21 44 -96 122 -117 122 -12 0 -10
10 9 46 33 62 34 149 3 213 -50 104 -165 181 -272 181 -56 0 -58 1 -51 23 4
12 10 57 12 99 4 66 2 84 -17 123 -39 80 -124 135 -209 135 -30 0 -31 2 -31
42 0 130 -130 228 -284 215 -34 -3 -68 -8 -77 -12 -13 -5 -18 5 -28 57 -22
111 -81 187 -186 239 -67 32 -156 44 -218 29z m-287 -84 c0 -3 -24 -15 -53
-29 -98 -45 -165 -121 -189 -214 l-12 -48 -8 40 c-23 105 44 213 150 245 29 9
112 13 112 6z m-326 -636 c14 -14 -111 -200 -135 -200 -25 0 2 100 47 178 23
39 29 43 52 37 15 -3 31 -10 36 -15z m-164 -257 c-1 -27 -72 -178 -82 -175
-41 10 -48 66 -15 108 43 56 97 93 97 67z m2158 -500 c52 -75 53 -151 1 -206
-21 -22 -29 -26 -25 -13 33 99 27 148 -24 229 l-30 47 29 -15 c16 -8 38 -27
49 -42z m-968 22 c0 -8 -19 -28 -43 -45 -43 -31 -72 -69 -94 -125 l-11 -30 -1
38 c-1 45 26 102 66 138 51 47 83 56 83 24z m290 -331 c0 -4 -7 -27 -17 -53
-21 -59 -12 -109 26 -150 33 -35 32 -37 -7 -17 -88 46 -110 141 -51 213 11 13
49 18 49 7z m700 -115 c0 -47 -22 -94 -50 -109 l-21 -11 21 38 c22 41 26 105
10 150 l-10 28 25 -28 c18 -20 25 -40 25 -68z"/>
<path d="M4425 6443 c-70 -36 -113 -70 -157 -126 -43 -56 -51 -97 -16 -97 13
0 46 25 87 68 67 68 155 120 184 109 9 -3 23 -31 32 -62 14 -49 21 -58 52 -71
39 -17 33 -18 248 33 176 41 214 40 331 -7 91 -37 196 -50 244 -30 16 7 30 16
30 20 0 4 -30 10 -66 14 -40 4 -107 23 -172 49 -100 39 -113 41 -207 42 -76 0
-126 -7 -210 -28 -164 -41 -167 -41 -185 13 -19 58 -30 74 -57 89 -34 18 -84
12 -138 -16z"/>
<path d="M2269 5891 c-42 -42 -34 -104 16 -131 62 -33 110 -5 110 66 0 38 -5
50 -28 70 -37 32 -62 30 -98 -5z"/>
<path d="M7510 5878 c-51 -70 -53 -118 -4 -118 34 0 78 26 97 60 14 22 21 26
49 22 29 -4 31 -3 20 11 -18 22 -97 67 -116 67 -9 0 -30 -19 -46 -42z"/>
<path d="M735 5510 c-23 -9 -50 -38 -43 -45 2 -3 20 0 39 5 47 14 84 4 114
-32 33 -40 32 -48 -10 -48 -42 0 -90 -22 -99 -45 -8 -22 -7 -67 2 -81 30 -45
101 -39 149 14 32 35 32 35 58 18 31 -21 55 -15 55 14 0 12 -15 30 -40 46 -28
19 -43 37 -50 63 -20 76 -105 120 -175 91z m115 -190 c0 -13 -48 -36 -56 -27
-4 3 -4 13 -1 22 7 17 57 21 57 5z"/>
<path d="M2847 5049 c-27 -16 -7 -34 89 -80 69 -32 91 -49 123 -92 36 -47 61
-95 61 -116 0 -4 -39 -32 -87 -61 -92 -56 -199 -151 -261 -233 l-37 -48 -22
73 c-15 49 -31 81 -50 97 -35 30 -38 18 -18 -61 9 -34 19 -96 22 -136 6 -79
26 -118 54 -107 9 3 42 41 73 84 69 96 205 229 277 270 30 17 58 31 62 31 10
0 0 -78 -20 -149 -51 -188 -211 -343 -393 -382 -29 -6 -87 -9 -129 -7 -178 11
-276 122 -288 328 -5 74 -2 95 21 164 47 140 128 236 284 335 45 29 82 55 82
58 0 10 -87 -10 -135 -32 -141 -62 -275 -233 -320 -406 -25 -94 -17 -226 17
-301 85 -185 291 -265 518 -202 246 69 420 287 437 546 4 62 10 91 20 95 20 8
16 40 -7 56 -11 7 -36 46 -55 85 -43 86 -113 152 -191 181 -60 23 -99 26 -127
10z"/>
<path d="M4132 4715 c-47 -21 -145 -98 -181 -144 -42 -53 -56 -93 -41 -121 11
-21 13 -20 45 26 59 87 184 194 227 194 28 0 32 -24 14 -77 -23 -68 -21 -109
9 -138 30 -31 58 -31 141 0 122 46 213 59 374 51 80 -3 156 -8 170 -11 53 -11
63 31 13 54 -36 16 -234 33 -308 26 -92 -9 -203 -35 -273 -62 -79 -32 -89 -25
-72 46 20 83 16 122 -15 148 -30 26 -56 28 -103 8z"/>
<path d="M9184 4576 c-3 -8 -15 -11 -30 -8 -79 15 -144 -80 -110 -161 18 -45
60 -67 124 -67 38 0 55 5 76 25 66 61 59 172 -14 210 -36 18 -39 19 -46 1z
m19 -53 l26 -28 -57 0 c-31 0 -65 -4 -76 -9 -16 -8 -17 -7 -7 12 11 21 55 51
77 52 5 0 22 -12 37 -27z"/>
<path d="M8345 4343 c28 -8 57 -21 65 -28 8 -6 35 -20 60 -29 102 -40 200
-115 301 -230 63 -72 95 -121 156 -241 100 -195 264 -568 254 -578 -4 -4 -31
-11 -60 -16 -41 -6 -69 -4 -124 11 -95 25 -143 19 -180 -22 -31 -35 -30 -48 1
-31 33 18 72 13 157 -19 93 -35 155 -38 208 -11 l36 19 39 -102 c43 -111 110
-294 167 -454 20 -57 34 -110 31 -118 -3 -8 -18 -14 -33 -14 -39 0 -167 28
-238 53 -87 31 -168 29 -225 -5 -49 -28 -97 -74 -88 -84 3 -3 23 3 45 14 78
40 114 44 189 21 38 -12 74 -24 79 -29 20 -15 146 -40 202 -40 35 0 67 6 79
14 20 15 23 9 103 -242 98 -306 91 -282 87 -282 -1 0 -29 9 -62 20 -32 11 -73
20 -89 20 -38 0 -75 -25 -75 -50 0 -17 4 -18 29 -9 23 8 40 5 90 -15 33 -14
76 -26 95 -26 l34 0 30 -112 c17 -62 37 -141 45 -174 l14 -62 -31 13 c-72 29
-182 40 -421 39 -132 0 -287 -6 -345 -12 -58 -7 -158 -15 -222 -19 l-118 -6
-14 34 c-8 19 -33 180 -56 359 -57 450 -93 627 -146 718 -27 45 -48 56 -39 20
35 -148 48 -234 54 -351 5 -120 4 -136 -9 -131 -114 49 -166 59 -386 74 -171
11 -341 43 -501 96 -130 42 -407 177 -481 234 -30 23 -51 36 -47 31 4 -7 -5
-11 -22 -11 -16 0 -67 -11 -114 -25 -329 -95 -426 -97 -1099 -21 -629 72 -722
82 -985 107 -272 25 -682 36 -742 20 -124 -34 -265 -322 -322 -661 -16 -93
-39 -353 -45 -505 -1 -25 -5 -30 -26 -28 -14 1 -132 5 -262 9 l-237 7 -11 54
c-45 214 -37 469 20 630 22 64 63 114 80 97 15 -15 37 -141 50 -284 28 -321
50 -358 204 -348 75 5 135 29 144 57 4 12 -10 13 -81 8 -46 -4 -99 -4 -117 0
-53 10 -62 49 -99 408 -19 183 -51 245 -120 230 -98 -21 -156 -184 -167 -470
-6 -142 8 -302 31 -357 7 -17 -2 -18 -111 -18 -109 0 -158 -9 -142 -25 10 -10
239 -28 713 -55 167 -10 195 -14 235 -35 54 -28 153 -49 315 -67 196 -21 851
-18 2725 13 368 6 720 7 820 2 251 -12 692 -2 713 16 10 7 17 17 17 22 0 5
-47 9 -105 9 -99 0 -134 10 -81 24 13 3 59 29 101 57 105 71 163 150 209 287
l22 64 18 -150 c19 -163 34 -218 62 -239 31 -22 143 -53 194 -53 52 0 71 13
44 28 -43 24 33 66 143 79 l53 6 0 -60 c0 -32 -6 -67 -12 -76 -7 -10 -49 -41
-93 -70 -74 -48 -80 -54 -79 -84 2 -32 1 -33 -37 -33 -69 0 -42 -18 38 -25 45
-5 110 -3 157 4 45 6 144 9 222 7 138 -4 142 -5 212 -40 103 -52 162 -47 162
14 0 37 -32 83 -92 131 -64 51 -169 102 -200 97 -19 -2 -9 -13 62 -65 92 -66
158 -129 147 -139 -4 -4 -62 21 -129 55 -163 82 -196 86 -310 38 -86 -37 -158
-55 -158 -41 0 5 30 27 66 49 82 50 104 84 104 158 l0 56 38 11 c20 6 86 16
146 22 86 10 111 9 114 0 2 -7 34 -32 72 -56 70 -46 213 -175 231 -209 20 -35
-1 -31 -44 10 -98 94 -234 170 -258 146 -7 -7 5 -19 35 -37 66 -39 167 -127
201 -175 24 -35 26 -44 14 -52 -8 -5 -17 -9 -21 -9 -5 0 -8 -9 -8 -19 0 -50
91 -23 98 29 2 13 15 32 28 43 13 10 24 25 24 33 0 9 11 14 33 15 l32 1 -33 8
c-43 10 -57 24 -15 16 48 -11 49 10 0 22 -27 7 -60 28 -92 58 -63 59 -186 142
-245 166 l-45 18 80 -6 c44 -3 121 -12 170 -19 154 -24 175 -17 175 57 0 147
-305 1089 -535 1654 -150 370 -367 814 -447 919 -124 161 -318 267 -483 264
l-60 -1 50 -15z"/>
<path d="M8434 3766 c-28 -13 -44 -33 -44 -57 0 -5 23 -7 53 -3 35 4 66 1 97
-10 25 -9 58 -16 73 -16 33 0 84 27 92 48 4 12 -2 13 -34 8 -28 -4 -56 0 -93
13 -78 28 -109 32 -144 17z"/>
<path d="M7263 3738 c-89 -96 -453 -571 -453 -593 0 -3 -28 -49 -61 -102 -73
-114 -118 -206 -126 -259 -6 -35 -5 -38 10 -26 9 8 42 59 73 115 74 134 149
244 175 257 11 6 39 10 62 8 53 -3 56 17 9 48 l-32 22 59 79 c33 43 123 155
200 248 160 193 172 212 151 225 -24 15 -34 12 -67 -22z"/>
<path d="M5146 3414 c-9 -8 -16 -19 -16 -23 0 -18 30 -32 61 -29 35 3 56 26
46 52 -8 21 -70 21 -91 0z"/>
<path d="M2228 3181 c-41 -8 -84 -34 -109 -65 -10 -12 -16 -22 -16 -23 1 -1
27 7 57 17 146 51 317 -1 391 -118 16 -25 26 -49 22 -53 -5 -3 -33 -14 -63
-24 -108 -34 -226 -122 -304 -226 -25 -34 -46 -56 -46 -49 0 38 -68 125 -85
108 -3 -2 4 -26 14 -54 10 -27 22 -72 26 -101 4 -28 13 -60 20 -69 17 -24 25
-17 115 96 38 48 93 106 122 128 52 40 190 112 215 112 18 0 17 -93 -2 -156
-35 -118 -147 -265 -256 -334 -62 -41 -156 -70 -222 -70 -111 0 -243 73 -287
160 -90 177 -14 441 161 557 44 29 50 50 15 59 -34 8 -103 -29 -158 -88 -124
-130 -170 -355 -107 -522 60 -161 258 -267 437 -236 81 14 131 34 209 83 167
104 286 313 286 503 0 64 0 65 34 79 27 11 34 19 31 37 -2 19 -10 24 -45 26
-37 3 -44 8 -67 45 -54 91 -149 156 -260 176 -65 12 -74 12 -128 2z"/>
<path d="M7487 2863 c-26 -25 44 -105 108 -123 51 -14 88 -9 195 27 107 37
240 43 303 15 26 -12 47 -16 47 -11 0 15 -46 55 -88 76 -48 23 -211 23 -292
-2 -30 -9 -81 -19 -112 -22 -49 -5 -64 -2 -104 21 -53 30 -49 28 -57 19z"/>
<path d="M3305 2791 c-37 -22 -85 -77 -85 -97 0 -23 26 -16 44 11 19 29 73 65
96 65 9 0 42 -20 75 -45 70 -52 133 -70 212 -61 74 9 115 31 111 59 -3 25 -23
26 -99 6 -68 -17 -128 -5 -196 42 -66 44 -110 50 -158 20z"/>
</g>
</svg>
